<svg xmlns="http://www.w3.org/2000/svg" fill="none" viewBox="0 0 41 14">
  <path fill="#000" d="m4.55 9 .14-.11c-.01.06-.21.18-.14.1Zm2.43-5.22-.11.1.4-.2c.02 0-.01.05.03.03.05-.02.02-.05.1-.09.06-.04.47-.16.64-.2.29-.06.62-.17 1.24-.03.3.07.58.18.84.32-.52-.2-.01.05.12.1.03.02.08-.06.52.24.26.2-.04.1.42.39-.29-.31.04-.06.28.14l.48.44c.05.05.14.08.2.14l.1.14c.27.27.5.52.73.77-.2-.07.07.15.08.16.03.08-.22-.18-.13-.07l.4.42c-.1-.12.2.08.22.15.04-.07.51.56.6.57.03 0-.06-.1.18.08.03.01 0 .03.02.03 0 0 .1-.04.13.03 0 .01-.1.02.04.07l.06.02c-.02-.09.17 0 .25-.01a.4.4 0 0 1-.04-.03c.06.02.07-.01.09-.01.06-.01.17-.02.25-.06.09-.04.06-.09.19-.13h-.1c.08-.03.16-.07.25-.13-.16.18.04-.02.06-.03.02-.02 0 .03.04 0 0 0-.02-.03.05-.07.14-.1.14-.07.2-.11 0 0-.03-.01.07-.1.33-.28 0 .02 0 .03-.02.02.16.02-.15.2.1-.06.14-.03.15-.04l.19-.15c.07-.08-.02-.05 0-.06 0-.02.24-.15.23-.27.15-.02-.01.11-.17.26-.01.03.18-.1.2-.12.23-.2.05-.14.08-.22 0-.04.14-.09 0-.06.22-.2.11-.05.13-.06.03-.01.1-.1.1-.1.02 0-.01.05.05 0 0 0 .08-.1-.05-.02.16-.13.12-.15.22-.14.03-.2.13-.02.18-.05.13-.1.03-.14.04-.14.02-.06.38-.33.47-.42 0 .09-.28.24-.33.3-.14.18.28-.2.2-.02l.12-.2c.14-.03 0 .1.28-.14.02-.07-.2.17-.17.1.01-.04.18-.18.17-.19 0-.01-.14.12-.13.08.01-.07.62-.48.2-.12.12-.1.24-.07.33-.18.07-.06-.43.13.21-.3.04.03-.25.2-.25.2l.11.06c.03-.01.68-.5.9-.52-.06-.01.13-.11.35-.19.27-.1.56-.12.62-.13.04-.01-.1-.03-.07-.04.27-.07.86.08 1.05.16.23.08.2.04.22.05.09.04 0 .03.06.05.1.03.6.3.6.3.02 0-.04-.07.06-.02.02.01 0 .04.27.2.32.18-.2-.19-.04-.14.17.19.2.13.25.17.02.01.12.15.26.25l-.32-.2c.1.08.3.2.37.27.04.03-.02.04.06.1.02.02.15-.01-.1-.14.01-.04.1.06.16.08 0 0 .07-.02.1.05.01.02-.24.05.23.24.02.01-.01-.04 0-.04s.1.1.12.1c.01 0-.02-.05 0-.05.08.04.11.18-.02.07l.12.13c-.01-.1.08.04.15.09.42.3.17.05.26.09.13.05-.03.09.16.18.02 0-.15-.18.22.13l-.17-.12c-.01.08.2.15.22.16.16.1.04.05.3.18.01.01.05.06.1.08.2.1-.23-.18-.22-.22l.35.24.05.04c.02.03-.03 0-.07-.01-.04-.02-.06-.04-.05-.01l.03.03c.08.07.34.16.4.18.09.04.12.14.14.03 0 .1.04.04.06.04a.8.8 0 0 0 .31 0l.08.02c.01 0 0-.04.03-.06.04-.01.39-.05.42-.04.03.01-.14.04-.1.07l.38-.1c.06-.03.04 0 .06 0l.2-.1c-.04 0-.63.19-.48.1.02 0 .14.01.11-.04.53-.15 1.12-.39 1.75-.64-.34.2-.74.32-1.09.46-.04.02-.2.07-.17.1.29-.1.66-.27.97-.38 0 0-.02.03.02.02.07-.02.27-.15.32-.16 0 0-.11.09-.06.1.12 0 .1-.13.18-.16.07-.03.55-.16.66-.25.1-.09-.36.12-.34.07.3-.16.65-.26.97-.38.01 0-.05 0 .02-.04.13-.05.17-.02.24-.03.07-.02.31-.1.35-.1l-.04.06c-.1.05-.16.01-.17.01l-.1.05c-.05.02-.08 0-.16.03-.04.02.01.03-.03.05-.02 0-.23 0-.22.07 0 .02.53-.16 1.04-.27.06-.02.24-.03.3-.04.31.02.58.02.64.02l-.38-.04c.25.03.56-.03.58.07.93.04 1.87.11 2.82.23.16.03.07.08.35.1l-.21-.09c.14.03.77.15.88.15 0 0 .04-.05.2-.02.14.02.15.06.23.08l.15.03c.01 0 .02.03.05.04.1.04.03-.05.12.05h-.08c.13.03.3.1.1.08-.03 0 0-.02-.02-.02-.97-.18-.2 0 .14.04.08.05.57.14.58.16.02.01-.07.02.03.07.03.01.64.14.41.13-.05 0-.34-.08-.41-.1.15.12.56.11.6.12.17.05-.34-.01.04.09h.03-.07c.2.02 0-.05.1-.06.05 0 .3.07.3-.01.08 0 .03.03.04.03l.2-.02v.05a.6.6 0 0 0 .15-.04s-.03-.03-.02-.04c.01-.01.13-.04.13-.06 0-.01-.13.05-.12 0 .07 0 .17-.07.2-.12l-.1.05c0-.06.12-.12.1-.06v-.06l.03-.04s-.05 0-.04-.01c0-.03.11-.1.13-.1.03 0-.05.07-.05.1l.11-.02c.03.04-.08.08-.05.1l.09-.03c-.07.1-.26.18-.29.23.14-.06.29-.16.35-.08.02.03-.03.1-.02.1.03.03.1-.07.1-.07h.01c.02.02-.11.13-.12.14 0 .02.1.04.11.06 0 0-.1.08-.04.09.05 0 .15-.06.15-.06.03 0-.13.12-.13.13l.11-.02c.01.01-.05.07-.07.12 0 .03.07 0 .06.01l-.2.11c-.01.01.04.02.04.02 0 .02-.07.04-.06.04 0 .01.29-.03.3-.02.02.04-.3.1.03.11l.06-.05c.05 0-.12.17.12 0-.43.32-.03.1-.06.2-.01.04-.2.15-.2.15.03.02.09-.03.11-.03.02 0-.14.12-.1.12.03 0 .22-.1.23-.1.09-.03 0 .05.03.05l.13-.06-.15.16c-.02.02.08-.02.07 0-.1.09-.37.13-.1.11l.11-.05c.07 0-.09.09-.1.12-.04.07.2-.07 0 .05.17-.05.25-.1.4-.21-.44.3-.6.49-.03.18-.18.1-.13.14-.18.17-.04.02-.34.1-.15.16.02.01.18-.1.14-.04-.42.19 0 .03 0 .03.02.04-.23.18-.54.25-.3.09-.64.1-.73.1l-.45.08c-.15-.01-.02-.04-.05-.05h-.37l-.08-.02h-.08c-.06-.04.01-.06 0-.06-.07-.04-.5-.12-.6-.16-.01.03.22.09.07.1-.18 0-.17-.11-.17-.12-.75-.18-1.5-.3-2.27-.4 0 .06.51.08.52.1.06.04-.78-.06-.89-.1l.24.07c-.14.05-.44-.06-.63-.05-.07 0 .05.04.05.04-.07.02-.2-.01-.1-.04-.18.02-.15-.01-.28-.03-.01 0 .05.03-.06.04-.05 0-.32-.02-.36 0-.01.01.12.12.14.03.29.07.1-.03.2-.02.02 0-.02.05.26.05-.05.08-.37 0-.43 0-.12.01.35.1.44.03-.04.07.04.01.14.03.12 0 .06.03.12.03.18.02.11-.04.24.02-.12-.15.24 0 .35.06a25.5 25.5 0 0 0-.53-.04l.02.03-.14-.02.03-.02c-.25.02-.3-.03-.32-.03-.26-.03-.55-.05-.81-.06-.04 0-.02.04-.3 0-.09-.02 0-.06-.1-.06-.14.1-.14.02-.17.02l-.2.01h-.48s.08.02-.02.01c-.02 0-.16-.06-.34-.1l.31-.02a.6.6 0 0 0-.22.05l.18-.02c-.07 0-.54.18-.42.17.08 0 .24-.13.28-.06-.16 0-1.07.38-1.15.4-.01 0 .04-.04.02-.04 0 0-.23.1-.26.1-.02 0 .07-.05.06-.06 0 0-.29.1-.3.15.07-.05.27-.12.18-.05l-.1.03c-.14.1.3-.1.36-.12-.25.14-.7.29-1.02.45-.15.04.18-.12.02-.07-.34.09-.07.07-.08.07-.07.06-.4.04-.36.14-.13.04-.1.01-.26.1L28.2 9c-.17.13-.66.13-.63.1.08-.05.31-.08.33-.1.03 0 .07-.13.4-.16.08-.11-.49.14-.24-.01-.17.08-.97.3-1.09.35-.01 0 .08.06-.14.08-.1 0 .13-.06.08-.06-.07-.01-.57.13-1.2.15a3.96 3.96 0 0 1-1.51-.26c-.03 0-.01-.02-.04-.03-.08-.03-.38-.14-.5-.24.17.14-.04.04-.22-.09a3.21 3.21 0 0 1-.14-.1c-.14-.1-.1-.13-.16-.18-.22-.2-.64-.4-.77-.6-.04.08-.28-.27-.42-.37-.1-.09-.3-.16-.18-.02-.18-.14-.39-.27-.56-.39-.03-.01.02 0-.03-.04 0 0-.02.01-.06-.01-.34-.2-.15-.14-.2-.19a7.43 7.43 0 0 1 .42.24c-.03-.09-.45-.29-.54-.35l.02-.03c-.05-.03-.28-.13-.25-.07.01.02.1.06.25.14-.04-.02-.03.03-.04.03-.09-.04-.24-.15-.3-.17l-.01.01c-.04-.02 0-.07-.06-.02-.05-.1.14.03.15-.01 0-.02-.12-.08-.19-.08-.07-.01-.03.01-.01.02-.02.02-.04.03-.03.04l-.04-.01a.8.8 0 0 0-.26.13s.03.05.02.06a1 1 0 0 0-.36.21l.17-.08c-.3.2-.24.2-.13.13h.01l.2-.1c.01 0-.48.38-.42.26 0-.01.26-.16.12-.11-.03 0-.17.13-.18.13-.08.02.23-.26.17-.26-.06.08-.18.14-.26.23-.04.03-.04.07-.04.07-.07.07-.05.01-.08.03-.01.01-.12.2-.15.1-.49.5-.1.16.21-.1-.08.11-.29.26-.37.35-.03.02 0 .03-.04.08-.1.1-.68.56-.84.69.08-.09.03-.1-.04-.03-.07.06.02.05.01.06 0 .02-.37.3-.43.35.26-.24.18-.21-.05-.03l.08-.1c-.13.11-.46.3-.53.37h.04c-.06.07-.35.23-.36.24 0 .02.13-.04.1 0a.83.83 0 0 0-.26.13c-.04.02 0 .03-.01.04-.1.07-.06 0-.23.1-.13.07-.21.16-.42.23.67-.24.14 0-.16.11-.05.02.02.06-.3.12.61-.27-.18.02-.38.02 0 0-.01-.03-.1-.02-.01 0 0 .02-.08.03-.82.03-.3 0-.45-.03-.06 0-.46-.04-.56-.07-.03-.01-.01-.03-.1-.06l-.27-.07a1.15 1.15 0 0 1-.12-.04c0-.01 0-.04-.16-.1-.05-.03-.1-.04-.04 0 .07.05.19.1.31.16.23.08.5.14.69.2.28.08-.63-.1-.66-.16-.01 0 .16.05 0-.02l-.03-.01c-.13-.05-.36-.1-.51-.2a.86.86 0 0 1-.11-.13s.21.1.19.07c0 0-.13-.07-.14-.1-.01-.02 0-.16-.02-.18-.05-.05-.03 0-.07-.03-.09-.06-.35-.3-.38-.27l.13.11c-.26-.2-.16-.1-.2-.11-.05-.03-.01-.05-.09-.12-.02-.02-.35-.3-.35-.28.2.14.1.12.1.12.03.04.09.05.13.09.3.26-.04.03.03.1.02.03.09.05.1.06.03.04.01.06.04.08.06.04.02-.05.03-.05.06.02.25.2.09.15.07.07.11.03.16.1.1.12-.08-.02-.14-.05-.2-.12-.23-.18-.46-.37-.08-.07-.2-.13-.23-.17-.03-.02-.16-.29-.27-.18-.07-.1-.11-.29-.19-.36-.07-.07-.09 0-.1-.01l-.12-.12c-.04-.03-.04 0-.1-.05-.13-.11-.08-.15-.1-.16-.1-.19-.1-.06-.14-.1-.03-.02-.4-.47-.5-.54l.12.08c-.03-.08-.13-.1-.09-.15-.09.06-.16-.12-.2-.15l-.04-.02c-.08-.06-.22-.22-.27-.24-.19-.12.19.3.22.34-.07-.07-.45-.38-.32-.2.02.04.1.04.12.06.1.08 0 .04 0 .05l.12.07s-.06 0 .04.09c-.08-.03-.32-.3-.36-.31-.01 0 .01.11-.16-.13v.02c-.13-.1-.26-.17-.37-.24.02-.01.1 0 .01-.04-.05-.03-.03.02-.04.02-.03-.01-.32-.19-.57-.25.22.05.24.02.23.02l-.06.02-.18.1-.4.18c-.04.02.01.03-.02.05-.03.01-.02-.03-.03-.03-.07.02-.63.4-.79.48.1-.05.48-.36.47-.37 0 0-.12.04-.14.06-.05 0-.13.14-.2.17 0 0 0-.05-.12.01-.05.03-.13.13-.26.16-.15.12-1 .65-1.03.73 0 0 .13-.06.06 0-.09.1-.05-.03-.17.05a8.5 8.5 0 0 0-.36.28c-.07.11.23-.09.24-.08 0 .02-.24.2-.25.21-.02 0 .14-.2-.08 0l.1-.04c-.1.1-.15.07-.17.09-.1.05-.14.18-.33.22-.05 0 0-.06-.01-.06-.06 0-.06.11-.17.12 0 0 .12-.15-.14.06l.07-.03a4 4 0 0 1-.33.27c-.1.08-.04-.03-.14.06.1 0-.21.25-.22.2-.01.08-.3.25-.43.36-.08.06-.22.21-.25.23-.04.02-.05-.02-.11.02-.02.01-.16.17-.34.25-.03.02-.13.01-.1-.04.08-.1.28-.2.25-.22-.03-.04-.24.17-.3.22-.3.2-.17.04-.19.03-.04-.01-.19.12-.2.12-.03.01.06-.1.04-.12-.01-.02-.2.06-.16.03.04-.05.2-.13.2-.14.1-.12-.1-.04-.16-.03-.02 0 .02-.05.01-.04-.19.1.03.1-.09.18-.1.07 0-.06 0-.06-.02 0-.13.1-.16.1-.01 0 .23-.31.2-.33-.1.08-.18.17-.27.26-.04-.03.12-.12.13-.14.02-.03-.08.02-.08 0 0 0 .07-.11-.03-.05-.03.02-.07.1-.2.16.34-.34.07-.15.05-.15-.02 0 .13-.19-.08 0-.07-.07-.02-.03.03-.1.07-.07-.13.05.16-.16-.04-.02-.26.16-.27.17-.02 0 .02-.05 0-.04-.26.1-.1.02-.2.03 0 0-.21.14-.07.01.27-.23.42-.28.38-.42-.24.12-.42.39-.49.44-.09.08 0-.02-.03-.01l-.08.06c-.12-.02.36-.3.47-.42l-.13.05.14-.12c-.25.17-.02 0-.01-.1 0-.03-.13.12 0-.07-.12.1-.1.05-.2.17-.01-.03.22-.28.3-.37-.37.27-.1.2-.44.4-.03.08.11-.05.1-.04-.02.06-.15.11-.21.28-.02.03.1-.01-.03.1a.62.62 0 0 1-.12.04c0-.03.08-.09.08-.1l-.1.06c-.02-.02.07-.07.05-.07-.04 0-.4.2.02-.12-.3.31-.02.07.1-.06.04-.03.03-.05.08-.1.05-.06.13-.1.16-.14.03-.03-.2.1.1-.13-.18.08-.4.33-.56.43-.33.18.14-.24.19-.28 0-.02-.06 0-.05-.01.02-.02.3-.23.31-.28.01-.04-.1.09-.13.08-.01-.01.3-.31.11-.17-.13.1-.3.34-.4.32l.54-.47-.35.18c.2-.18.4-.3.57-.49-.53.32.1-.18.1-.2 0 0-.23.1-.27.1.15-.15.64-.57.3-.4a.53.53 0 0 0 .15-.17c-.04-.02-.3.23-.28.17.02-.08.14-.1.21-.17.41-.36.17-.42.61-.74h-.04c.48-.36.95-.71 1.45-1.06a5.36 5.36 0 0 1 1.25-.96c.04-.02-.16.12-.06.07.02 0 .47-.29.42-.3l-.22.16c-.23.07 1.2-.79 1.31-.84l-.12.03.31-.15Zm-2.2 4.9c-.01.06-.14.13-.2.19-.09.08-.16.31-.18.15l.39-.34Zm2.03-1.43c-.1.04-.07-.07.02-.1.01 0 .12.03-.02.1Zm-.98.65.09-.06c.08-.02-.16.15-.09.06Zm3.58-1.4c-.08-.06-.06.03 0 .05v-.06Zm-.05-.05c-.03-.1-.22-.07-.12-.02l.12.02Zm-2.9 1c0-.03.1-.08.15-.1.01.01-.1.07-.14.1Zm2.25-1.32c.01-.03-.23.06-.25.1.05-.04.26-.09.25-.1Zm.12.03-.1-.02c.04.04.12.05.1.02Zm1.29.98s.01-.15.13.07c.01.03-.1-.04-.09-.03l.04.06a1.46 1.46 0 0 1-.17-.16c-.01-.06.08.05.09.06Zm.8.73a.7.7 0 0 1 .15.16s-.05.02 0 .07c.04.04.02-.06.09.03.07.1-.06 0-.05.01 0 .01.15.13.12.15l-.18-.18c-.04-.04-.01.04-.08-.04-.04-.05.03-.06.02-.08 0 0-.18-.15-.08-.12Zm-.7-.61-.02-.02.02.02Zm-5.18 1.2c.05-.03-.07.1-.14.12-.01-.01.13-.12.14-.13Zm5.29-1.16c.1.13 0 .05-.1-.04.03.02.06 0 .1.04Zm-2.7-.67.01.01-.02-.01Zm.32-.17c.1-.09-.13.03-.11.06l.11-.06Zm1.56.11s.18 0-.05-.07c.1.08-.02.01-.02.02-.01.02.16.13.2.17.05-.01-.11-.1-.13-.12Zm3.08 2.9a.79.79 0 0 1-.25-.17c.05 0 .16.1.25.16ZM31.12 7.9h-.24l.34-.04c-.2.03-.22-.01-.02-.05l-.32.03.14.01s.14.04.1.05ZM27.3 9.3c-.07-.02.11-.08.23-.1.03 0 .14 0 .04.05-.02-.06-.2-.02-.27.06ZM10.4 7.35c.06.02.15.14.2.2a.75.75 0 0 1-.2-.2Zm19.56.88c-.04.02-.06.07-.05.07.04 0 .12-.07.05-.07ZM10.1 7c0-.02.15.1.13.15-.03-.03-.14-.14-.13-.15Zm2.35 2.34c-.02-.03.16.08.21.13-.02.01-.19-.1-.2-.13Zm16.74-.77c-.04.02-.16.06-.16.09-.01.02.15-.06.16-.09Zm8.37.1h-.16l-.1-.01a.54.54 0 0 1-.16-.03c-.1-.04.04-.02.16 0l.1.02.16.01Zm-7.13-.64c.14-.01-.02 0 0 .04.1-.03.31-.1.15-.09l-.15.05Zm-.13.03c-.01.02-.1.1 0 .06.03-.01.07-.08 0-.06Zm5.97.33c-.12-.07.47.1.49.1l.02.02c.02 0 .14.02.15.05a.46.46 0 0 1-.15-.04c-.06.01-.49-.12-.51-.13Zm-.97-.23c.16-.03.17.07.16.07-.17 0-.05-.04-.06-.05-.01 0-.13 0-.1-.02Zm.77.17.14.03c.1.06-.25-.03-.14-.03Zm-24.48.14c.07.09-.03.04-.07-.02 0 0 0-.05.07.02Zm18.65-.37c-.02 0-.53.17-.48.21.04-.03.61-.22.48-.21ZM25.8 9.52c.13 0-.01.05-.09.03-.03 0 .05-.03.09-.03ZM9.94 6.8c-.09-.04-.01-.1.02-.02l-.02.02Zm16.9 2.6c-.42.12-.34-.05.2-.13a8.4 8.4 0 0 1-.05.04c.6-.15.05 0-.1.04-.06.02 0 .03-.05.05Zm-1.78.09c-.46-.18.44.03.69-.02-.24.05-.57.03-.13.08-.65 0-.38-.05-.4-.05l-.16-.01Zm1.21-.02c.03 0 .22-.01.28-.03-.08.06-.44.08-.28.03Zm7.98-1.43c.01-.03.04-.05.15-.03l-.15.03ZM4.6 8.62c-.06.05-.2.14-.13.13 0 0 .14-.11.13-.13Zm24.11.08c-.01 0-.44.17-.28.14.05 0 .43-.17.28-.14Zm2-.8a.9.9 0 0 0-.15.06c0 .03.15-.04.15-.06Zm-26.44.94S4.1 9 4.12 9c.05-.02.2-.17.16-.16Zm7.63-.14.02.06c.01.02.35.3.2.22a7.16 7.16 0 0 1-.52-.5c.01-.05.16.15.21.2 0 0 .04-.02.09.02Zm22.9-.62Zm-.2-.03c-.09-.04.12-.01.17 0 0 .02-.16 0-.17 0Zm-4.63 0c-.03.03.1.02.08.04l-.13.05h.12c.03-.02-.01-.03.03-.05.12-.05.24-.07.36-.11.01 0-.08 0 .01-.03.02 0 .11 0 .22-.05.16-.13.32-.13.51-.17l-.3.03h.21l-.2-.04.28-.03-.07.01c-.24.04-.7.2-.97.3-.07.03-.03.04-.06.05-.03.01-.01-.04-.09 0Zm-25.35.53c-.05 0-.14.1-.2.14.04.01.13-.1.2-.14Zm28.11-.74c-.04 0-.17-.02-.18-.01-.01.01.17.03.18 0Zm-18.4 2.2Zm3.08-1.07c.06-.06.13-.12.17-.12-.05.03-.17.14-.17.12Zm2.53-2.05c-.03-.03.14-.1.17-.11 0 .02-.14.12-.17.1Zm14.3.99c.13.02.1-.05.19-.01.01 0 .04.14-.1.07-.03 0 .08-.03-.1-.06Zm-7.13 1.34c.03-.04.16-.07.25-.09-.02.02-.19.07-.25.1ZM3.92 9.1c-.07.01-.29.22-.21.2 0 0 .18-.18.22-.2Zm6.82-1.58c.1.08-.06-.12-.14-.16l.14.16Zm8.64-.22.1-.07c.1-.04-.17.16-.1.07Zm-2.77 2.17c.04-.06.37-.24.45-.27-.04.08-.5.33-.45.27Zm17.07-1.6.28.05a.74.74 0 0 1-.28-.04Zm-13.95-.83h.01-.01Zm11.75.69c-.08-.01-.06.03-.06.03.06.01.16-.02.06-.03ZM4.52 8.6c-.04-.01-.14.1-.2.14.03 0 .15-.1.2-.14Zm20.05.72c-.14-.07.47.03.6.05 0 .04-.58-.03-.6-.05ZM10.52 7.2c.01-.02-.13-.12-.11-.09 0 .02.1.1.1.1Zm14.95 2.21c.05 0 .18.02.14.04-.06.02-.16-.04-.14-.04Zm3.95-1.14c-.02 0-.22.12-.12.1.07 0 .06-.05.08-.05.01 0 .38-.11.04-.05Zm-7.28-.46.24.18a.77.77 0 0 1-.24-.18ZM11 7.7c0-.04-.4-.47-.2-.2.01.01.22.26.2.2Zm23.25.2-.06-.01h.06Zm-1.55-.14c.04-.02-.13-.03-.17-.03-.02.03.17.03.17.03Zm-10.29.2.18.14a.59.59 0 0 1-.18-.14Zm-2.21-1.3c.07-.02.15-.06.14-.08l.01.01.03-.01h-.02c-.01.02 0 .03.03.02-.16.06-.49.22-.14 0l-.05.07Zm-4.1 3c-.08 0-.3.11-.23.1.05 0 .32-.12.23-.1Zm2.19-1.57a.64.64 0 0 0-.13.15c.08-.05.2-.18.13-.15Zm-2.82 1.74c-.05.01-.12.07-.11.07.06 0 .2-.07.11-.07Zm18.52-2.08a.58.58 0 0 0-.28.02l-.06-.03c-.04-.02-1.48-.13-.52 0 .03 0-.01-.03.11-.02l.04.03c.06 0 .36.04.42.03l.01.01c.08.04.32-.03.28-.04Zm-15.45.12c-.03.02-.1.1-.1.12.04-.03.17-.16.1-.12Zm-7.5-.24c-.03-.07-.17-.17-.15-.13.02.03.2.2.15.13Zm6.66.97c.34-.25.08-.07.11-.13l-.1.13Zm18-.53c-.05-.02.02-.06.08-.01.02 0-.04.02-.08.01Zm3.27.33c-.09-.03.3-.1.16-.03l-.16.03Zm-2.46-.2c-.05.03-.08.03-.19 0 .17.02.02-.04.19 0ZM20.33 6.6ZM14.9 9.94c-.07-.02-.29-.02-.23 0 .01.01.2.02.23 0Zm18.8-2.16v.01ZM15.95 9.67c0 .02.26-.08.27-.09.12-.1-.16.05-.27.09Zm-5.81-3c-.01-.01 0 .07.04.08.03 0-.01-.07-.04-.09ZM36.89 8.3c.07.02.16.04.17.07-.05-.02-.18-.05-.17-.07Zm1.92.1c-.11.06-.38.1-.54.1 0-.04.43-.05.54-.1Zm-4.66-.6s-.17-.04-.15 0c.03.03.2.01.15 0Zm-23.82-.91c.06.03-.01-.12-.1-.14-.04 0 .09.13.1.14Zm3.91 2.98c-.16 0 .22.08.28.05-.07 0-.22-.04-.28-.05Zm3.78-1.63c-.3.15-.08.14-.04.1l.04-.1ZM3.23 9.45c-.03.04.13-.04.13-.07 0-.02-.11.05-.13.07Zm17.61-2.67-.02-.01.02.01Zm-7.73 2.54c.19.24.2.14.23.16.04.02.14.1.24.14a4.21 4.21 0 0 1-.33-.12l.35.2c.25.11.56.18.58.17.03-.01-.26-.07-.27-.08-.01 0-.03-.09-.06-.1l-.21-.08a2.9 2.9 0 0 1-.53-.29Zm4.38-.63c.05-.03.08-.02.1-.04 0 0-.02-.03 0-.05l-.1.09Zm-4.84.44c-.04-.07.23.14.24.15.04.05-.2-.09-.24-.15Zm3.16.57c-.01 0-.3.08-.3.1.1 0 .46-.13.3-.1Zm1.8-1.12c.07-.05.2-.13.17-.15l-.16.15ZM10.57 7c-.05-.14-.06-.04 0 .06.05 0 0-.04 0-.06Zm-.26-.33c-.02-.04-.3-.27-.27-.2 0 .02.17.13.18.14 0 .01-.07 0 .02.07 0-.02.07 0 .07-.01Zm.21.22c-.06-.13-.14-.08-.07-.01.02.02.08.03.07.01Zm.37.4a34.21 34.21 0 0 1 .05.08c.02 0-.03-.04-.05-.08Zm28.91.46c-.13.06.14-.13.15-.13.05-.01-.09.11-.15.13ZM2.05 9.36c-.03.01-.07 0-.1.06l.2-.07c0-.08-.07 0-.1.01Zm-.33 0s-.1-.03.04-.07c.09-.02-.23.3-.32.33.06-.08.22-.19.28-.25Zm-.86.23L1 9.46c.1-.05-.1.14-.14.13Zm.44-.34c-.08.04.06-.09.1-.11.02 0-.1.1-.1.1Zm36.98-2.28c-.07-.05-.13.08-.02.05l.02-.05ZM.94 9.42c.07-.04-.06.08-.1.1-.02 0 .08-.1.1-.1Zm37.28-2.58c-.09-.04-.05.1-.04.1.05.03.2-.04.23-.07-.23.06-.14-.02-.19-.03Zm-.44.07c-.1 0 .14.06.19.02-.04 0-.16-.03-.19-.02Zm-.56-.18a.8.8 0 0 0-.26-.05c.07 0 .23.07.26.05Zm-.11-.1c-.09-.05-.13.04-.02.04l.02-.03Zm-.5-.14c-.06-.05-.15.02-.05.04.03 0 .05-.04.04-.04Zm1.5.2c-.06-.02-.15.04 0 .05l-.16.02c.19.05.17-.04.22-.04.07 0 .07.07.06.1.06-.05.29-.08.4-.14-.1.03-.3.03-.41.02l-.1.02c-.05 0 0-.03 0-.03h-.01Zm-2.19-.35c-.17-.07-.07.04.03.04l-.03-.04ZM.6 9.37c.2-.13.1.02.43-.35-.13.17.02.03 0 .07-.02.04-.12.1-.04.09-.1.03-.4.3-.42.3 0 0-.04-.07.03-.11ZM37.27 6.5c-.03-.11-.09.04-.18-.07-.18.09.41.1.45.22-.6-.16.37.2-.01-.05.32.13.11 0 .17 0h.06l-.07-.01c.07 0 .16.02.16-.01l-.15-.02.07.02-.17-.04c.1.11-.14.03-.21-.06l-.12.02Zm.57.2h-.16.06-.07l.06.03-.06-.01c.1.01.27.02.17-.01Zm.83-.1c-.06.03-.15.04-.18.08.06-.02.16-.03.18-.08ZM34.1 6c-.13.02.26.07.15.02L34.1 6Zm2.9.45c-.13-.06-.1.05 0 .05v-.05ZM.72 9.23c-.01-.02.26-.23.3-.27 0 .04-.3.3-.3.27Zm38-2.74c-.13-.03-.25.1-.27.1-.02 0 0-.04 0-.04l-.21.04s.03.05 0 .07c.08-.02.42-.1.43-.12.01 0-.1-.02.06-.05Zm-.32.1c.05.02-.08.04-.12.04-.07-.01.12-.04.12-.04Zm-.34 0c-.01 0-.17-.01-.2.01.09.05.24.01.2 0Zm-2.26-.45c-.06 0-.21-.05-.23-.03.06 0 .22.05.23.03ZM1.5 8.34c-.08.04.08-.1.14-.14a.7.7 0 0 1-.14.13Zm35.53-2.1a9.86 9.86 0 0 0-.84-.16l.82.2.02-.03Zm1.18.2c.03-.04.06 0 .06 0 .05 0 .14-.02.12.01-.07 0-.26.06-.18-.01Zm-2.41-.45c-.25-.03.21.08.16.04l-.16-.04Zm1.31.26c.05 0 .5.12.7.17l-.08-.01h.1a.15.15 0 0 1-.1.02l.08.02-.18-.06c-.03 0-.03.02-.03.02-.06-.02-.01-.03-.05-.04-.01 0-.52-.1-.44-.12Zm1.12.17c.02-.02.24-.07.25-.07.08.02-.23.08-.25.07Zm-1.17-.22c.09-.04.42.08.18.05-.03 0-.11-.05-.18-.05Zm-1.22-.26a1.2 1.2 0 0 0-.28-.04c.04 0 .4.08.28.04Zm.14-.04s.04.04-.07.02c-.01 0-.02-.05-.18-.06a.17.17 0 0 0-.08.02c.15.09.64.06.33.02Zm2.25.48c-.02-.01.01-.06.04-.04.01 0 0 .04-.04.04Zm-3.2-.59c.15 0-.3-.07-.33-.07.01.02.32.07.33.07ZM1.52 8.01c.1-.07.05 0 .06 0 .22-.14.13-.14.16-.17.05-.07.09 0 .18-.12-.16.19 0 .03.02.05.09.06-.27.16-.35.26-.01 0 .1-.05.07-.01-.08.11-.52.27-.14-.01Zm36.76-1.68c.03-.03.23-.05.19-.01 0 0-.22.06-.19.01ZM19.55 4.51c.12-.07-.2.02-.24.06-.02.02.19-.03.24-.06Zm-1.76.96c-.1.09-.14.25-.02.14 0-.01.04-.14.02-.14Zm7.7 1.61c-.08-.04-.08.03-.03.03.02 0 .02-.02.02-.03Zm-3.54-2.25c-.01-.01-.17-.1-.18-.08.06.04.26.14.18.08Zm3.56 2.25c-.05 0 .02.06.08.01l-.08-.01Zm11.3-1.1c-.06.02-.24-.03-.35-.05 0-.04.28.04.36.05Zm-18.54-.83c-.09.1.15-.04.11-.06l-.1.06Zm10.5.88c-.07.05.2-.03.1-.03l-.1.03Zm1.16-.43c-.07.01-.35.11-.23.1a.8.8 0 0 0 .23-.1ZM1.73 7.81c-.05 0 .1-.13.13-.14.01 0-.07.15-.13.14ZM25.06 7c-.03-.01-.1-.06-.13-.05.04.02.13.09.13.05ZM18.8 4.8c-.13.03-.3.14-.22.16.19-.12-.06-.03.22-.16Zm6.97 2.22c-.03 0-.05.05-.05.05.04.02.09-.04.05-.05Zm-2.58-1.38c.01-.02-.13-.12-.12-.1 0 .02.11.11.12.1Zm11.36-.07c-.08-.03.17-.02.24.01.03.04-.23 0-.24 0Zm-7.7 1.2c0-.03-.2.06-.11.06.02 0 .12-.04.12-.06Zm2.25-.96c-.17.1.59-.15.37-.12l-.37.12Zm1.27-.4c-.03 0-.05-.12.1-.11.03 0-.05.05-.04.05l.18-.03a2.1 2.1 0 0 1 .48-.03v-.04l.28.03c.18 0 .2-.02.2-.02l.2.03c.4.01 1.05.02 1.37.1-.29-.04-.57-.03-.86-.03.09-.06-.43.03-.13-.03l-1.21-.02c-.07 0-.26.01-.32.03l-.25.06Zm-12.98.35c.03-.08-.27.18-.26.24l.25-.24Zm1.6-1.26c.05-.03.05-.12.31-.2.08-.01 0 .04.02.04 0 0 .24-.06.06.02-.28.13-.05-.04-.2.03-.02 0-.26.18-.24.18l.09-.06c.05 0 .04.03.05.02.02 0 .3-.17.45-.21l.13-.03-.12.05c-.2.07-.61.3-.63.31-.02.01-.04-.05-.06-.05l-.28.19h-.02c.04 0-.17.14-.17.11l.15-.1c-.05 0 .48-.31.35-.28.16-.1 0 .06.12-.02Zm1.16-.41c-.04 0-.07.02-.1.03.6-.1 1.13.11 1.5.27.1.04 0-.04.12.02.1.06.17.14.12.13-.01 0-.19-.12-.3-.17-.32-.12-.26-.05-.28-.05-.02-.01-.25-.1-.4-.13-.38-.05-.6-.08-1.23.08.35-.13.15-.14.57-.18Zm7.61 2.22c0-.03.15-.07.2-.1 0 .03-.15.07-.2.1ZM7.95 3.46c-.08.05.54-.08.37-.07l-.37.07Zm2.62.54c.06.02-.15-.14-.17-.1l.17.1Zm13.2 1.87.1.1c.05.08-.28-.2-.1-.1Zm-11.4-.4c-.14-.11.22.29.14.15l-.14-.15Zm.5.53a.8.8 0 0 0-.15-.16c-.01 0 .12.17.15.16Zm12.9.89c-.01-.04.14-.03.2-.04.01.04-.15.03-.2.04Zm-.7-.14c.2.07.28.09.26.1-.01 0-.14 0-.3-.1.02-.02.01-.01.04 0Zm.57.12c-.02.02-.08.02-.12.01 0-.02.1 0 .12-.01ZM7.36 3.6c.05-.07.44-.16.38-.12-.02 0-.4.15-.38.12Zm16.5 2.28c0-.04.23.15.24.17.05.08-.22-.16-.24-.17Zm2.93.71c.03-.04.16-.07.24-.1-.03.04-.17.08-.24.1Zm-.54.14.1-.02c.1 0-.19.07-.1.02ZM1.19 7.88l.1-.07c.08-.03-.16.16-.1.07Z"/>
  <path fill="#000" d="m29.95 3.22.1.05c-.05.02-.15-.07-.1-.05Zm3.82-1.21h-.08l.18.1s-.03.02 0 .03c.01.02.03-.02.06 0 .03 0 .16.11.22.14.2.1.39.2.58.32-.22-.09-.03.05.03.07.01 0 .05-.06.24.07.12.08-.05.1.18.18-.12-.15.04-.06.16.01l.28.17c.02.01.08 0 .12.02l.07.07.5.29c-.15.03.05.08.06.09.03.04-.16-.05-.1 0l.31.17c-.08-.06.15 0 .17.04.03-.08.42.34.5.36.02 0-.05-.1.17.06.02.02 0 .03.01.04 0 0 .1-.04.13.03 0 .03-.14 0 .13.14-.06-.14.38.18.45.25l-.03-.06c.06.08.1.07.11.08.08.05.16.14.24.19.09.05.11 0 .2.09l-.05-.08.2.14c-.2-.04.03.03.04.04.02 0-.02.01.01.03 0 0 .02-.02.07.01.12.07.08.09.12.12 0 0 0-.03.1.02.26.17-.02.02-.03.01-.02 0 .01.14-.18-.04.06.06.04.1.05.1 0 .02.14.1.14.1.07.03.04-.03.05-.03.02 0 .15.15.24.11.03.13-.09.03-.22-.05-.03 0 .1.11.1.12.19.14.13 0 .2 0 .03 0 .08.1.05-.01.18.14.05.08.06.1l.09.06c0 .01-.05 0 0 .04 0 .01.1.05.01-.05.14.12.15.1.16.2.2.02.03.12.07.18.06.08.1.1.13.1l.04-.02c.03.02.12.14.2.28.08.15.15.34.18.4-.08-.03-.2-.45-.25-.5-.18-.2.16.37-.02.23.07.07.13.15.18.23 0 .19-.07-.07.05.43.07.08-.08-.36-.03-.28.05.05.1.35.11.36.02 0-.04-.27-.02-.23.12.07.02 1.18.03.35 0 .23-.1.33-.12.52 0 .06.07-.07.1-.1s.08.12-.12.55c-.04 0 .13-.36.12-.39l-.13.05c0 .02-.08.27-.2.47-.11.22-.24.37-.31.4.08.02-.32.35-.35.38 0 .01.06 0 .05.02-.06.08-.28.16-.37.22-.09.06-.06.07-.06.08-.05.02-.02-.02-.05 0l-.3.18s.05.01 0 .05c0 0-.02-.03-.17.07-.18.12.16-.03.1.05-.16.02-.12.07-.16.08-.01 0-.12 0-.21.05a10 10 0 0 0 .19-.12c-.07.03-.2.1-.25.11-.03.01-.03-.04-.08 0-.01 0-.02.11.11 0 .03.03-.05.04-.08.07 0 0 0 .06-.06.05-.01 0 .02-.22-.2.03l.03.02-.09.04s.04 0 .03.02c-.04.04-.14-.02-.04-.06l-.11.01c.06.06-.05.05-.1.07-.28.13-.06.1-.1.14-.07.07-.06-.07-.16.01-.01 0 .15 0-.14.09l.12-.06c-.05-.06-.15.06-.16.07-.1.05-.04 0-.19.1-.01 0-.05 0-.08.02-.12.08.18-.04.2-.02l-.33.13c-.06-.01.14-.07.1-.1-.03 0-.47.2-.57.21-.1.02-.19-.05-.15.05-.07-.09-.07-.01-.08 0-.17.04-.17.04-.3.1-.03 0-.06-.01-.07 0 0 0 .01.03-.01.05-.04.03-.3.08-.33.07-.02-.01.1-.04.07-.07l-.26.1c-.04 0-.03-.02-.05-.01 0 0-.13.06-.12.07.02.01.42-.14.32-.07-.01.02-.1 0-.07.05-.36.1-.72.22-1.05.33.17-.12.4-.16.62-.24.02 0 .13-.03.1-.06-.18.06-.4.15-.56.19-.01 0 0-.03-.02-.03-.04 0-.14.1-.17.1 0-.01.05-.07.02-.08-.07-.04-.04.09-.08.1l-.22.05-.09.04c-.05.01-.1.03-.11.05-.03.04.06 0 .13 0l.09-.04h.05a.58.58 0 0 1-.04.03l-.1.03c-.14.07-.3.1-.45.15 0 0 .03.02 0 .03-.07.03-.1 0-.13 0l-.17.05v-.05c.05-.03.09 0 .1 0l.04-.03h.08c.03 0 0-.03.02-.04 0 0 .12.04.1-.04 0-.02-.76.2-.83.24.07 0 .13-.02.2-.03-.14.02-.27.13-.32.04l-1.46.47c-.09.02-.06-.05-.2.01l.13.02a2.2 2.2 0 0 0-.45.12s0 .06-.06.09c-.07.03-.1-.01-.13 0l-.07.02-.04-.02c-.05 0 .01.06-.07 0l.04-.02c-.07.01-.17.01-.08-.04.01-.01 0 .02.02.01.46-.17.07-.08-.07.02-.06-.02-.28.09-.3.09 0 0 .02-.05-.04-.05-.01 0-.32.14-.23.05.02-.02.18-.07.21-.08-.11-.04-.27.14-.3.15-.1.03.16-.13-.05-.06-.17.06 0 .05-.05.1-.03.02-.23.04-.2.11-.06.03-.04-.02-.05-.02 0 0-.12.08-.16.08l-.01-.04a.78.78 0 0 0-.13.06s.04.02.03.03c-.01.02-.13.06-.13.07 0 .02.13-.05.12 0a.43.43 0 0 0-.2.13l.1-.05c.01.06-.12.11-.1.05-.01.04.01.04 0 .07 0 0-.04.02-.04.04 0 0 .05 0 .04.01 0 .03-.13.08-.14.08-.04 0 .06-.06.06-.09h-.11c-.03-.05.08-.06.06-.09h-.08c.07-.07.25-.12.28-.18-.13.07-.28.13-.32.04-.02-.04.03-.09.03-.1-.03-.03-.1.05-.1.05-.01-.03.1-.1.1-.1 0-.03-.08-.07-.09-.09 0 0 .08-.06.04-.07-.04-.01-.11.02-.12.02-.02-.01.1-.08.1-.1h-.08l.04-.1c.01-.02-.04-.01-.03-.02l.13-.07-.03-.02c0-.01.04-.02.03-.03 0 0-.2-.02-.2-.04-.02-.04.19-.03-.03-.1l-.04.02c-.03-.02.07-.1-.07-.04.25-.16 0-.07.02-.15 0-.03.1-.09.1-.09-.02-.03-.04.01-.06 0-.01 0 .07-.08.04-.09l-.12.04c-.05 0-.01-.04-.03-.05l-.07.02.07-.1c.01-.02-.04-.01-.04-.02.05-.05.2-.03.04-.08l-.05.02c-.04-.02.03-.06.04-.08 0-.05-.1.02-.02-.05a.4.4 0 0 0-.2.07c.22-.12.26-.26.01-.15.08-.03.05-.08.07-.1.02 0 .15 0 .05-.1-.02 0-.08.04-.07 0 .17-.07 0-.02 0-.03-.04-.07.4-.2.47-.23.08-.05.13-.14.15-.14.06-.03.02.02.04.03.02 0 .16-.13.17-.13.04 0 .02.05.03.05.05 0 .27-.12.34-.14-.01-.02-.15.03-.08-.04.08-.08.13.02.13.02.36-.14.74-.28 1.1-.4l.24-.08c-.02-.04-.17.02-.25.06l-.05.02c-.02 0 0-.02.04-.04.12-.06.4-.15.44-.15l-.14.01c.05-.09.25-.06.35-.13.03-.02-.04-.02-.04-.02.03-.04.1-.04.06 0 .09-.06.09-.02.16-.04 0 0-.04-.02.02-.05.03-.01.17-.06.18-.09.01-.01-.1-.08-.08 0-.17.02-.04.06-.1.08 0 0 0-.05-.15.02 0-.1.2-.1.23-.11.05-.04-.22 0-.25.08 0-.07-.02 0-.08.02h-.08c-.1.03-.04.06-.13.05.12.1-.13.06-.2.04l.29-.12-.02-.01a24 24 0 0 1 .08-.02l-.01.02c.12-.09.17-.05.18-.05l.45-.15c.02 0 0-.04.16-.06.06 0 .02.04.08.02.04-.12.06-.05.08-.05.06-.02.1-.06.1-.06l.26-.1s-.05 0 0-.02c.03 0 .24.06.37-.02l-.12.01c.05 0 .35-.14.26-.14-.05 0-.14.1-.18.04.11-.02.68-.24.73-.24.01 0-.02.04 0 .04l.03-.02-.09.04a.68.68 0 0 1 .13-.05c.02 0-.04.04-.03.05 0 0 .19-.06.19-.1-.04.04-.17.08-.12.02h.07c.08-.08-.2.04-.24.06l.09-.04-.1.04c.17-.12.46-.18.65-.27.09 0-.1.08 0 .07.2-.03.03-.06.04-.06.03-.04.24.04.2-.07.07 0 .06.02.15-.03h-.05c.08-.1.36-.03.34-.01-.03.04-.16.03-.17.04-.01 0-.02.12-.2.09-.05.09.26-.04.13.05.1-.04.51-.13.55-.18.01 0-.05-.06.06-.06.06 0-.06.04-.03.05.09.03.94-.3 1.1-.37l.02.02c.03-.01.14-.09.2-.1-.13 0 .09-.08.15-.1.09-.02.1.01.13 0 .16-.02.34-.2.48-.15-.04-.08.2-.04.29-.08.06-.03.13-.12.03-.12.11-.04.22-.11.32-.17.01 0 0 .03.03.01l.01-.04c.18-.12.12-.02.16-.03a6.1 6.1 0 0 1-.22.15c.06.04.25-.14.32-.16v.03h.01c.03-.01.16-.1.1-.12l-.14.08c.01-.02-.02-.04-.02-.04.04-.04.16-.08.2-.1v-.02c.03-.02.05.04.05-.03.1.03-.1.08-.06.11.04.03.35-.23.28-.26h.02c.03 0 .06-.04.05-.05l-.05-.04s.04.02 0 .05a.3.3 0 0 0-.01-.05c-.03.07-.05.08-.05.03l-.01-.07c-.01 0-.03.01-.05.07-.01.06 0 .13.03.1 0 0 0-.13.03-.06v.1c.02.01.08-.13.12-.1-.05.02-.04.07-.05.11 0 .02-.03.03-.03.03 0 .04.03.01.03.02 0 0-.06.08.03.04-.04.07-.04.11-.07-.05a.14.14 0 0 0 0 .12l-.03.02-.13-.15c.04.02.05-.01.02-.03-.03-.03-.03.03-.04.03l-.2-.16c.15.08.14.04.03-.05l.06.01c-.07-.03-.18-.17-.23-.19v.04l-.16-.12s.03.06 0 .06c0 0-.03-.07-.08-.1-.02 0-.03.03-.03.03-.05-.02 0-.04-.08-.08-.05-.03-.11-.02-.18-.08.21.2.02.05-.09 0-.02 0-.03.05-.11-.04.25.06-.04-.07-.1-.1 0-.01.02-.04 0-.06 0 0-.01.02-.04.01-.25-.14-.08-.06-.12-.1 0-.03-.14-.07-.17-.1l-.02-.03c-.05-.03-.11-.03-.14-.05 0 0 .01-.04-.06-.06-.02-.01-.04-.01-.02.01.06.08.25.13.32.21.07.08-.2-.08-.21-.09 0 0 .05.01 0-.02-.04-.03-.15-.03-.22-.08l-.02-.08s.1.04.09.02l-.06-.05c0-.02.05-.15.04-.16-.03-.02-.02.01-.04 0-.04-.03-.16-.15-.19-.1.03 0 .05.02.07.04-.13-.07-.09-.02-.11-.03-.03 0 0-.03-.04-.06l-.2-.1c.11.05.05.07.05.07.02.01.06 0 .08.02.16.1-.03.04 0 .07l.06.01c.02.02 0 .05.02.05.03.01.02-.05.02-.05.04 0 .13.09.04.09.03.04.06-.01.08.03.03.07-.05.01-.08 0-.1-.03-.11-.06-.24-.13l-.13-.04c-.02 0-.09-.17-.17-.03-.04-.04-.06-.18-.12-.2-.04-.02-.06.03-.06.03l-.09-.04c-.02 0-.02.02-.06.01-.1-.03-.06-.08-.07-.09-.08-.1-.08 0-.1 0-.03-.01-.3-.2-.37-.22l.09.01c-.03-.06-.1-.03-.07-.09-.06.08-.12-.03-.15-.04h-.03l-.2-.12c-.15-.04.14.2.16.22-.05-.03-.35-.17-.24-.05h.09c.08.03 0 .04 0 .04.01.01.08 0 .1.02 0 0-.05.02.02.06-.05.01-.24-.13-.28-.14 0 0 .01.1-.12-.07v.02l-.31-.16c.02 0 .09 0 .02-.04-.04-.02-.03.03-.04.03-.04 0-.67-.39-.8-.45a.71.71 0 0 0-.18-.07c-.06-.03-.24-.16-.28-.17-.03-.01-.02.03-.04.01-.02 0 .02-.02.01-.03-.04-.03-.43-.21-.5-.28.04.03.34.13.35.11 0 0-.06-.06-.08-.06 0-.03-.12 0-.15-.04 0 0 .03-.03-.04-.08-.02-.02-.1-.03-.15-.1-.11-.04-.59-.37-.65-.35 0 0 .06.05 0 .04-.08-.01.03-.05-.05-.1l-.23-.12c-.09.01.09.13.08.13a.68.68 0 0 1-.17-.07s.15 0-.01-.06l.04.05c-.08-.02-.07-.07-.08-.08-.05-.04-.14-.01-.18-.13-.02-.03.03-.03.03-.04-.01-.04-.08.01-.1-.06 0 0 .12.01-.05-.08l.03.03a.88.88 0 0 1-.22-.1c-.07-.04.01-.05-.06-.08.02.07-.19-.03-.15-.07-.06.04-.2-.1-.28-.14l-.19-.08c-.01-.01.01-.05-.02-.07 0-.01-.13-.04-.2-.13-.01-.02-.01-.1.03-.1.07 0 .15.11.17.08.02-.04-.14-.1-.18-.13-.16-.12-.04-.1-.03-.12 0-.04-.1-.1-.1-.1-.01-.02.07 0 .08-.02.02-.03-.05-.12-.03-.12.04 0 .11.1.12.1.08 0 .01-.1 0-.15 0-.01.04 0 .03-.01-.08-.1-.06.07-.13.02-.06-.04.04-.04.04-.04l-.08-.07s.23.03.25 0l-.2-.09c.02-.04.09.04.1.04.02 0-.02-.05 0-.06 0-.01.08 0 .03-.05-.02-.02-.07 0-.12-.07.25.09.1-.03.1-.05 0-.01.14.01 0-.06.04-.08.02-.02.06-.01.06 0-.03-.08.13.03 0-.04-.13-.12-.14-.12 0 0 .04-.01.03-.02-.09-.15-.02-.07-.03-.14 0 0-.11-.09-.02-.04.18.08.22.17.32.07-.1-.12-.3-.13-.34-.15-.06-.03.02-.02.02-.03l-.06-.03c.01-.11.23.12.32.15l-.04-.07.09.05c-.13-.11 0-.02.08-.07.01-.01-.1-.04.04-.02-.08-.06-.04-.06-.13-.08.02-.02.2.03.27.05-.2-.15-.14.02-.3-.14-.06.01.04.06.03.06-.04 0-.08-.06-.2-.03-.02 0 .01.07-.07.03L29.3.9c.02-.02.07.01.08 0l-.05-.03c.01-.03.05.01.05 0 0-.03-.17-.21.08-.05-.23-.08-.04.02.05.06.02 0 .04-.01.07 0 .04.01.09.05.1.06.03 0-.07-.1.1 0-.06-.1-.25-.13-.32-.21-.15-.17.17-.01.2 0V.7c.01 0 .18.12.21.1.03 0-.06-.03-.06-.06 0-.01.23.08.12 0-.07-.05-.25-.07-.24-.14l.36.17-.15-.18c.13.07.23.16.37.2-.25-.25.14-.01.14-.02L30.32.6c.11.04.43.2.3.02.02.04.12.04.12.03.01-.04-.18-.11-.13-.13.05-.02.07.06.12.08.28.13.3-.09.55.09V.67l.85.51c.13 0 .46.14.6.23l.16.14c.02.02-.1-.04-.05 0 0 .02.24.17.24.13-.02-.02-.12-.05-.13-.07-.07-.1.67.36.72.36l-.04-.06.14.1ZM30.2 3.24c-.05.02-.1-.05-.16-.06-.06-.02-.23.04-.12-.06l.28.12Zm1.22.75c-.05-.05.04-.1.07-.04 0 0 0 .1-.07.04Zm-.58-.37.05.03c.03.05-.12-.04-.05-.03Zm2.92 1.6c-.07-.03-.05.06 0 .06v-.05Zm-.05-.02c-.01-.08-.18-.03-.09 0h.1Zm-2.48-1.35c.02-.02.07.02.1.04-.01.02-.07-.03-.1-.04Zm1.5.84c.02-.02-.19-.13-.21-.12.03.01.2.13.22.12Zm.54.27s-.07-.04-.08-.02c.03.04.1.05.08.02Zm1.04.6s0-.12.1.01c.01.02-.07 0-.06.01 0 .02.02.03.03.03a.5.5 0 0 1-.13-.06c-.01-.05.06.01.06.01Zm.59.25a.2.2 0 0 1 .1.06s-.03.03 0 .05c.03.01.01-.05.06-.01.05.04-.04.02-.03.03 0 0 .1.04.08.06L35 5.94c-.03-.01-.01.04-.05 0-.03-.02.01-.06.01-.07 0 0-.12-.03-.05-.06Zm-.5-.2h-.02.01Zm-4.03-2.3c.02.03-.07 0-.1-.03.01-.02.1.03.1.03Zm4.1 2.3c.08.06 0 .04-.08 0 .03.01.05-.02.08 0ZM32 4.22v.03-.03Zm.2.14c.08 0-.06-.07-.07-.05l.07.05Zm1.65.92c0-.01.14-.04-.04-.06.07.06-.01.02-.02.03 0 .02.13.07.15.1.05-.03-.08-.05-.1-.07Zm2.01 1.12c-.03.02-.08-.02-.11-.05.03 0 .08.03.11.05Zm-3.79 3.2c.27-.12.34-.03.07.02 0 0-.09 0-.07-.02Zm2.38-.81c.05.03-.04.07-.1.07-.02 0-.08-.03-.03-.05.02.05.11.04.13-.02Zm.08-3.17c.05-.01.11.05.15.08-.04 0-.11-.05-.15-.08Zm-1.52 3.73c.03-.01.03-.06.03-.06-.03 0-.07.04-.03.06Zm1.28-3.88c0-.02.11.03.1.07l-.1-.07Zm1.5.9c0-.03.08 0 .1.03-.01.02-.1-.03-.1-.04Zm-2.37 2.8c.03 0 .1-.03.1-.05 0-.02-.1.02-.1.05Zm-4.92 1.77s.08-.1.13-.1c.1-.01-.12.1-.13.1Zm4.23-1.48c-.1-.01.01 0 0-.04-.06.01-.2.06-.1.07l.1-.03Zm.08-.01c0-.02.06-.08 0-.06-.02.01-.04.07 0 .06Zm-3.67 1.21c.1 0-.27.13-.28.13h-.02s-.07.04-.09.01l.08-.03h.01c.02-.03.28-.1.3-.1Zm.62-.19c-.07.09-.12 0-.11 0 .08-.07.04.02.05.02 0 0 .06-.05.06-.02Zm-.49.16-.08.03c-.08 0 .14-.08.08-.03ZM35.34 6c.04.04-.03.04-.05.01 0 0 .01-.04.05 0Zm-2.49 3.42c.01 0 .2-.04.27-.08l-.09.03c.03-.01.04-.03.03-.04l-.04.02.1-.03c-.1.03-.34.1-.27.1Zm2.25-.79c-.05.02 0-.04.03-.04.01 0-.01.04-.03.04Zm-.93-3.28c-.06 0 0-.07.02-.02l-.02.02Zm.5 3.4c.18-.09.18.07-.08.1l.02-.02c-.28.07-.02 0 .04-.04.03 0 0-.02.02-.04Zm.71-.21c.21.04-.14.1-.23.14.07-.08.2-.11.02-.1.23-.1.15-.02.16-.01l.05-.03Zm-.46.16s-.1.01-.12.03c.03-.05.18-.07.12-.03Zm-4.56 1.54c0 .03 0 .06-.07.07l.07-.07Zm-.14-7.15c-.04-.03-.11-.08-.1-.04 0 0 .09.05.1.04Zm3.48 6.04c.02 0 .26-.08.16-.08-.03 0-.24.08-.16.08Zm-1.16.42a.4.4 0 0 0 .1-.05c0-.02-.1.03-.1.05Zm-2.5-6.6c-.01 0-.13-.07-.12-.05 0 .04.13.07.11.05Zm5.5 3.1v.04c.02 0 .2.1.11.09l-.3-.19c.02-.04.1.06.13.07 0 0 .03-.03.06-.02Zm-5.49 4.33Zm.12-.03c.04 0 0 .02-.04.03a.27.27 0 0 1-.05.02c0-.01.02-.03.05-.04l.04-.01Zm2.84-.85c.03-.01-.06-.03-.05-.04.01 0 .07-.01.08-.03l-.07-.02c-.03.01 0 .03-.02.04l-.23.06s.05 0 0 .02c-.01 0-.08 0-.14.02-.12.14-.26.09-.44.19l.17-.02c.16-.04.45-.14.62-.2.04 0 .01-.02.03-.03.01 0 0 .04.05.01Zm-2.76-6.42c0-.04-.08-.06-.12-.08 0 .03.08.05.12.08Zm.97 6.95.1-.04c0-.02-.1 0-.1.04Zm5.3-3.38.05.03c.02.05-.11-.04-.05-.03Zm1.09.72c.03.02.07.03.06.06-.01-.02-.08-.05-.06-.06Zm.46-.06c.03.02.01 0 0 0 0 0-.03-.01 0 0Zm-7.66 3.05c-.08.02-.04.08-.1.07 0 0-.07-.12.03-.1.01 0-.03.05.07.03Zm4.14-1.5c0 .04-.07.05-.11.07 0-.03.09-.05.12-.06ZM29.84 2.8c-.02-.06-.18-.12-.16-.07l.16.07Zm4.93 2.8c.07.02-.05-.07-.1-.06.02 0 .1.07.1.07Zm3.27 1.95v-.06c-.03-.05-.02.11 0 .06Zm-.75-.47c.04 0 .16.1.18.15-.05 0-.22-.14-.18-.15Zm-6.57 3.15a.74.74 0 0 1-.16.04c0-.03.15-.05.16-.04Zm7.35-2.86Zm-6.13 2.47c.04 0 .02-.04.02-.04-.04 0-.08.05-.02.04Zm-1.71-6.85c0-.03-.08-.05-.12-.08 0 .03.08.07.12.08Zm5.36 5.54c.07.02-.14.14-.2.13 0-.02.2-.13.2-.13Zm-.98-3.08c0-.02-.1-.05-.09-.03.01.02.08.05.09.03Zm.66 3.24c-.02.01-.07 0-.06-.02.01-.03.07.01.06.02Zm-1.98.72c.02 0 .14-.08.08-.08-.05 0-.04.03-.05.04 0 0-.25.05-.03.04Zm3.52-1.33c-.04.03-.1.04-.14.06.01-.02.12-.07.14-.06Zm-1.86-2.44c0-.01-.3-.19-.15-.06.01 0 .17.11.15.06Zm-4.54 4.71h.04-.04Zm.87-.28c-.02.02.07 0 .1-.02 0-.03-.1.01-.1.02Zm5.4-1.9c-.02.02-.08.03-.1.04-.01-.02.08-.05.1-.04Zm1.45-.8c-.02.01-.04.04-.03.05l-.04.03c-.05.02.02-.05.05-.08.03-.02.06-.03.03.05l-.01-.04Zm-1-.46c-.02-.04-.12-.06-.1-.04 0 .01.1.08.1.04Zm.97.67s-.07-.03-.08-.02c.02.03.08.06.08.02Zm-1.18-.83c-.01-.02-.06 0-.06 0 .01.03.08.04.06 0Zm-6.31 3.66c.03 0 .12-.06.13-.1l.04.01c.03 0 .83-.25.28-.12-.02 0 .01.02-.06.04l-.02-.02-.24.08c-.06-.02-.16.1-.13.11Zm7.56-2.77s-.02-.02-.04 0c0 .01.03.02.04 0Zm-3.2-2.07c-.02-.03-.12-.06-.1-.03.01.02.14.07.1.03Zm2.86 1.81c.14.13.04.03.08.02-.02 0-.05 0-.08-.02Zm-8.25 3.3c.04 0 .01.06-.04.05-.01 0 .02-.04.04-.04Zm-1.54.65c.05.03-.1.07-.06.01h.06Zm1.07-.43c.01-.04.03-.05.1-.06-.1.04 0 .03-.1.06Zm9-3.47Zm-1.36-.79c-.01-.03-.08-.07-.07-.04 0 0 .05.06.07.04Zm-6 3.67c-.01 0-.01 0 0 0Zm6.35-3.47c-.01.02.08.09.09.09.07 0-.04-.06-.09-.09Zm-2.78-1.68s0 .06.03.05c.02 0 0-.05-.03-.05ZM28.89 11c-.03.02-.08.04-.1.02l.1-.02Zm-.78.34c.03-.05.12-.09.19-.1.01.03-.16.07-.2.1Zm2.4-.91s.1-.02.07-.04c-.03-.03-.1.03-.08.04Zm3.95-5.16c.04 0-.01-.09-.07-.07-.03 0 .06.07.07.07Zm2.1 1.22c-.05-.02.05.08.08.06l-.07-.06Zm1.5.96c-.07-.14-.1.02-.07.02l.06-.02Zm-8.53-5c-.03 0 .03.07.06.06.01-.02-.04-.06-.06-.06Zm8.11 5.33ZM36.2 6.14c.05.16.09.08.1.08.01.02.04.07.08.09l-.14-.05.3.23c.03-.02-.06-.07-.07-.07l.02-.08c-.02-.02-.25-.16-.29-.2Zm1.6 1.13c.02.03 0 .05.02.05 0 0 .02-.02.04-.01a3.63 3.63 0 0 0-.06-.04Zm-1.83-1.16c-.02-.04.11.05.11.05.01.03-.1-.01-.11-.05Zm1.1.68s-.09-.07-.1-.06c.02.03.15.12.1.06Zm.8.53c.03.02.07.08.09.04a24.7 24.7 0 0 0-.09-.04Zm-3.23-2.05c-.04-.1-.05 0 0 .05.04-.02 0-.04 0-.05Zm-.2-.17c0-.02-.2-.12-.2-.07l.14.06s-.05.02.02.04l.05-.03Zm.16.1c-.04-.08-.1-.01-.05.02.02.01.06 0 .05-.02Zm.27.17a63.6 63.6 0 0 1 .04.04c.01-.01-.02-.02-.04-.04Zm-7.1 6.37c.07 0-.06.07-.06.06-.03 0 .04-.06.07-.06ZM29.52 1.5c-.01-.01 0-.05-.05-.05l.06.12c.06-.04 0-.05-.01-.07Zm-.03-.25s.02-.09.05 0c.03.05-.21-.04-.24-.1.06.02.14.09.19.1Zm-.2-.55.09.04c.04.06-.1 0-.1-.04Zm.26.17c-.04-.04.06 0 .08.03l-.08-.03Zm-.7 11.79c.08.03.07-.1 0-.05v.05Zm.55-12c.03.04-.06 0-.09-.02 0-.02.08.02.09.02Zm-.47 12.1c.08.02 0-.1 0-.1-.05-.01-.13.08-.14.1.14-.08.1 0 .14 0Zm.24-.19c.05-.04-.1 0-.11.04l.11-.04Zm.36-.1c.03 0 .12-.03.13-.05-.03.01-.13.03-.13.05Zm.09.04c.06 0 .03-.08 0-.03v.03Zm.27-.07c.04.02.05-.08 0-.06-.02 0 0 .05 0 .06Zm-.82.44c.05 0 .08-.09-.01-.06l.08-.06c-.13.02-.1.1-.13.1-.05.02-.07-.05-.07-.07-.03.05-.2.13-.29.18l.34-.08c.02 0 .04-.03.06-.04.04-.01.02.03.02.03Zm1.16-.57c.1 0 .02-.05-.03-.02l.03.02ZM29.4.37c.1.1 0 .1.27.16-.13-.01-.02.03-.05.04-.03 0-.08-.04-.06 0-.03-.05-.23-.15-.24-.16 0 0 .05-.07.08-.04Zm.2 12.31c.07.09.02-.07.11-.01.03-.15-.21.08-.29 0 .32-.12-.25-.01.04.04-.2.03-.06.05-.08.08-.02.03-.13.05-.11.09l.18-.09c-.09-.05.05-.08.12-.04l.03-.07Zm-.38.08s.14-.07.12-.08c-.02 0-.21.09-.12.08Zm-.6.28c.05-.03.13-.04.15-.08-.05.02-.14.03-.15.08Zm2.56-.98c.06-.05-.15.01-.08.02l.08-.02Zm-1.44.55c.07 0 0-.08-.03-.03l.03.03ZM29.5.41c.02-.02.18.09.2.1-.02.02-.22-.08-.2-.1Zm-.93 12.75c.13.04.23-.11.24-.12.02 0 0 .04.01.04l.17-.07s-.04-.05-.02-.08c-.05.06-.34.16-.35.18-.01 0 .1.02-.05.05Zm.28-.12c-.05 0 .06-.06.1-.06.06 0-.1.06-.1.06Zm.27-.1c.02 0 .13-.04.13-.07-.07 0-.16.08-.13.07Zm1.23-.49c.02-.01.11-.02.1-.04-.02.01-.1.02-.1.04ZM30.18.55c-.04-.04.07.02.1.04 0 .02-.1-.03-.1-.04Zm-.34 12.26c.02 0 .36-.15.4-.18-.05 0-.4.13-.4.15v.03Zm-.75.32c-.01.04-.05.02-.06.02-.04 0-.12.05-.11.02.08-.02.21-.13.17-.04Zm1.34-.54c.11-.06-.12-.01-.08.01l.08-.01Zm-.62.24c-.02.04-.37.16-.43.18.03-.06.09-.05.15-.08.02 0 0-.02 0-.02.04-.02.02.01.04 0 .02 0 .26-.13.24-.08Zm-.72.33-.24.13c-.08-.01.22-.13.24-.13Zm.76-.3c-.01.07-.2.1-.1.03.02 0 .08 0 .1-.03Zm.59-.22s.13-.03.12-.05c-.02 0-.2.06-.12.05Zm-.04.08s-.04-.02.02-.04c0 0 .02.04.09 0l.02-.04c-.1-.04-.27.15-.13.08Zm-1.3.47c.01.01 0 .07-.03.06-.02 0 0-.05.02-.06Zm1.74-.67c-.03.02-.01.03.02.02.05 0 .15-.04.16-.05a.67.67 0 0 0-.17.03h-.01ZM30.4.42c.05.03 0 .03 0 .03.12.1.11.04.13.04.05.01.01.07.1.08-.14-.02-.03.02-.04.04-.03.1-.13-.12-.2-.14 0 0 .04.06.01.06-.08-.01-.21-.27 0-.12Zm-1.35 12.84c-.02.04-.24.1-.2.06.02-.01.22-.12.2-.06Zm10.58-4.22c-.05.08.13-.05.14-.1a.53.53 0 0 0-.14.1Zm.8-1.87c-.04-.19-.2-.33-.12-.13 0 .02.11.15.12.13Zm-4.34 3.69c.08.01.06-.05 0-.04v.04Zm2.68-1.14s.09-.06.08-.07c-.04.01-.14.08-.08.07Zm-2.7 1.16c.04-.03-.04-.05-.08.01l.09-.01Zm-6.03 2.08c.02-.04.1-.07.16-.1.01.04-.13.08-.16.1Zm10.32-5c.02-.16-.1.18-.05.16l.05-.15Zm-6.34 3.65c.02-.02-.03-.02-.05 0l-.08.02c-.02 0-.02.01 0 .02l.09-.03a.3.3 0 0 0 .04 0Zm-.69.23c.04 0 .18-.06.12-.06-.01 0-.12.04-.12.06ZM30.55.47c0-.04.1.02.1.03 0 0-.1.03-.1-.03Zm5.99 10.24c.03-.02.13-.04.14-.07-.05.02-.17.03-.14.07Zm3.54-2.1c.1-.08.2-.29.13-.26-.1.21.06 0-.13.25ZM35.87 11c.02 0 .03-.07.02-.07-.03-.01-.06.06-.02.07Zm2.13-.87c.01.02.1-.03.09-.04-.01 0-.1.02-.09.04Zm-6.86 2.45c.05 0-.07.07-.12.06-.02-.03.11-.06.12-.06Zm3.96-1.33c0 .03.13-.03.07-.04-.02 0-.08.03-.07.04Zm-1.32.52c.08-.06-.32.04-.2.05l.2-.05Zm-.65.2c.02 0 .05.1-.03.08-.01 0 .02-.04 0-.05l-.15.04v.04s-.1 0-.15.02c-.08.03-.08.06-.1.07l-.1.01c-.21.07-.53.2-.72.2.16-.02.3-.1.44-.16-.02.08.2-.12.08 0l.73-.26Zm7.1-5.45c.07.05-.1-.24-.2-.31L40 6.18l.02.04c.07.08.2.29.21.3Zm-.18 2.4c-.01.04.01.13-.14.24-.05.03-.02-.03-.03-.03 0 0-.15.1-.05 0 .14-.16.05.02.13-.06 0 0 .13-.22.11-.22l-.05.07c-.04.03-.04 0-.04 0-.02.03-.22.3-.28.3-.02 0 .34-.41.36-.45.01-.01.06.03.07.02l.17-.29.01-.02c-.03.04.09-.22.1-.2l-.08.19c.04 0-.29.5-.19.4-.08.14-.03-.04-.09.06Zm-.42.5.01-.05c-.15.16-.35.25-.52.36-.05.03.03.03-.04.06-.05.02-.12.02-.1 0 0 0 .11-.04.16-.08.13-.1.08-.1.09-.1 0-.01.1-.05.16-.1.12-.09.16-.15.36-.28-.09.1 0 .1-.12.18Zm-5.06 2.12c0 .03-.09.04-.11.05 0-.02.08-.03.1-.05Zm-.46-9.27c-.04.02.13.13.1.08a.63.63 0 0 0-.1-.08Zm.79.48c.03 0-.05-.08-.07-.05l.07.05Zm2.83 7.69-.08.02c-.07-.01.19-.1.08-.02ZM35.9 3.27c-.1-.03.15.12.09.05l-.09-.05Zm.35.2-.1-.07c-.02.01.08.08.1.06Zm-.35 7.67c.03.03-.11.05-.15.07-.03-.04.11-.05.15-.07Zm.83-.26c-.54.23-.45.1.02-.03.01.02.01.01-.02.03Zm-.7.24c0-.03.07-.05.11-.06 0 .02-.08.05-.11.06Zm-2.1-9.02c.05 0 .16.1.13.1 0 0-.15-.09-.13-.1Zm3.77 8.39c.03.03-.15.09-.17.08-.06-.01.16-.07.17-.08Zm-2.55.94c-.01.04-.1.05-.15.07.02-.04.11-.06.15-.07Zm.38-.1-.08.02c-.07 0 .13-.07.08-.02ZM30.47.1l.05.03c.03.05-.12-.04-.05-.03Z"/>
</svg>
