<svg xmlns="http://www.w3.org/2000/svg" fill="none" viewBox="0 0 27 9">
  <path fill="#000" d="m3.02 5.84.1-.07c-.02.03-.15.12-.1.07Zm2.09-2.61a4.77 4.77 0 0 0-.07.04c.07-.03.16-.08.24-.1 0-.01-.02 0 0 0 .04-.01.03-.02.07-.04.04-.02.26-.1.35-.12.15-.03.32-.08.58-.02.17.04.33.1.47.18-.29-.12 0 .01.08.05.01.01.03-.02.28.15.16.11 0 .04.26.21-.18-.17.02-.02.16.1l.29.27c.03.02.08.05.11.09l.08.08.46.5c-.11-.07.06.08.06.1.03.04-.13-.14-.07-.06a14.63 14.63 0 0 0 .4.4c.01-.03.4.38.47.4.02.01-.06-.05.14.08l.02.02s.07 0 .1.04c.02.01-.06-.01.05.04l.08.03c-.07-.04.29.04.37 0a.77.77 0 0 1-.04 0l.1-.01.24-.07c.07-.04.07-.06.16-.1a.88.88 0 0 1-.07.02 2.58 2.58 0 0 0 .24-.13c.02-.02 0 0 .03-.01 0 0-.01-.01.04-.04l.14-.1.05-.05c.24-.19 0 0 0 .01-.01.01.09-.02-.12.12.07-.04.09-.04.1-.04a4.71 4.71 0 0 0 .12-.1c.06-.06 0-.02.01-.03 0-.01.16-.12.17-.17.09-.04-.02.05-.13.15a.84.84 0 0 0 .12-.09c.16-.13.06-.08.09-.12 0-.02.09-.06.01-.03.15-.12.07-.04.08-.05l.07-.06s-.02.03.02 0c0 0 .06-.07-.02 0 .1-.1.09-.1.14-.11.04-.1.06-.03.1-.05.08-.07.03-.07.04-.08l.3-.26c-.01.04-.18.15-.21.18-.1.11.17-.12.1-.03l.1-.1c.07-.05-.02.04.15-.11.02-.04-.12.1-.1.07l.12-.11-.08.05c.02-.04.38-.3.12-.08.07-.06.13-.06.19-.12.04-.04-.24.1.15-.15l-.16.11.05.01c.02 0 .41-.28.52-.3-.02 0 .09-.06.2-.1.13-.05.27-.06.3-.07.01 0-.05 0-.03-.01.12-.03.4.03.5.07.13.05.12.03.12.03l.04.03c.05.01.34.16.34.17 0 0-.03-.03.03 0l.16.11c.2.12-.12-.1-.03-.06.1.1.11.08.15.1 0 .01.08.08.17.14a9.26 9.26 0 0 0-.2-.12l.24.16c.02.02 0 .02.04.06.02 0 .08 0-.07-.08 0-.02.06.04.1.06 0 0 .03 0 .06.04 0 0-.13-.02.15.14v-.02l.08.06-.01-.02c.05.02.09.1 0 .02l.08.08c-.02-.04.05.03.1.06.27.2.1.05.15.08.08.05 0 .04.12.11 0 0-.12-.1.14.1l-.12-.09c.01.04.14.1.15.1.1.08.03.04.19.14l.07.05c.13.07-.15-.12-.16-.13l.24.16.05.04-.06-.03c-.02-.02-.04-.03-.03-.01l.03.01c.07.07.34.18.4.2.1.02.13.05.14.02.02.04.05.01.06.02h.35s-.01-.02.02-.02l.32-.05-.08.03.28-.08h.04l.14-.06-.33.1c.02-.02.1-.02.08-.04.38-.1.78-.27 1.19-.44-.23.11-.5.2-.73.3-.03.01-.14.05-.12.06l.65-.26s-.02.02 0 0c.05-.01.2-.09.22-.1 0 0-.07.05-.05.05.08-.01.07-.06.13-.08.04-.02.35-.12.42-.16.07-.05-.23.08-.2.06.19-.1.4-.17.6-.24 0 0-.03 0 .02-.02.07-.03.1-.02.14-.03l.21-.06a.14.14 0 0 1-.03.02c-.06.03-.09.02-.1.02l-.06.03-.1.02c-.02 0 0 .01-.02.02-.01 0-.13.02-.13.05 0 0 .32-.11.63-.18a.66.66 0 0 1 .1-.01h.4l-.24-.01c.17.01.36 0 .37.03.6.02 1.21.06 1.82.14.1.01.04.03.22.04l-.14-.03.56.09c.01 0 .03-.02.13 0 .09.01.1.03.15.04l.1.02.02.01c.07.02.02-.01.08.03h-.05c.09.01.2.05.07.03-.02 0 0-.01-.01-.01-.62-.12-.13-.01.09.02l.37.1c.01 0-.04 0 .02.02.02 0 .42.1.27.08l-.27-.07c.1.05.37.08.4.09.1.03-.23-.03.03.03h.02-.03c.15.02 0-.01.07-.01.04 0 .24.03.23 0 .07 0 .03.02.04.02l.17-.02v.02a.87.87 0 0 0 .13-.03s-.03 0-.02-.01l.13-.05s-.13.04-.1.02a.54.54 0 0 0 .18-.09.45.45 0 0 1-.08.04c0-.02.12-.07.08-.04.03-.02 0-.01.02-.03l.04-.03h-.03l.12-.08c.03 0-.05.05-.06.06l.09-.03s-.08.06-.06.06a.61.61 0 0 0 .06-.04c-.07.08-.23.15-.26.17.12-.05.25-.13.27-.1l-.04.05.09-.06-.1.09h.06s-.08.06-.05.05a.52.52 0 0 0 .1-.05c.02 0-.1.08-.1.08l.07-.03-.06.06c-.01.02.04 0 .03 0a2.14 2.14 0 0 1-.14.08h.02l-.04.02.19-.05c0 .02-.19.09 0 .04l.04-.02c.03-.01-.09.08.07-.02-.29.2-.03.04-.06.09a.85.85 0 0 1-.13.08l.07-.02s-.1.06-.07.06a1.16 1.16 0 0 0 .13-.07c.05-.02 0 .02.01.02l.08-.04-.1.08c-.01.01.05-.02.04 0-.06.04-.22.08-.06.05a.46.46 0 0 0 .06-.04c.04 0-.06.05-.07.06-.03.03.11-.05 0 .02a.93.93 0 0 0 .23-.13c-.26.18-.36.26-.04.08-.1.06-.08.07-.11.09-.02.01-.18.06-.1.07.02 0 .11-.05.09-.03-.24.1 0 .01 0 .01.02.05-.6.22-.72.2l-.25.02c-.09 0-.02-.01-.03-.02h-.22l-.03-.02a.72.72 0 0 1-.04 0c-.04-.02 0-.02 0-.02l-.4-.1s.15.05.05.04c-.11-.02-.11-.05-.11-.05a12.35 12.35 0 0 0-1.52-.27 5.89 5.89 0 0 1-.24-.01l.15.03c-.09 0-.29-.04-.42-.04l.04.01c-.05 0-.13 0-.07-.01-.11 0-.1-.01-.18-.02-.01 0 .03.01-.04.01h-.24s.08.04.1 0c.18.03.06 0 .13 0 .01 0-.01.02.17.03-.03.02-.25-.02-.29-.01-.07 0 .24.04.3.02-.03.02.02 0 .09.01.08 0 .04.01.08.02.12 0 .07-.01.16.01-.08-.06.16.01.23.03a16.88 16.88 0 0 0-.35-.03l.02.01a19.1 19.1 0 0 0-.1 0l.02-.02c-.16 0-.2-.02-.21-.02a13.52 13.52 0 0 0-.54-.04c-.03 0-.01.02-.2 0-.06 0 0-.02-.07-.02-.09.03-.09 0-.11 0h-.46l-.23-.03.1-.01a.83.83 0 0 0-.15.04l.12-.03-.3.11c.06 0 .17-.07.2-.05-.12.01-.75.26-.8.28l.02-.02-.17.07.04-.03a1.2 1.2 0 0 0-.2.09l.11-.04-.06.03.24-.1c-.18.1-.46.2-.68.3-.09.03.13-.07.03-.03-.22.07-.05.03-.06.03-.05.03-.24.06-.23.1-.08.02-.05 0-.16.06l.05-.01a1.08 1.08 0 0 1-.38.1.97.97 0 0 1 .2-.07c.02 0 .05-.06.25-.1.06-.05-.3.1-.14.02-.1.05-.6.2-.67.22 0 0 .04.01-.09.03-.06.01.08-.02.05-.02-.04 0-.35.08-.7.1a2.2 2.2 0 0 1-.86-.15l-.02-.02a1.7 1.7 0 0 1-.28-.13c.1.07-.01 0-.11-.06a3.68 3.68 0 0 1-.1-.06c-.08-.07-.07-.08-.1-.11-.15-.12-.4-.27-.5-.38-.02.03-.2-.16-.29-.23-.07-.06-.19-.12-.1-.04a7.9 7.9 0 0 0-.37-.26l-.02-.02-.04-.02c-.24-.14-.12-.09-.16-.12a.69.69 0 0 0-.05-.04l.34.22c-.03-.05-.3-.2-.38-.25 0 0 .01 0 0 0l-.17-.08.19.1c-.03 0-.01.01-.02.01l-.24-.13h-.01c-.04 0-.02-.02-.07-.02-.06-.05.14.05.14.03a.57.57 0 0 0-.2-.07c-.09-.02-.15 0-.18.02l-.03.02a.07.07 0 0 0-.03 0 .95.95 0 0 0-.2.1v.03c-.01 0-.2.1-.26.16l.11-.07c-.2.14-.17.13-.1.08h.01l.14-.08s-.35.26-.3.2c.01-.01.18-.13.1-.08-.02 0-.13.1-.13.1-.05.01.18-.17.14-.16l-.19.15-.03.04c-.05.05-.03.02-.05.03 0 .01-.1.11-.1.07-.34.32-.08.1.13-.08-.06.07-.2.17-.25.23l-.04.05a23.55 23.55 0 0 1-.55.44c-.05.04 0 .02 0 .03-.02 0-.24.19-.28.22.17-.14.12-.12-.02 0l.05-.06c-.08.07-.27.2-.32.23h.02c-.04.04-.2.14-.22.15 0 0 .07-.04.05-.02l-.15.08-.01.02c-.05.04-.03 0-.13.07-.08.04-.13.08-.24.12.37-.15.07 0-.1.05-.03.01 0 .03-.16.06.34-.13-.1.02-.2.03h-.35a2.22 2.22 0 0 1-.3-.05l-.05-.02-.14-.05a.9.9 0 0 1-.07-.03l-.1-.05a1.13 1.13 0 0 0 .16.09c.13.05.27.08.37.1a1.8 1.8 0 0 1-.35-.08s.09.02 0-.01a.78.78 0 0 0-.01-.01c-.08-.03-.2-.07-.29-.12a.72.72 0 0 1-.07-.07l.1.06A.79.79 0 0 1 9 6.22l-.03-.08-.04-.01c-.06-.04-.22-.18-.23-.17l.08.07c-.16-.12-.1-.07-.12-.08-.02-.02 0-.02-.06-.06l-.2-.18c.1.1.05.07.06.07l.07.06c.2.16 0 .01.03.05l.06.04.03.04c.04.02 0-.02 0-.02.04.02.16.12.07.08.05.04.06.02.1.06.06.06-.05-.02-.08-.04-.11-.07-.14-.1-.28-.22-.05-.05-.1-.1-.13-.11-.02-.01-.12-.16-.16-.13l-.14-.2c-.04-.04-.04-.02-.05-.02l-.07-.08-.06-.03c-.08-.08-.06-.1-.07-.1-.08-.11-.06-.05-.08-.07l-.34-.36.08.06c-.04-.05-.1-.08-.08-.1-.03.02-.1-.08-.12-.1-.01-.02-.02-.01-.03-.02l-.19-.18c-.12-.1.16.19.18.22-.04-.05-.31-.28-.2-.16.01.02.06.04.07.05.07.06 0 .02.01.02l.08.06s-.03-.01.03.05c-.04-.02-.22-.2-.25-.22 0 0 .03.06-.12-.1v.01a2.86 2.86 0 0 0-.28-.2c.02 0 .08.03 0 0-.03-.03 0 0-.01 0a2.1 2.1 0 0 0-.5-.22c.05 0-.1.02-.13.03a1.59 1.59 0 0 0-.17.07 4.08 4.08 0 0 0-.3.14l-.02.03c-.02 0 0-.01 0-.01-.06.02-.46.27-.56.33l.33-.23a.59.59 0 0 0-.09.04c-.02 0-.1.08-.14.1 0 .01 0-.02-.07.03-.03.02-.1.08-.18.11-.1.07-.66.45-.68.49 0 0 .08-.05.03-.01-.07.06-.02-.01-.1.05a9.77 9.77 0 0 0-.24.18c-.06.06.14-.08.14-.07l-.17.13s.1-.11-.04.01l.06-.03c-.07.06-.1.05-.1.07-.07.04-.11.1-.22.15-.03 0 0-.03 0-.03-.03.02-.05.06-.1.08 0 0 .08-.08-.09.05l.04-.02a4.95 4.95 0 0 1-.22.17c-.07.06-.02 0-.08.05.05-.02-.15.15-.15.13-.02.04-.2.17-.29.23l-.17.15-.06.03s-.1.1-.21.17c-.02.01-.08.02-.05 0 .06-.07.18-.14.17-.15-.01-.01-.16.12-.2.15-.19.14-.09.04-.1.04a.4.4 0 0 0-.12.1c-.02 0 .04-.06.04-.07 0 0-.11.06-.1.04l.14-.1c.07-.07-.05 0-.08.01-.01 0 .02-.02 0-.02-.1.08 0 .04-.07.1-.06.05.01-.03 0-.03 0 0-.07.07-.09.07l.16-.18-.18.16c-.02 0 .08-.07.09-.08.01-.02-.05.02-.05.01 0 0 .06-.06 0-.02-.02.02-.05.06-.13.1.23-.2.06-.07.05-.07-.01 0 .1-.1-.05.01-.02-.02 0 0 .04-.04.04-.05-.08.04.1-.1a.61.61 0 0 0-.16.12c-.01 0 .02-.03 0-.02-.15.09-.05.02-.1.04 0 0-.14.1-.04.02.17-.15.26-.2.26-.26-.14.1-.28.25-.32.28-.06.05 0 0-.01 0l-.06.05c-.06 0 .23-.2.31-.27l-.07.04.09-.08c-.16.12-.01 0 .01-.05 0-.01-.09.08.01-.03l-.13.11.22-.22c-.24.19-.09.1-.3.26-.03.04.07-.04.06-.03-.02.03-.1.07-.16.16 0 .01.06-.02-.02.05a.7.7 0 0 1-.07.04c0-.02.05-.06.05-.06l-.05.04.03-.04c-.02 0-.24.16.03-.06-.2.2-.02.04.06-.04l.06-.06.1-.09c.02-.02-.12.08.07-.08l-.35.29c-.2.14.1-.13.14-.16h-.02l.2-.17c.01-.02-.07.05-.08.05 0 0 .2-.19.09-.1-.09.07-.22.21-.26.22l.35-.3-.21.14c.13-.12.25-.2.37-.32-.33.23.08-.1.09-.1l-.16.08c.1-.1.42-.36.21-.23a.64.64 0 0 0 .11-.1c-.02 0-.2.15-.17.12.02-.04.09-.07.14-.11.27-.23.15-.22.43-.43h-.02l.92-.7a5.96 5.96 0 0 1 .81-.6c.03 0-.1.08-.04.05l.27-.19-.14.1c-.13.05.76-.5.82-.51a4.87 4.87 0 0 0-.07.02 5.8 5.8 0 0 1 .19-.1ZM3.2 5.66l-.14.12c-.06.05-.14.17-.12.1l.26-.22Zm1.33-.96c-.07.04-.03-.02.03-.04 0 0 .06-.01-.03.04Zm-.65.45a2.11 2.11 0 0 1 .06-.04c.05-.03-.1.08-.06.04Zm2.86-.92c-.06-.04-.03.01.01.03l-.01-.03ZM6.7 4.2c-.04-.05-.15-.07-.08-.03a.96.96 0 0 0 .08.03Zm-2.4.64a.44.44 0 0 1 .1-.07l-.1.07Zm1.6-.92a.84.84 0 0 0-.2.08l.21-.08Zm.38.05a.28.28 0 0 0-.08-.03l.07.03Zm.98.72s-.02-.07.07.06l-.04-.02.02.03a2.37 2.37 0 0 1-.11-.11c-.02-.03.05.04.06.04Zm.5.51a.88.88 0 0 1 .1.1s-.02 0 .02.04c.02.03 0-.03.05.03s-.03 0-.03 0 .1.08.08.09l-.1-.12c-.04-.02-.01.02-.05-.03-.03-.03 0-.03 0-.03-.01-.01-.12-.1-.06-.08Zm-.43-.43a.15.15 0 0 1-.02-.01l.02.01Zm-3.96.75c.03-.02-.05.06-.1.08a.64.64 0 0 1 .1-.08Zm4.02-.7c.07.08.01.02-.06-.05l.06.04Zm-2.3-.52h.01s-.01 0 0 0Zm.23-.12c.07-.05-.08.03-.08.04a.82.82 0 0 0 .08-.04Zm1.5.11c-.01 0 .1.04-.05-.04.07.06 0 0 0 0l.14.13c.03 0-.08-.07-.1-.09ZM8.8 6.18a.72.72 0 0 1-.14-.1c.02 0 .09.06.14.1Zm11.86-1.1h-.17l.12-.01c-.14.03-.15.02 0-.02l-.12.02h.1l.06.01Zm-2.63.95c-.04 0 .07-.04.14-.06.02 0 .08 0 .02.02 0-.02-.12 0-.16.04ZM7.44 4.85l.13.14a.96.96 0 0 1-.13-.14Zm12.3.49-.04.03c.03 0 .09-.04.05-.03ZM7.23 4.62s.1.08.09.1l-.1-.1ZM8.7 6.11a.77.77 0 0 1 .12.08.61.61 0 0 1-.12-.08Zm10.51-.55a.66.66 0 0 0-.11.06.37.37 0 0 0 .1-.06Zm5.66.04a.52.52 0 0 1-.09 0 .21.21 0 0 1-.03 0 .62.62 0 0 1-.1-.02c-.07-.02.02 0 .1 0l.03.01.1.01Zm-4.83-.39c.1-.02-.01 0 0 .02.06-.02.21-.07.1-.05l-.1.03Zm-.09.03s-.07.05 0 .02c.02 0 .05-.04 0-.02Zm4.12.19c-.08-.03.32.07.33.07h.01l.1.04-.1-.02a4.28 4.28 0 0 1-.34-.1Zm-.65-.14c.1 0 .11.03.1.03-.1 0-.03-.02-.04-.02 0 0-.08 0-.06-.01Zm.52.1.1.03-.1-.02ZM8.18 5.6c.04.05-.01.01-.04-.02 0 0 0-.02.03.02Zm11.74-.34c-.01 0-.35.13-.33.14.03-.02.42-.16.33-.14Zm-2.76.9c.08 0 0 .03-.05.02l.05-.01ZM7.1 4.5c-.05-.04-.02-.05.01 0H7.1Zm10.66 1.6c-.25.06-.2 0 .12-.06l-.02.02-.07.02-.03.02Zm-1.02.06c-.26-.08.25.02.39 0-.14.02-.32 0-.07.03-.37 0-.22-.02-.23-.02l-.09-.01Zm.69 0 .16-.03c-.05.02-.26.04-.16.02Zm5.3-.96h.1-.1ZM3.1 5.66l-.09.08a.74.74 0 0 0 .1-.08Zm15.82 0c-.01 0-.28.12-.18.09.03 0 .27-.11.18-.09Zm1.34-.53a1.18 1.18 0 0 0-.11.04l.1-.04ZM2.9 5.82a1.04 1.04 0 0 0-.1.1.46.46 0 0 0 .1-.1Zm5.46-.07.03.04s.2.18.12.12a5.45 5.45 0 0 1-.32-.3c0-.03.1.1.13.12l.05.02Zm14.75-.52.28.04a12.97 12.97 0 0 0-.28-.04Zm-.14-.02.12.01a.65.65 0 0 1-.12 0Zm-3.2.06c-.02.02.06 0 .04 0l-.08.04a.32.32 0 0 0 .07-.01l.03-.02.24-.09c.01 0-.05.01.01-.01.01 0 .08-.01.15-.04.12-.07.23-.08.37-.12l-.1.01h.13a2.22 2.22 0 0 0-.13 0l.1-.02a5.26 5.26 0 0 0-.73.23l-.04.02-.06.01Zm-16.64.37c-.03 0-.09.07-.13.1.02 0 .09-.07.13-.1Zm18.6-.56h-.12a.35.35 0 0 0 .12 0ZM9.74 6.53h.1c.08.02-.19 0-.1 0Zm1.74-.63c.04-.04.08-.07.1-.07l-.1.07Zm1.68-1.36.13-.08a.54.54 0 0 1-.13.08Zm9.56.61h.13c.01.01.03.06-.06.03-.02 0 .05 0-.07-.03Zm-4.79.87.15-.05a.96.96 0 0 1-.15.05ZM2.68 5.99c-.04.01-.2.15-.15.12L2.68 6Zm4.95-1c.06.06-.05-.07-.1-.1l.1.1Zm5.13-.17a2.21 2.21 0 0 1 .08-.06c.06-.03-.13.1-.08.06ZM11 6.2a3.64 3.64 0 0 1 .27-.16c-.03.04-.3.2-.27.16Zm11.35-1.08.18.02a1 1 0 0 1-.18-.02ZM13 4.64l.01-.01Zm7.9.39h-.05.04Zm-17.83.64c-.02 0-.09.07-.13.1a.84.84 0 0 0 .13-.1Zm13.4.4c-.08-.03.26.04.33.04 0 .02-.32-.03-.33-.04Zm-9-1.27-.07-.07a.36.36 0 0 0 .07.07Zm9.5 1.33c.03 0 .1 0 .08.01h-.08Zm2.43-.71c-.01 0-.15.07-.09.06l.06-.03c0-.01.24-.1.03-.03ZM15 5.15l.16.12a.97.97 0 0 1-.15-.12Zm-7.22-.02c0-.02-.27-.3-.13-.13.01 0 .15.17.13.13Zm14.94.02a.96.96 0 0 1-.04 0h.04Zm-1.03-.09-.12-.01a.5.5 0 0 0 .12.01Zm-6.52.2.12.1a.58.58 0 0 1-.12-.1Zm-1.8-.87a.5.5 0 0 0 .11-.06h.03a.1.1 0 0 1 .04-.01l-.03.01c-.14.06-.38.18-.1.02a2.05 2.05 0 0 0-.06.04ZM10.7 6.34c-.04 0-.16.07-.13.06.03-.01.18-.08.13-.07Zm1.35-.96a.78.78 0 0 0-.1.09c.06-.04.15-.12.1-.1Zm-1.7 1.07a.17.17 0 0 0-.06.02l.06-.02Zm12.19-1.36a.73.73 0 0 0-.18 0 .24.24 0 0 0-.04-.01c-.03-.01-.98-.08-.35-.02h.08l.02.01c.04 0 .24.03.28.02h.01c.05.02.2 0 .18 0Zm-10.33.14a.34.34 0 0 0-.07.07c.03-.02.12-.1.07-.07ZM7.8 5.1c-.03-.03-.11-.11-.1-.08.02.01.13.12.1.08Zm3.88.6c.21-.16.05-.04.08-.07l-.08.07Zm12.02-.42c-.04 0 .01-.02.05 0h-.05Zm1.98.22c-.04 0 .17-.05.09-.02a.87.87 0 0 1-.09.02Zm-1.44-.11-.12-.02.12.02ZM13.48 4.33ZM10.05 6.5h-.12a.5.5 0 0 0 .12 0Zm12.3-1.41c.01 0 .01 0 0 0ZM10.64 6.35a.84.84 0 0 0 .15-.06c.08-.05-.09.04-.15.06Zm-3.45-1.9s.01.04.04.06c.02 0-.02-.04-.04-.05Zm17.3 1c.05 0 .1.02.12.03l-.12-.03Zm1.1.06a.8.8 0 0 1-.29.05l.3-.05Zm-2.93-.4s-.1-.02-.1 0h.1Zm-15.33-.5c.03.02-.03-.07-.07-.1-.03 0 .06.09.07.1ZM9.7 6.47c-.08-.01.12.03.15.02l-.15-.02Zm2.2-.99c-.17.12-.05.08-.03.05a.4.4 0 0 0 .03-.05Zm-9.64.78c-.02.02.07-.03.08-.05l-.08.05ZM14.11 4.5l-.02-.02a.2.2 0 0 1 .02.02ZM9.05 6.18c.12.11.12.08.13.08l.15.08a2.38 2.38 0 0 1-.2-.08 1.94 1.94 0 0 0 .52.2l-.14-.04s-.02-.03-.04-.03l-.12-.05a1.99 1.99 0 0 1-.3-.16Zm2.5-.42c.03-.02.05-.01.06-.03l.01-.02a9.28 9.28 0 0 1-.06.05Zm-2.76.28.14.1c.02.02-.12-.06-.14-.1Zm1.76.33-.17.06c.05 0 .26-.08.17-.06Zm1.09-.67c.04-.04.12-.09.1-.1l-.1.1Zm-4.19-1c-.04-.08-.03-.03.02.03.02.01-.01-.02-.02-.03Zm-.18-.21c-.02-.02-.2-.19-.18-.15l.12.1c0 .01-.04-.01.02.04l.04.01Zm.14.15c-.05-.08-.08-.07-.04-.02l.04.02Zm.25.26a.8.8 0 0 0-.12-.13l.16.18-.04-.05Zm18.5.3c-.07.03.09-.08.1-.08.02 0-.06.06-.1.07ZM1.65 6.4l-.07.05.12-.06c.01-.04-.03 0-.05.02Zm-.18.06s-.04 0 .04-.04c.05-.02-.17.18-.22.2l.18-.16ZM1 6.7l.1-.08c.05-.04-.07.08-.1.08Zm.28-.23.07-.06a.47.47 0 0 1-.07.06Zm24.06-1.42c-.06-.02-.1.03-.02.01l.02-.01ZM1.06 6.6l-.07.06a.48.48 0 0 1 .07-.06ZM25.29 5c-.07-.02-.05.03-.04.03a.54.54 0 0 0 .18-.03c-.18.03-.11 0-.14 0Zm-.32 0c-.07 0 .1.04.13.02l-.13-.01Zm-.4-.1a1 1 0 0 0-.16-.03l.17.04Zm-.07-.03c-.06-.03-.08 0 0 0Zm-.33-.1c-.03-.01-.08 0-.02.02l.02-.01Zm1.03.17c-.05 0-.1.02 0 .02a1.72 1.72 0 0 1-.12 0c.14.03.13 0 .17 0 .05 0 .05.02.04.02.05-.01.23-.04.33-.08-.1.03-.24.05-.34.05h-.07c-.04 0 0 0 0 0Zm-1.46-.25c-.12-.04-.05 0 .02.01l-.02-.01ZM.89 6.64c.12-.1.04 0 .27-.23-.09.1 0 .01 0 .03-.02.02-.09.07-.04.05-.06.03-.25.2-.27.2 0 .01 0-.02.03-.05Zm23.7-1.8c-.02-.04-.05.01-.12-.04-.1.02.27.07.3.12-.39-.1.26.1 0-.02.22.07.07 0 .1 0a.3.3 0 0 1 .04.01h-.02c.05 0 .12.02.12 0a2.75 2.75 0 0 1-.12 0h.03a10.3 10.3 0 0 1-.12-.03c.07.05-.09 0-.13-.04h-.08Zm.41.12-.11-.01h.02-.05a.46.46 0 0 0 .05 0h-.02c.07.01.18.02.11 0Zm.65-.08-.15.06a.47.47 0 0 0 .16-.06Zm-3.09-.37c-.08 0 .17.03.1 0a3.16 3.16 0 0 0-.1 0Zm1.85.3c-.07-.03-.04 0 .02.01l-.02-.01ZM.98 6.56l.2-.18a1.4 1.4 0 0 1-.2.17Zm24.75-1.74a.92.92 0 0 0-.24.09c-.02 0 0-.02 0-.02a2.19 2.19 0 0 1-.17.03s.02.02-.01.02c.07 0 .35-.07.36-.09.01 0-.08.01.06-.03Zm-.28.09-.1.02c-.06 0 .1-.02.1-.02Zm-.28.01a1.07 1.07 0 0 0-.15 0c.07.02.19 0 .16 0Zm-1.51-.3c-.04 0-.14-.03-.15-.02.04 0 .14.03.15.02ZM1.52 6.02c-.05.03.05-.06.09-.08a.88.88 0 0 1-.1.08Zm22.9-1.29a9 9 0 0 0-.54-.1 39.5 39.5 0 0 0 .54.1Zm.86.14h.05c.04 0 .12-.02.1 0-.06 0-.22.03-.15 0Zm-1.65-.3c-.15-.02.14.04.1.02a1.9 1.9 0 0 0-.1-.02Zm.84.17.46.11h-.03.07a.22.22 0 0 1-.07 0l.03.01-.12-.03h-.02c-.04 0-.01 0-.03-.01-.02 0-.34-.08-.3-.08Zm.82.12Zm-.86-.14c.05 0 .27.06.12.03l-.12-.03Zm-.78-.17a1.4 1.4 0 0 0-.17-.02c.02 0 .26.05.17.02Zm.09 0s.03.02-.04 0l-.12-.03a.17.17 0 0 0-.04 0c.1.04.4.06.2.03Zm1.56.3c-.01 0 .01-.02.04-.02 0 0 0 .02-.04.02Zm-2.16-.38ZM1.58 5.87l.03-.02c.14-.1.1-.08.11-.1.04-.04.05-.01.12-.08-.12.1 0 .01 0 .02.03.01-.17.12-.23.17 0 .01.06-.03.04-.01-.06.06-.3.2-.07.02Zm23.78-1.04c.02 0 .22-.05.17-.03 0 .01-.21.05-.17.03Zm-12.13-1.2-.13.05.13-.04Zm-1.03.6c-.06.05-.1.14-.03.07l.03-.07Zm4.74 1.13c-.06-.02-.06 0-.01 0h.01Zm-2.47-1.53a.54.54 0 0 0-.1-.05c.03.02.15.09.1.05Zm2.49 1.52c-.04 0 .03.03.07 0-.02.01-.07 0-.07 0Zm7.31-.72-.22-.04c0-.02.17.03.22.04Zm-11.78-.6c-.06.05.08-.04.07-.04a1.14 1.14 0 0 0-.07.04Zm6.77.61c-.05.03.12-.03.07-.02l-.07.02Zm.73-.27c-.04 0-.22.07-.15.05l.15-.05ZM1.72 5.74c-.03 0 .08-.07.1-.08 0 0-.07.08-.1.08Zm14.83-.47-.12-.05.12.05ZM12.8 3.82c-.07.03-.17.1-.13.1.11-.08-.03-.01.13-.1Zm4.38 1.52c-.03 0-.05.01-.04.02.03 0 .07-.02.04-.03Zm-1.95-1s-.08-.07-.08-.05a.41.41 0 0 0 .08.05Zm7.6.04c-.05-.02.1 0 .15.01l-.15-.01Zm-4.84.77-.09.03a.39.39 0 0 0 .09-.03Zm1.48-.62Zm.79-.26c-.02 0-.02-.04.07-.04l-.03.02.1-.03a.7.7 0 0 1 .2 0c.02 0 0-.02.01-.02l.18.02.13-.01.12.01c.27.01.68.02.89.06l-.56-.03c.06-.02-.27 0-.08-.01l-.78-.02a.68.68 0 0 0-.1.01l-.15.04Zm-8.31.16c.03-.04-.16.12-.17.15a4.78 4.78 0 0 0 .17-.15Zm.99-.75c.02-.01.03-.05.17-.1.04 0 0 .02 0 .02.01 0 .14-.04.04 0-.16.07-.03-.01-.1.03a1.19 1.19 0 0 0-.15.09l.05-.03h.03s.16-.1.25-.12a.3.3 0 0 1 .06-.01l-.06.02a4.09 4.09 0 0 0-.35.17l-.03-.01-.16.1a.27.27 0 0 1-.02 0c.03 0-.1.08-.1.07a.88.88 0 0 1 .1-.06c-.03 0 .28-.17.2-.15.1-.05 0 .03.07-.02Zm.58-.2a1.11 1.11 0 0 0-.05 0c.28-.03.54.06.75.15.05.02 0-.02.06.02.05.02.1.07.07.05l-.16-.08c-.18-.07-.14-.04-.15-.04a1.28 1.28 0 0 0-.2-.06c-.2-.03-.3-.05-.58.03.16-.05.07-.05.26-.07Zm5.1 1.39.13-.06-.13.06ZM5.65 3.03a.77.77 0 0 0 .2-.04 1.52 1.52 0 0 0-.2.04Zm1.36.3c.04.01-.09-.07-.1-.06l.1.06Zm8.57 1.2.07.06c.04.05-.18-.13-.07-.06Zm-7.49-.3c-.08-.08.15.17.09.09a4.51 4.51 0 0 0-.09-.1Zm.32.34-.1-.1a.43.43 0 0 0 .1.1Zm8.78.72c0-.02.12-.02.16-.03.01.01-.11.02-.16.03Zm-.7-.13c.22.1.31.1.3.1a.79.79 0 0 1-.32-.1h.03Zm.6.12a.32.32 0 0 1-.12 0h.11ZM5.32 3.13a.7.7 0 0 1 .21-.08l-.21.08Zm10.3 1.43c0-.02.15.1.16.1.04.05-.14-.1-.16-.1Zm2.34.53.17-.07c-.02.02-.12.05-.17.07Zm-.4.11a5.94 5.94 0 0 1 .09-.02c.06 0-.15.05-.08.02Zm-16.14.66.06-.05c.05-.03-.1.1-.06.05Z"/>
  <path fill="#000" d="m20.11 2.04.06.03-.06-.03Zm2.03.02-.04-.01.12.07s-.02 0 0 0c0 .02.01 0 .03.01l.15.1.37.2c-.13-.06 0 .02.03.04.01 0 .02-.02.15.06.08.05-.02.04.13.1-.1-.08 0-.02.09.02l.18.11c.02.01.05.01.07.03.02 0 .03.02.05.03.11.06.22.12.33.2-.08-.02.04.03.04.04.02.02-.1-.05-.05-.01l.2.1.1.05c0-.03.28.2.33.22.01 0-.04-.05.1.04.02.01 0 .02.01.02s.05 0 .08.03c0 .01-.08-.02.1.08-.06-.07.23.13.28.17l-.03-.03.08.05c.05.03.1.08.15.1l.12.07-.03-.04.12.1c-.1-.05.02 0 .03.01l.01.02.04.01.08.07.05.02c.16.1 0 0-.01 0 0 0 .02.06-.1-.04.04.03.04.05.04.05l.09.06c.04.03.01 0 .02 0s.1.08.14.07c.02.06-.05 0-.12-.05-.02 0 .06.06.06.07.11.08.07.02.1.02.02 0 .05.05.02 0 .1.09.04.04.04.05l.05.04c.01 0-.02 0 0 .02.01 0 .06.03.01-.02.08.07.07.05.09.1.08.02.02.05.04.08.03.04.05.05.06.05h.01c.04 0 .16.24.18.31-.03-.02-.1-.2-.12-.23-.08-.1.09.17.01.1a.99.99 0 0 1 .08.1c0 .1-.03-.02.03.2.02.04-.04-.16-.02-.12.02.02.04.15.04.16.01 0-.02-.12 0-.1.04.03 0 .51 0 .15 0 .1-.03.15-.04.23 0 .05.13-.22-.02.2-.02 0 .06-.16.05-.17l-.04.02c0 .03-.18.4-.25.42.04 0-.17.17-.18.19h.02c-.04.04-.15.1-.2.13l-.04.04-.03.01-.17.1s.02 0 0 .02l-.1.05c-.12.07.08-.03.04.01-.08.02-.07.04-.1.05l-.12.04.12-.07-.15.08c-.02 0-.01-.02-.04 0-.01 0-.02.05.06 0l-.05.02s0 .03-.04.03c0 0 .04-.08-.12.03 0 0 .02 0 .01.01l-.05.02h.02c-.03.03-.08.02-.02 0h-.07c.03.02-.03.03-.06.04-.18.08-.05.05-.08.07-.04.03-.02-.02-.1.02 0 0 .1-.02-.08.04l.08-.03c-.03-.02-.1.04-.1.04-.07.03-.03 0-.13.06l-.05.01c-.07.05.11-.03.12-.02a2.18 2.18 0 0 1-.2.08c-.04 0 .08-.04.06-.05-.01 0-.3.12-.36.13-.07.02-.11 0-.1.04-.03-.03-.04 0-.05 0l-.19.07h-.05v.03c-.03.01-.2.06-.21.05-.02 0 .06-.02.05-.03l-.18.06h-.02a.74.74 0 0 0-.08.04s.27-.09.2-.05a23.27 23.27 0 0 0-.74.26c.12-.07.27-.11.41-.16.02 0 .09-.03.07-.04l-.37.13h-.01c-.03 0-.1.05-.12.05l.03-.03c-.05 0-.04.04-.07.05l-.15.05h-.03a.3.3 0 0 0-.07.04l.08-.02h.03l.03-.02-.03.02-.03.01-.3.1s.02 0 0 .01c-.05.02-.06.01-.08.01l-.11.04a.07.07 0 0 1 0-.02c.04-.02.06 0 .06 0l.03-.02.06-.01V7.7c.01 0 .08 0 .08-.02l-.54.16.13-.03c-.1.02-.19.08-.2.05l-.96.31c-.05.02-.03-.01-.12.02h.08a2.83 2.83 0 0 0-.1.02 2.37 2.37 0 0 0-.2.07s0 .02-.05.04h-.08l-.05.03h-.06l.02-.01c-.04.01-.1.02-.04 0 0-.01 0 0 0 0 .32-.12.06-.05-.04 0-.03 0-.19.08-.2.08 0 0 .02-.02-.02-.02 0 0-.21.1-.14.05l.14-.06c-.07 0-.19.09-.2.1-.07.02.1-.07-.03-.02-.1.04 0 .02-.04.04-.02.01-.15.05-.14.07-.04.02-.02 0-.02 0l-.11.05V8.6a1.02 1.02 0 0 0-.1.04s.03 0 .02.01l-.08.04.07-.02a.53.53 0 0 0-.13.08.37.37 0 0 1 .06-.03c0 .02-.09.06-.06.03-.02.02 0 .01-.01.03l-.03.02h.02a.48.48 0 0 1-.1.04c-.02 0 .05-.03.05-.04l-.06.01c-.01 0 .06-.03.04-.04a9.6 9.6 0 0 0-.05.02c.06-.04.17-.08.2-.11-.1.04-.19.08-.2.05l.03-.04-.07.03.08-.05-.05-.02s.06-.03.03-.03l-.07.02.07-.05h-.05l.04-.03h-.02l.09-.05h-.02l.03-.02h-.12s.11-.02 0-.03l-.03.01c-.02 0 .05-.05-.04 0 .17-.1.01-.03.03-.06 0-.02.07-.05.07-.05h-.04l.04-.03-.08.03c-.03 0 0-.02 0-.02l-.05.02.05-.05h-.02c.03-.03.12-.04.03-.04l-.03.02c-.02 0 .03-.03.03-.04.01-.02-.06.02 0-.02a.5.5 0 0 0-.13.05c.15-.07.18-.13.02-.05.05-.02.04-.04.05-.05.01 0 .1-.02.04-.04 0 0-.05.02-.04 0 .11-.04 0 0 0 0 0-.03.27-.13.32-.15l.1-.07c.04-.02.01 0 .02 0l.12-.06c.02 0 0 .01 0 .01.04 0 .18-.07.23-.08 0-.01-.1.02-.05-.01.06-.04.08 0 .08 0 .23-.1.47-.19.7-.26l.15-.05c0-.02-.1.02-.15.04l-.04.01.03-.02.29-.1-.09.02c.04-.03.16-.04.23-.08h-.03c.03-.02.07-.03.04 0 .06-.04.06-.02.1-.04l.02-.01c.02-.01.12-.04.13-.06 0 0-.06-.02-.06.01-.1.02-.03.03-.07.04 0 0 0-.02-.1.02.02-.03.14-.05.16-.06.04-.02-.14.02-.16.05 0-.02-.01 0-.05.02h-.05c-.06.02-.03.03-.09.03.07.03-.08.04-.13.04l.2-.07h-.02l.06-.02-.01.01c.08-.04.1-.04.12-.04l.3-.1.1-.03h.04c.04-.05.04-.02.06-.03l.06-.03.18-.06s-.03 0 0 0c.01 0 .14 0 .23-.05l-.08.02c.03-.01.23-.09.18-.08-.03 0-.1.05-.12.03l.48-.16-.01.02.03-.01-.03.01a.73.73 0 0 1 .07-.03l-.02.02a.47.47 0 0 0 .12-.05c-.03.01-.1.04-.07.02l.04-.02c.05-.03-.12.04-.15.05h.03-.03c.1-.05.28-.1.4-.16.06 0-.06.04 0 .03.12-.03.02-.03.03-.03.02-.02.14 0 .13-.04l.09-.03h-.03a.37.37 0 0 1 .21-.03c-.02.02-.1.03-.1.03-.02 0-.03.05-.14.05-.04.04.16-.04.08 0 .06-.02.32-.09.35-.11 0 0-.02-.02.05-.03.03 0-.04.02-.03.02.05 0 .62-.2.72-.24h.01l.13-.06c-.08.02.07-.04.11-.05.06-.02.06 0 .09-.01.1-.03.23-.12.31-.12-.01-.03.13-.04.19-.07.05-.02.1-.06.04-.05l.22-.11h.02l.01-.02c.14-.08.08-.03.1-.04a.26.26 0 0 0 .04-.01 4.45 4.45 0 0 1-.2.1c.04.01.18-.09.23-.1 0-.01 0 0 0 0 .02 0 .12-.07.09-.07l-.1.06v.01c.02-.03.1-.07.13-.08V5.6c.03-.02.03 0 .04-.03.06 0-.08.06-.06.07.02 0 .27-.2.25-.2l.01-.01a.21.21 0 0 0 .07-.07l-.02-.02s.05-.05.04-.07l-.02.03c.02-.05 0-.04 0-.03l-.02.02c0-.01 0-.05.02-.04v.01l.01-.01c.01-.01.02.03.03.03v-.04h-.01v-.01s-.02-.02 0-.02c-.06-.1-.01 0 0 .03-.02-.01-.02-.04-.04-.06h-.02l-.02-.04a1.3 1.3 0 0 0-.16-.15c.03.02.03 0 .01-.01-.02-.02-.01 0-.02 0l-.14-.1c.1.06.08.03 0-.02l.05.01-.17-.12v.01c-.02 0-.1-.07-.1-.07l.01.02-.06-.05h-.02c-.03-.01 0-.02-.05-.04l-.12-.06c.15.12.02.02-.05-.02 0 0 0 .02-.07-.03.16.06-.03-.04-.06-.06l-.02-.02h-.02c-.16-.1-.05-.04-.08-.07l-.11-.06-.02-.02-.09-.04-.04-.04h-.01c.05.05.16.1.22.14.05.05-.13-.06-.14-.07 0 0 .03.02 0 0l-.14-.07a.27.27 0 0 1-.02-.04l.05.02-.04-.03V4.1h-.02l-.12-.1.04.03c-.09-.05-.05-.02-.07-.02-.01 0 0-.02-.03-.04a1.03 1.03 0 0 0-.13-.06c.08.03.04.03.05.03l.04.02c.1.07 0 .01.02.03l.03.01.01.03c.02 0 0-.02.01-.02.02 0 .08.05.03.04.03.02.04 0 .05.03.04.03-.02 0-.04-.01l-.16-.1c-.03 0-.06-.02-.08-.03 0 0-.07-.08-.1-.04-.03-.02-.06-.08-.1-.1-.02-.01-.02.01-.03.01l-.05-.03h-.03c-.06-.03-.05-.05-.06-.05-.06-.05-.04-.01-.06-.02l-.24-.14.06.02c-.03-.03-.07-.03-.06-.05-.02.03-.07-.03-.09-.04h-.02l-.13-.08c-.1-.04.11.1.13.12-.04-.02-.23-.13-.15-.06l.05.01c.05.03 0 .02.01.02l.05.02s-.02 0 .03.03c-.03 0-.16-.09-.18-.1 0 0 .02.05-.08-.04l-.2-.1c.01 0 .05 0 0-.02-.02-.01 0 .01-.01.01-.03 0-.44-.25-.53-.3l-.11-.05-.18-.1c-.02-.02-.01 0-.02 0-.02-.02 0-.02 0-.02l-.33-.19c.03.03.22.1.22.1a.22.22 0 0 0-.05-.03c-.01-.02-.08-.03-.1-.04 0 0 .02-.01-.03-.04-.02-.01-.07-.03-.1-.06-.07-.03-.4-.24-.43-.24 0 0 .05.04.01.02-.04-.01 0-.02-.04-.05a4.22 4.22 0 0 0-.15-.08c-.05 0 .07.07.06.07a.85.85 0 0 1-.1-.06c-.01 0 .08.03-.02-.02l.03.03-.06-.05c-.03-.02-.08-.02-.12-.08h.02c-.02-.03-.05-.01-.07-.05 0 0 .07.02-.04-.04l.02.02a1.6 1.6 0 0 1-.14-.07c-.04-.03 0-.02-.04-.04.01.03-.12-.04-.1-.05-.03 0-.13-.07-.19-.1l-.11-.05-.02-.04a.42.42 0 0 1-.14-.08s-.02-.04 0-.03c.05 0 .1.06.11.05.01-.01-.09-.06-.11-.07-.12-.08-.04-.05-.04-.06l-.07-.05h.04l-.03-.05c.02 0 .07.05.08.05.05.02 0-.04-.02-.05h.02c-.06-.06-.03.01-.07-.02-.04-.02.02 0 .01 0l-.05-.04s.14.04.14.02l-.13-.06.07.03-.02-.02s.05 0 .02-.02l-.08-.04c.16.07.06 0 .06 0 0-.01.07.01-.02-.03.01-.03 0-.01.04 0 .03.01-.03-.04.08.03 0-.02-.1-.06-.1-.07h.01c-.07-.08-.02-.03-.03-.06 0 0-.08-.05-.02-.02.12.06.15.1.2.07a.62.62 0 0 0-.22-.1c-.04-.03 0-.01 0-.02l-.03-.02c-.01-.04.15.08.2.1l-.03-.03.06.03c-.1-.06 0 0 .03-.01 0 0-.06-.03.02 0l-.08-.05.16.05c-.14-.09-.07 0-.2-.1-.02 0 .04.03.04.03-.03 0-.06-.03-.13-.04 0 0 .02.03-.03 0a.24.24 0 0 1-.03-.03l.04.01-.03-.02.03.01c0-.01-.13-.1.04 0-.15-.07-.02 0 .03.02l.05.01.07.04s-.06-.05.05.02c-.05-.05-.16-.1-.22-.14-.1-.08.1.02.12.03l.13.07c.02 0-.04-.03-.04-.04 0 0 .14.07.07.02-.05-.03-.15-.06-.16-.1l.23.13-.11-.1c.09.05.15.1.24.13-.18-.13.08.02.08.02l-.07-.08c.07.03.28.14.17.05a.2.2 0 0 0 .08.03c0-.02-.12-.07-.1-.07.03 0 .06.03.09.05.18.09.16 0 .33.1h-.01l.56.32a2.46 2.46 0 0 1 .49.25c.01.01-.06-.03-.03 0 0 0 .16.1.16.08l-.09-.04c-.05-.06.43.23.46.24L22.05 2l.1.06Zm-1.89.02-.1-.05c-.03-.02-.12-.01-.07-.04l.17.09Zm.81.47c-.03-.02.01-.03.04 0 0 0 .01.04-.04 0Zm-.38-.23.03.02c.02.03-.07-.03-.03-.02Zm1.9 1.06c-.04-.02-.02.02 0 .02v-.02Zm-.03-.02c-.02-.03-.1-.03-.05 0a.35.35 0 0 0 .05 0Zm-1.61-.9.06.04-.06-.03Zm.98.56a.61.61 0 0 0-.15-.08l.15.08Zm.34.19-.05-.03.05.03Zm.68.39s-.01-.05.06.02h-.03a.13.13 0 0 0 .02 0 .65.65 0 0 1-.09-.04c0-.02.04.02.04.02Zm.37.18a.26.26 0 0 1 .07.04s-.01.01.01.02 0-.02.03 0c.04.03-.02.01-.01.01 0 0 .06.03.05.04l-.07-.04h-.04v-.03s-.07-.04-.04-.04ZM23 3.63a.06.06 0 0 1-.01 0Zm-2.63-1.5c.01.02-.05 0-.07-.03l.07.03Zm2.67 1.5c.06.05.01.03-.04 0h.04Zm-1.61-.9Zm.13.08c.05.01-.05-.04-.05-.03a.27.27 0 0 0 .05.03Zm1.07.6s.08 0-.03-.02c.05.03 0 0 0 0l.1.07c.02 0-.06-.04-.07-.05Zm1.32.76-.08-.04.08.04ZM21.39 7c.18-.07.22-.04.05 0h-.05Zm1.56-.54c.02.01-.03.03-.07.04-.01 0-.05 0-.01-.02 0 .02.06 0 .08-.02Zm.13-2.81.1.05a.32.32 0 0 1-.1-.05ZM22 6.82c.02 0 .03-.03.02-.03-.01 0-.04.03-.02.03Zm.92-3.27s.07.03.06.04l-.06-.04Zm.98.58.06.03-.06-.03ZM22.3 6.7a.22.22 0 0 0 .06-.03l-.06.03Zm-3.2 1.14a.27.27 0 0 1 .09-.05l-.1.05Zm2.73-.96c-.06.01 0 0 0 0-.04 0-.13.03-.06.02l.06-.02Zm.05 0c0-.01.04-.04 0-.03 0 0-.03.03 0 .02Zm-2.37.79-.18.07h-.01c0 .01-.05.03-.06.02l.06-.02.19-.07Zm.38-.13c-.05.04-.07.01-.06 0 .05-.03.02.01.02.01s.05-.03.04-.01Zm-.3.1-.05.02c-.05 0 .09-.04.05-.02Zm4.01-3.72c.03.02 0 .01-.02 0 0 0 0-.02.02 0Zm-1.7 2.94c.01 0 .13-.03.18-.06l-.03.01c.02 0 .03 0 .02-.01a.35.35 0 0 1-.02 0h.03c-.06.02-.22.06-.17.06Zm1.48-.52c-.04.01 0-.02.02-.02l-.02.02Zm-.54-2.85c-.04-.01-.01-.04.01-.01Zm.26 2.94c.12-.05.1 0-.06.04h.01c-.18.05-.01 0 .03-.03l.02-.01Zm.46-.15c.13 0-.1.05-.16.07.06-.03.14-.06.02-.04.16-.05.1-.02.1-.02l.04-.01Zm-.3.1-.08.02c.02-.02.12-.04.08-.02ZM20.27 7.4c0 .01 0 .02-.05.03l.05-.03Zm-.03-5.38c-.02-.02-.07-.05-.06-.03a.26.26 0 0 0 .06.03Zm2.22 4.64s.16-.05.1-.04l-.1.04Zm-.77.28a.5.5 0 0 0 .07-.03l-.07.03Zm-1.57-5a.34.34 0 0 0-.07-.04l.07.03Zm3.6 2.03v.01c.01 0 .13.07.08.06a5.6 5.6 0 0 1-.2-.12c0-.02.06.03.08.04h.03Zm-3.65 3.5a.48.48 0 0 1-.16.07l.16-.06Zm.08-.02c.02 0 0 .01-.03.02a.34.34 0 0 1-.04.01l.04-.02a.33.33 0 0 1 .03 0Zm1.84-.58h-.02l.05-.03a.14.14 0 0 0-.05 0l-.01.02-.15.04s.03 0 0 .01l-.1.02c-.08.07-.16.06-.29.11l.11-.02.4-.13.03-.01h.03Zm-1.73-4.86-.08-.05c0 .02.06.04.08.05Zm.57 5.23.07-.03-.07.03Zm3.53-2.88.03.02c.03.03-.07-.03-.03-.02Zm.73.48c.03.01.05.03.05.04l-.05-.04Zm.4.46c.02 0 0 .03-.01.04 0 0 .01-.05.02-.04Zm-5.2 2.14c-.04.01-.03.03-.06.03 0 0-.04-.03.02-.04.01 0-.02.03.05 0Zm2.72-.96-.08.03.08-.03Zm-3.02-4.63c-.02-.03-.12-.07-.1-.05l.1.05Zm3.22 1.83c.05.01-.03-.04-.06-.04l.06.04Zm2.32 1.56c-.02.01-.01 0 0 0Zm-.66-.57c.02 0 .1.07.12.09-.03 0-.15-.1-.12-.1Zm-4.37 2.7a.93.93 0 0 1-.1.02.32.32 0 0 1 .1-.03Zm5.02-2.1ZM21.3 7.1c.03 0 .02-.01.02-.01l-.02.01Zm-1.05-5.12-.08-.05a.3.3 0 0 0 .08.05Zm3.44 4.28c.04 0-.1.06-.13.06a.78.78 0 0 1 .13-.06Zm-.58-2.67-.05-.02.05.02Zm.37 2.76h-.04.04Zm-1.28.46s.09-.04.05-.04c-.03 0-.03.02-.03.02s-.15.04-.02.02Zm2.3-.86c-.02.02-.06.03-.09.04a.29.29 0 0 1 .1-.04Zm-1.17-2.23s-.2-.12-.1-.05l.1.05ZM20.3 7.44a.27.27 0 0 1 .03 0h-.03Zm.57-.19c-.01.01.04 0 .06-.02l-.06.02ZM24.4 6l-.07.03A.18.18 0 0 1 24.4 6Zm1.07-.62-.04.05-.04.04c-.05.04.2-.22.07-.05l.01-.03Zm-.73-.81c-.01-.02-.07-.05-.06-.03l.06.03Zm.67.47a.16.16 0 0 0-.05-.03l.05.03Zm-.8-.57h-.04c.01 0 .05.02.04 0Zm-4.2 2.97a.25.25 0 0 0 .1-.05h.02c.02 0 .53-.17.18-.07l-.04.02h-.01a.58.58 0 0 0-.16.05c-.03 0-.1.05-.09.05Zm5.07-2.34-.03-.02c.01.01.04.04.03.02Zm-2.15-1.4c-.02-.02-.08-.05-.07-.03l.07.03Zm1.9 1.19c.1.09.02.02.04.02l-.04-.02Zm-5.47 2.75c.02 0 0 .02-.03.02 0 0 .01-.02.03-.02Zm-.99.4c.03.01-.07.04-.04.02a.53.53 0 0 1 .04-.01Zm.69-.27c0-.02.02-.02.06-.04l-.06.04Zm5.98-2.34Zm-.95-1.03c0-.02-.05-.05-.04-.03l.04.03Zm-3.99 3v-.01Zm4.22-2.86.07.05c.04 0-.04-.04-.07-.05ZM22.9 3.43s.01.03.03.03l-.03-.03Zm-3.58 4.4c-.02 0-.05.02-.06.01.02 0 .06-.02.07-.01Zm-.5.21a.53.53 0 0 1 .12-.06l-.12.06Zm1.53-.58.06-.02c-.02-.01-.07.02-.05.02ZM23 3.5c.03 0-.02-.04-.05-.04-.02 0 .04.04.05.04Zm1.38.8c-.04-.01.03.04.05.04-.02 0-.04-.03-.06-.04Zm1 .66c-.07-.08-.06 0-.04 0a.15.15 0 0 0 .03 0Zm-5.6-3.3c-.02 0 .02.04.03.04l-.04-.04Zm5.29 4.05h.01a.07.07 0 0 1-.01 0Zm-.96-1.6c.05.07.06.04.07.04 0 .01.03.04.06.05l-.1-.04a2.9 2.9 0 0 0 .22.14l-.05-.04v-.03l-.2-.13Zm1.08.72.02.03h.02a4.32 4.32 0 0 0-.04-.03Zm-1.22-.77c-.01-.02.08.03.08.04l-.08-.04Zm.74.45a.31.31 0 0 0-.07-.04l.06.04Zm.53.35c.02.02.05.06.05.04a7.7 7.7 0 0 0-.05-.04Zm-2.15-1.34c-.03-.04-.02 0 .01.02.02 0 0-.01 0-.02Zm-.13-.1-.12-.06.08.05s-.02 0 .02.02h.02Zm.1.07c-.03-.04-.06-.02-.02 0h.02Zm.18.1a.26.26 0 0 0-.08-.04l.1.06c.02 0 0 0-.02-.02Zm-4.67 4.64c.04 0-.05.04-.05.04l.05-.04Zm1.06-6.96-.03-.03.05.06c.03 0-.01-.02-.02-.03Zm-.05-.1s0-.04.03 0c.02.03-.13-.04-.15-.07l.12.06Zm-.2-.26.07.03c.03.03-.06-.01-.06-.03Zm.18.1c-.02-.02.04.01.05.03L19.55 1Zm-.45 7.45c.04 0 .05-.05 0-.02v.02Zm.35-7.54L19.4.89l.06.03Zm-.3 7.57c.04 0 0-.04 0-.04a.33.33 0 0 0-.1.06c.1-.05.07-.02.1-.02Zm.16-.1c.03-.02-.06 0-.07.03l.07-.03Zm.23-.08a.32.32 0 0 0 .08-.04l-.08.04Zm.05 0c.03 0 .03-.03 0 0Zm.17-.05c.03 0 .04-.04 0-.02v.02Zm-.55.26c.03 0 .06-.04 0-.02l.06-.04c-.08.03-.07.05-.1.06-.02.01-.03-.01-.03-.02l-.2.1.22-.07.04-.02h.01Zm.78-.35c.06 0 .02-.02-.02 0H20ZM19.41.8c.07.05 0 .03.18.1-.08-.02-.01 0-.03 0-.01 0-.05-.02-.03 0l-.16-.1s.02-.02.04 0Zm.15 7.58c.04.03.02-.03.07-.02.04-.06-.14.06-.18.04.21-.09-.15.02.02.01-.13.03-.04.02-.05.04-.02.01-.1.03-.08.04l.12-.05c-.05-.01.04-.04.07-.03l.03-.03Zm-.24.07a.43.43 0 0 0 .08-.04l-.08.04Zm-.4.18c.03-.01.09-.03.1-.05l-.1.05Zm1.7-.64c.03-.03-.1.02-.06.01l.05-.01Zm-.97.35c.05 0 .02-.03 0-.01-.01 0 0 0 0 0ZM19.47.83l.14.07a.44.44 0 0 1-.14-.07Zm-.6 7.86c.08 0 .16-.07.17-.08v.02a3.31 3.31 0 0 0 .11-.05s-.02-.01 0-.03c-.04.03-.23.1-.24.1 0 .01.06 0-.03.04Zm.2-.08c-.04 0 .04-.03.05-.04.04 0-.05.03-.06.04Zm.17-.07.08-.04c-.04 0-.1.04-.08.04Zm.81-.33.08-.03-.08.03ZM19.88.98l.06.03a.28.28 0 0 1-.06-.03Zm-.2 7.42Zm-.48.21-.04.02-.08.02c.05-.02.15-.08.11-.04Zm.89-.36c.07-.03-.08.01-.06.02a.67.67 0 0 0 .06-.02Zm-.42.17-.29.11.1-.04c.02 0 .01-.01.01-.01h.02c.01 0 .17-.08.16-.06Zm-.48.2a1.4 1.4 0 0 1-.16.08c-.05 0 .14-.07.16-.07Zm.5-.2c-.02.03-.14.06-.06.02 0 0 .04 0 .06-.02Zm.4-.15a.43.43 0 0 0 .08-.03l-.09.03Zm-.04.04s-.02 0 .02-.02c0 0 .01.01.06-.01a.06.06 0 0 0 .02-.02c-.06 0-.2.1-.1.05Zm-.86.33s0 .02-.03.02l.03-.02Zm1.16-.45h.01a.9.9 0 0 0 .1-.03.6.6 0 0 0-.11.03ZM19.99.95c.04.02 0 .02.01.02.08.05.06.02.08.03.03.01.01.03.06.05-.08-.03 0 0-.01 0 0 .04-.1-.06-.14-.08l.02.03c-.05-.02-.16-.14-.02-.05Zm-.84 7.72c-.01.01-.15.07-.12.04 0 0 .14-.07.12-.04Zm6.8-2.7.06-.05-.07.05Zm.37-.88c-.02-.08-.08-.15-.05-.05l.05.05Zm-2.56 1.97c.05 0 .04-.02 0 0Zm1.68-.7.05-.04c-.02 0-.08.04-.05.03Zm-1.7.71c.03-.01-.02-.01-.04.02l.05-.02ZM19.8 8.44c.01-.02.07-.04.1-.05l-.1.05Zm6.5-2.99c0-.08-.04.08-.03.07a.7.7 0 0 0 .02-.07Zm-3.91 2.11h-.03l-.03.01c-.01 0-.02 0 0 .01l.03-.01a.43.43 0 0 0 .03-.01Zm-.43.14c.03 0 .12-.04.08-.03a.26.26 0 0 0-.08.03ZM20.08 1c0-.02.06.01.07.02 0 0-.06 0-.07-.03Zm3.97 5.97.09-.04c-.03 0-.1.03-.1.04Zm2.11-1.22c.05-.04.09-.14.06-.12-.05.1.03 0-.06.12Zm-2.55 1.39.02-.03c-.02 0-.04.03-.02.03Zm1.36-.54.05-.02-.05.02Zm-4.44 1.58c.03 0-.05.03-.07.03l.07-.03Zm2.58-.87s.08-.03.05-.03a.17.17 0 0 0-.05.03Zm-.86.33c.05-.04-.2.04-.13.03a2.6 2.6 0 0 0 .13-.04Zm-.42.13s.01.03-.03.03v-.02l-.1.03v.02s-.06 0-.09.02l-.07.03-.06.02c-.14.04-.35.12-.47.14l.29-.1c-.02.03.14-.07.04 0 .05-.03.45-.17.49-.17Zm4.4-2.97a.58.58 0 0 0-.1-.15.05.05 0 0 0-.02-.01l.01.01.1.15Zm-.1 1.1c-.01 0 0 .04-.08.1-.03.02 0 0-.01 0 0 0-.07.05-.03 0 .08-.09.02 0 .06-.04a.68.68 0 0 0 .07-.1l-.03.03c-.01.02-.01 0-.02 0 0 .02-.11.15-.14.15a3.99 3.99 0 0 0 .19-.22h.03a2.13 2.13 0 0 0 .08-.14l.05-.1a.57.57 0 0 1-.04.1c.02 0-.14.23-.1.18-.04.07 0-.02-.03.03Zm-.23.24.01-.02c-.09.08-.19.14-.29.2-.03.02.01.01-.02.03-.03.01-.07.02-.05 0l.08-.04c.08-.05.05-.05.06-.05l.09-.06.19-.15c-.05.05 0 .04-.07.09Zm-3.16 1.33-.07.03.07-.03Zm-.36-5.26c-.03 0 .09.07.06.05a.78.78 0 0 0-.06-.05Zm.51.3-.04-.02a.26.26 0 0 0 .04.03Zm1.9 4.23a.88.88 0 0 1-.06.02c-.04 0 .12-.05.05-.02Zm-1.26-3.87c-.06-.03.1.07.06.03a1.79 1.79 0 0 0-.06-.03Zm.23.13-.08-.05s.06.05.08.05Zm-.15 4.19-.1.04c-.02-.01.07-.03.1-.04Zm.53-.18c-.35.14-.28.08.02-.01l-.02.01Zm-.45.16.07-.03-.07.03Zm-1.44-5.05c.02 0 .1.06.09.06a.47.47 0 0 1-.1-.06Zm2.5 4.65-.1.05c-.03 0 .1-.05.1-.05Zm-1.63.6-.1.04c.01-.02.07-.03.1-.04Zm.24-.08a1.07 1.07 0 0 1-.05.02c-.04 0 .1-.04.05-.02ZM19.98.83l.04.02c.02.03-.07-.03-.04-.02Z"/>
</svg>
