<svg xmlns="http://www.w3.org/2000/svg" fill="#E6775C" viewBox="0 0 207 14">
  <path d="M14.3 9.1a20.08 20.08 0 0 0 0-.01Zm22.95-6.25a24.06 24.06 0 0 0-.04-.7c.03.68.03 1.52.04 2.1 0 .1-.03-.15-.02.07 0 .23.02.18.03.5 0 .2.1 1.54.12 1.52.07.1.13.15.17.18.77.5 3.27-.97 4.99-2.02-1.9 1.17.03.03.56-.32.13-.07.05-.11 2.06-1.28 1.31-.7.07-.04 2.36-1.15-1.67.74-.35 0 1.13-.45a4.65 4.65 0 0 1 .39-.1c.14-.02.9-.2 1.78.08.88.25 1.59.94 1.91 1.35.24.28.56.72.77 1.12.15.27.24.49.42.9.81 1.87 1.14 3.98 1.7 5.46-.24-.5-.06.01.02.11.12.14.04.04.04.06-.06-.03.11.11-.05-.05-.03-.03-.11-.19-.02 0-.05.19.42.04 1.17-.44l.55-.36c-.77.5.97-.73 1.29-.96-.11.12 3.92-3.23 4.69-3.86.22-.1-.9.44.9-.52.3-.08.68-.16 1.18-.16.36 0 .22.02.41.03.1 0 .8.04 1.43.34.15.16-1.02-.66 1.73 1.03C68.1 4.51 72.21 8 72.9 8.5a21.43 21.43 0 0 1-.43-.35c.72.57.87.63 1.03.75.67.47 1.64 1 2.33 1.24.57.2.75.22 1.14.3l.7.15a26.63 26.63 0 0 1-.7-.16l-.03-.01h.03a23.53 23.53 0 0 0 2.62.43c.22.02-.1 0 .26.04.04 0-.02-.02.54.01 1.15.05.97.05 1.45.04l.71-.05c2.6-.3 0 .04-.1.02-.14 0 .77.09-1.48.08l.92.03c.08.01 1.38-.09 1.45-.11.63-.1.07-.04.2-.06.1 0 1.64-.27 1.96-.46.73-.17-.38.23-1.62.43-.17.05 1.18-.2 1.24-.24 1.7-.5.75-.27 1.1-.42.19-.08.87-.32.24-.11 1.47-.62.59-.23.68-.26.15-.05.65-.31.71-.34.1-.05-.22.13.15-.06.06-.03.64-.36-.13.03 1.01-.53.92-.53 1.28-.7.67-.5.55-.27.85-.44.91-.46.74-.37.76-.4a1.55 1.55 0 0 1 .08-.03c.26-.08 1.22-.3 2.16.1.93.39 1.46 1.1 1.66 1.35-.06-.21-1.82-1.7-2.5-1.56-.87 0-.26-.06.4.1.68.18 1.24.64.7.33.47.24.84.56 1.15.9.45.64-.12-.22.95 1.44.2.26-.75-1.18-.55-.9.15.17.73 1.14.74 1.13.03.03-.5-.83-.41-.7.1.13.64 1.08.86 1.3.12.12 0 .03.01.05.04 0 .09.16-.27-.35.19.32.38.45.24.4.18.05.36.1.6.12.34-.05-1.59-.04 1.33-.15.06.06-1.18.14-1.2.1-.05 0 .17.07.2.08.14.26 3.22-.79 3.8-1.36-.24.18 2.1-1.6 2.32-1.89.06-.06-.2.14-.13.08l2.17-2 .64-.58c.36-.26.07-.04.32-.2.1-.04.17-.18.7-.28 1.35-.24 2.77 1.02 2.8 1 .03.02-.27-.22.15.07.05 0 .1.21 1.1.65.12.04.2.05.25.05.12 0 .08 0 0-.01-.18.01-.88-.4-.55-.24.31.19.46.2.55.21.13.01.2 0 .33-.01.07 0 .79-.06 1.62-.29a12.17 12.17 0 0 0 .42-.1c.24-.06.05.03.56-.12.11-.04.52-.22-.8.19-.12 0 .52-.16.81-.25.05-.02.21-.11.6-.2.09-.03-.86.42 1.67-.51.08-.03-.21.05-.13.02l.78-.26c.07-.03-.25.06-.16.03.44-.17 1.05-.32.12 0l.94-.3c-.34.07.49-.18.92-.34 2.75-.98.9-.36 1.37-.54.75-.3.2 0 1.32-.43.1-.04-1.28.4 1.41-.51l-1.19.42c.25-.04 1.43-.5 1.52-.54 1.06-.37.35-.1 1.91-.67l.33-.1.5-.15c.77-.17.2-.1-.5.13l-1.31.43c-.02 0 .6-.22 1.3-.45a6.7 6.7 0 0 1 2.27-.34c.56-.02-1.73.11-1.28.13a7.1 7.1 0 0 1 2.94.15 10.7 10.7 0 0 1 3.11 1.5c.94.65 1.27 1.04 1.33.99.2.25.44.4.55.49 1.27 1.14 1.26 1.18 2.29 2.11l.46.42c.04.02-.01-.03.17.08.01.01.16.05-.03 0 .7.16 2.42-.14 2.57-.18.18-.02-1.02.2-.8.18.86-.14 1.7-.39 2.6-.68.36-.13.18-.05.33-.1.07-.02 1.34-.5 1.28-.5a39.07 39.07 0 0 1-2.23.75c3.48-1.02 6.7-3.1 10.9-3.44l.29.01a2.45 2.45 0 0 0-.29 0c-2.44.13-4.68 1.12-6.76 1.92-.3.12-1.28.5-1.15.48 1.8-.7 4.05-1.69 6-2.11.06-.02-.16.05.07 0 .34-.08 1.27-.25 1.84-.26.23 0 .4.02.49.04.02 0-.25-.04-.49-.02-.18 0-.34.03-.2.03h.2c.68.02 1 .09 1.53.43.51.21 1.78 2.1 2.27 2.23.12.05.23.09.31.1.23.06-.02 0-.3-.12-.27-.1-.82-.74-.73-.67.28.3.55.55.75.64.89.4 2.3.3 3.52.13.03 0-.23.01.14-.05.64-.1.81-.11 1.12-.17.34-.06 1.54-.33 1.7-.37l-.25.1c-.52.13-.71.13-.76.14l-.51.12c-.27.06-.42.07-.77.13-.24.05 0 .03-.24.07-.09.02-1.02.1-1.1.15-.03.25 7.57-1.63 8.31-1.98-.64.2-1.3.39-1.94.57 1.31-.37 2.88-.9 3.01-.88 1.67-.53 3.33-1.09 5-1.65 3.7-1.38 5.89 3.11 6.9 4.19a3 3 0 0 0 1.5.25c.77-.1.35.08 1.65-.35-.34.11-.68.2-1.02.26.68.02 3.6-1.52 4.05-1.87.06-.04.12-.12.85-.57.64-.41.78-.46 1.15-.66.31-.17.71-.37.83-.4.1-.04.12-.04.36-.1.86-.12.12-.23 1.14.03l.06.04a2.28 2.28 0 0 0-.06-.03 1.44 1.44 0 0 0-.74-.1c.2-.02.46-.01.73.1.68.34 1.15.75.27.19-.2-.1-.02-.03-.16-.1a3.85 3.85 0 0 0-.12-.06c-2.1-.2-2.16.6-2.6.68-.31.2-.35.22-.21.14.38-.06.85-1.06 2.8-.8.36.15.67.36.91.55.56.34 2.13 2.53 2.18 2.52.07.08-.22-.21.13.2.02.02.22.24.48.44.7.7 1.8.43 1.12.51a1.8 1.8 0 0 1-1.13-.5 4.1 4.1 0 0 1-.01.02c.74.76 1.83.4 2.05.34.88-.21-1.69.43.3-.04l.34-.11c1-.4-.2.05.35-.19a17.8 17.8 0 0 0 2.05-1c.6-.32.26-.12.33-.15l1.63-.9c.05-.03-.08.07-.03.05l1.27-.73c.03-.02-.25.12-.15.05l1.28-.74c.08-.06-1.27.72-1.05.57l1.28-.75.77-.45-.78.44-.15.09a.61.61 0 0 1 .15-.1c.34-.23 1.18-.68.82-.45.28-.17.08-.07.23-.17l.55-.3-.35.16c.12-.1 1.5-.74 1.64-.74.34-.11-.84.33-.91.4-.03 0 .98-.37 1-.35.06-.01-1.05.4-.9.39.25-.12.54-.23.81-.31-.92.32-2.2 1.06-2.85 1.44a8.6 8.6 0 0 0-.3.18l.3-.17a11.7 11.7 0 0 1 2.57-1.24c0 .02-.62.31-.6.31.1-.03 1-.42 1.03-.41l.04-.01a16 16 0 0 0-1.3.58c-.1.06.45-.15.46-.14-.02 0-.87.44-.57.31.29-.13 1.06-.47 1.1-.47.14-.07-1.2.55-1.21.59-.03 0 .68-.32.7-.32.02 0-.5.27-.7.4-.14.08.3-.14.23-.1-.06.03-1.25.67-1.3.71-.08.05.2-.09.16-.06l-.38.22c.04-.02 1.54-.78 1.55-.75-.01.03-1.61.82-.1.13l.38-.2c.23-.08-.92.5.5-.18-2.6 1.33-.31.19-.68.42l-1.14.64c.11-.03.42-.22.53-.27.06-.03-.81.48-.6.38l1.08-.58c.39-.18-.07.07.02.04l.65-.31-.9.5c-.12.07.35-.17.26-.12-.5.28-1.62.85-.53.33l.47-.25c.26-.11-.47.28-.6.37-.2.14.84-.44-.03.05.67-.34 1.03-.56 1.8-.88-2.13 1-2.83 1.55-.48.3-.75.37-.65.38-.87.5-.14.06-1.24.64-.7.44.07-.03.72-.4.52-.27l-.75.42a.23.23 0 0 0 .01.01l.72-.4c0 .02-.28.18-.7.43-1.15.66-3.37 1.9-3.87 2.17-.78.44-1.48.84-1.66.92-.59.29-.11.03-.25.09-.09.04-.83.41-1.4.63-.3.12-.55.2-.58.2-.38.1 0-.03-.05-.02-.21.16-2.49.4-3.27-.55a4.81 4.81 0 0 1-.59-.52 4.47 4.47 0 0 0 .56.55 3.67 3.67 0 0 1-.14-.1c-.88-.75-.78-.87-.81-.9-.88-1.05-1.54-2.14-2.49-2.55-1.86.47-4.93 3.62-8.53 3.82.14.22 3.24-.77 3.24-.89.45-.11-3.62 1.7-5.27.53-.35-.18-.43-.31-.5-.38.11.12.24.25.5.39.37.17.76.3 1.16.36-.3-.03-.73-.12-1.17-.33-1.25-.9-1.41-1.73-1.96-2.33-.22-.28.18.27.16.26-.25-.32-.63-.8-.32-.46-.62-.71-.52-.63-1.03-1.08-.02-.02.2.16-.23-.15-.19-.21-1.31-.59-1.48-.5-.06 0 .5.12.59.1 1.17.52.4.13.84.38.06.08-.06-.15.97.91-.21-.24-1.44-1.27-1.7-1.24-.46-.25 1.43.8 1.72 1.3-.18-.13.12.13.47.6.38.53.2.3.4.6.6.83.32.45.93 1.22-.23-.39-.24-.13.62.43.59.31 1.5.46 1.9.46-.64 0-1.32-.12-1.93-.4-.93-.6-1-1-1.35-1.44l.1.16-.48-.68.08.1c-.82-1.1-1.03-1.28-1.1-1.37-.82-.88-1.88-1.3-2.93-.9l-.5.17c-.22.07-.06.05-1.64.56-.51.16-.04-.02-.61.17-.7.3-.7.24-.91.32l-1.04.35-2.7.84c-.02 0 .42-.1-.13.05-.19.05-1.93.48-3.46.88l1.2-.29c-.45.15-3.78.89-2.96.73.5-.08 1.7-.41 1.85-.4-.92.2-5.48 1.44-7.6.36-.4-.2-.59-.37-.66-.43-.08-.05.37.26.27.18a8.73 8.73 0 0 1-1.33-1.33c-.07-.08.34.38.32.34a7.31 7.31 0 0 0-1.16-1.18c.23.1.97.97.57.54l-.35-.36c-.54-.53 1 1.15 1.5 1.65-.86-.8-1.67-2.06-2.2-1.95a9.5 9.5 0 0 0-2.45.45c-.74.2 1.1-.33.25-.11-1.75.5-.45.16-.5.18-.43.13-1.94.58-1.92.66-.63.23-.43.14-1.32.5l.36-.12c-.97.43-3.16 1.18-3 1.1.42-.18 1.55-.59 1.64-.63.14-.05.5-.29 2.04-.82.6-.29-2.42.93-1.05.35-.9.39-4.85 1.86-5.5 1.96-.07.01.3 0-.77.2-.5.1.7-.16.47-.13-.23.02-1.42.42-3.15.24-2.17-1.04-2.86-2.43-4.26-3.44a12.36 12.36 0 0 0-2.94-1.86c-.1-.04-.06-.04-.15-.08-.3-.14-1.4-.43-1.94-.43 1.12.11-1.07-.07-1.58.22l-.2.06c-.68.22-.67.2-1.03.31-1.52.5-3.84 1.38-5.04 1.74.09.03-2.04.69-3 1.01-.75.26-1.84.65-.81.34-1.32.42-2.68.89-4.05 1.12-.23.04.09-.02-.31.03-.04 0-.08.04-.46.05a2.93 2.93 0 0 1-.36-.02c-2.65-.89-1.19-.51-1.7-.73l-.5-.37c.56.4 1.29.95 2.2 1.06.95.05 1.49-.14 1.75-.18-.2 0-.78.21-1.75.16-1.36-.2-2.2-1.12-2.59-1.32-.02-.01.07.02.05 0-.23-.22-1.27-.61-1.38-.47.02 0 .03 0 0 0h.02c.07 0 .62-.04 1.51.63-.23-.16-.07-.02-.11-.05-.37-.25-1.02-.63-1.41-.54.12-.05-.2.1-.28.19-.1.07-.07.07-.09.09-.36.3-.24.14-.58.51-.7.56 1.27-1.13.97-.84.12-.4-4.3 3.98-4.34 3.88-.02 0-.09.05-.23.15-.3.24-1.74 1.19-2.02 1.3-.05.03-.01.06-.07.09-.1.11-2.17.9-3.07.86.46 0 .92-.08 1.36-.18-2.73.44-2.36.1-1.4.23h.13a6.8 6.8 0 0 0 1.62-.29c.09.06-2.39.57-3.42.1-.73-.3-.75-.52-.5-.28.03.02.17.16.5.26.6.2 1.77.24.92.16a6 6 0 0 1-.91-.18c-.72-.26-.85-.63-.9-.65-.07-.2-.04.23.9.63.72.21 1.66.18 1.44.16-.43.01-.93-.05-1.42-.19-.7-.25-.87-.65-1.1-.93-.2-.31-.26-.37-.28-.4-.34-.55-.13-.26-.24-.44-.06-.11-.73-1.01-.56-.87-1.16-1.3-1.43-.82-1.07-.83.35.06 1.13.81 1.74 1.94-.41-.7-1.22-1.8-1.67-1.89-.16-.05-.07-.01-.33-.06a1.88 1.88 0 0 0-.76.05c-.96.46-3.6 2.05-4.39 2.22.65-.26.45-.2-.05-.02-.51.19-.07.06-.17.1-.1.1-2.55.7-2.97.7 1.87-.33 1.44-.26-.14-.02l.68-.12c-.93.2-2.9.23-3.43.2-.09 0 .22.03.17.03-.47.02-2.08-.15-2.14-.16-.06 0 .61.09.36.07l-1.34-.2c-.24-.04-.1 0-.16 0-.5-.1-.2-.06-1.08-.24h-.02a9.13 9.13 0 0 1-2.1-.68c3 1.13.41.32-.74-.33-.18-.1-.07.04-1.12-.64 2.32 1.33-.66-.4-1.15-.87-.03-.03-.03-.05-.3-.26-.01-.02 0 .02-.23-.17-2.25-1.86-.8-.68-1.22-1.05a33.46 33.46 0 0 0-1.53-1.23c-.06-.04-.03-.04-.28-.22a6.87 6.87 0 0 0-1.19-.68c-.03 0-.03-.07-.62-.24-.16-.04-.35-.06-.11 0 .76.11 2.23 1.1 3.04 1.83.76.63-1.66-1.32-1.8-1.3-.04-.02.44.26-.04-.04a3.86 3.86 0 0 0-2.35-.5c.02-.03.79-.08.68-.07-.02-.02-.5 0-.57.02l-.34-.02h-.02c-.18.08-.05.04-.2.13-.32.18-1.6 1.28-1.61 1.34l.62-.54c-1.14 1-.65.6-.8.74-.18.15-.14.09-.54.43-.07.08-1.75 1.47-1.72 1.45.93-.77.6-.47.65-.5l.57-.5c1.51-1.3.01.03.37-.27.13-.1.36-.32.41-.37.17-.14.19-.13.3-.22.25-.23-.07.01-.05-.01.22-.22 1.13-.98.6-.47.34-.28.35-.35.63-.56.54-.4-.25.23-.46.43-.76.69-1 .89-2.12 1.84l-1.09.9c-.12.1-1.35.93-1.33 1.03a22 22 0 0 1-1.17.73 16.17 16.17 0 0 1-.66.36c-.54.27-.37.21-.42.24-.05.04-.92.32-1.4.13-.44-.17-.32-.04-.8-.5a2.36 2.36 0 0 1-.13-.15c-.63-1.1-.4-.97-.47-1.1-.32-1.19-.21-.64-.3-.9-.05-.27-.9-3.5-1.25-4.05.12.25.23.5.33.76-.15-.48-.4-.93-.36-.96-.1-.07-.51-.94-.7-1.15l-.15-.17c-.32-.47-1.2-.88-1.45-.82-.53.04-.09-.04.4.12.5.13 1.03.77 1.1.88-.22-.77-2.39-1.02-1.4-.87.16.02.42.07.5.11.53.3.1.08.14.1.07.04.42.28.5.39.02.03-.16-.17.27.37-.19-.46-1.56-1.18-1.84-.96-.07.02.26-.03-.4.1l-.77.25h.06c-.97.38-1.95.93-2.92 1.5.1-.07.63-.4-.05 0-.4.24-.09.09-.13.11-.18.1-1.8 1.15-3.68 2.22-.95.51-1.97 1.05-3.09 1.25-1.12.3-2.5-.48-2.72-.96a2.92 2.92 0 0 1-.06-.1c-.58-1.13-.41-2.19-.46-2.34-.04-.66-.01-2.87-.08-3.2-.03-.22-.02-.02-.05-.2-.02-.14.02 0 .02-.04 0-.02-.07-.19.02 0-.12.21 1.22.44 1.16.2.1-.08.04-.04.01.02a26.94 26.94 0 0 1-3.14 3.95c.5-.43 2.46-2.94 2.38-2.92l-.58.75c-.17.2-.7.94-1.04 1.3-.04.04.1-.14-.5.5-.22.23-.75.82-1.35 1.35-.68.98-5.93 4.27-6.47 4.2 0 .02.81-.3.27-.07-.74.3-.09 0-.97.3-.11.1-2.66.61-2.76.56a8.9 8.9 0 0 0 1.45-.16c-.07.06-1.96.3-2.04.26-.07 0 1.48-.11-.39-.03h.64c-.87.05-.96-.01-1.17-.02-.35-.02-.72-.04-1.14-.1a5.76 5.76 0 0 1-1.3-.34c-.27-.1.19.03.16.01-.33-.12-.76-.22-1.2-.48-.03-.03 1.01.5-.8-.45l.36.22a17.9 17.9 0 0 1-2.16-1.42c-.6-.49-.06-.08-.67-.58.35.36-1.43-1.17-1.3-1.11-.27-.19-1.7-1.54-2.37-2-.45-.35-1.28-.62-1.32-.56-.1 0-.07-.04-.25 0-.02.02-.18.06-.41.33L7.4 6.39c-.13.15-.45.45-.21.15.31-.39.88-1.01 1.12-1.29.05-.06.08-.09.07-.1l-.1.09L7 6.72c-1.36 1.55-.6.63-.65.66-.1.09-.84.95-.87.99-.13.14.37-.49.37-.5 0-.03-.73.78-.58.59.22-.28.9-1.02.93-1.07.52-.64-.24.2-.46.42-.07.07.17-.23.12-.17-.8.9-.12.23-.64.84-.46.53.1-.18.09-.16l-.67.77C4.6 9.13 5.98 7.4 5.9 7.47L4.55 9.09c-.06.02.6-.73.67-.82.14-.17-.26.28-.25.25 0-.01.43-.56.02-.09-.14.16-.41.52-.93 1.1 1.73-2.1.5-.66.44-.61-.06.05.75-.96-.25.25-.1.01 0-.04.28-.39.34-.42-.49.53.82-1-.1.08-1.14 1.31-1.2 1.37-.04.06.18-.22.09-.13-1.01 1.12-.33.34-.64.66-.02.02-.95 1.11-.26.27 1.27-1.52 1.83-2.13 1.98-2.44-.97 1.09-2.07 2.5-2.35 2.84-.44.52 0-.03-.06.03l-.4.48c-.32.28 1.67-2.01 2.28-2.75l-.51.57.67-.8c-1.09 1.25-.05.04.18-.31.05-.08-.64.76.14-.2-.6.69-.42.46-.94 1.1 0-.03 1.18-1.47 1.65-2.04-1.7 1.97-.69.89-2.16 2.58-.25.34.43-.49.38-.42-.2.26-.68.8-1.2 1.52-.09.12.32-.33-.26.36l-.44.5c.03-.07.4-.51.4-.53l-.39.47c-.03 0 .33-.42.28-.36-.13.12-1.63 1.84.3-.44a17 17 0 0 0 .42-.49l.4-.52.78-.93c.17-.2-.78.88.56-.7-.7.79-1.87 2.23-2.55 3.01-1.37 1.57.88-1.15 1.12-1.43.06-.08-.17.16-.12.1.06-.08 1.36-1.6 1.48-1.77.11-.16-.48.56-.53.6-.04.02 1.52-1.83.66-.84-.59.68-1.63 2-1.84 2.18.85-1.03 1.7-2.05 2.57-3.06a258.25 258.25 0 0 0-1.46 1.63c.96-1.15 1.81-2.11 2.73-3.2-1.66 1.84-.55.55.2-.31.34-.4.78-.63.8-.63 0-.02-.5.23-.83.6l-.51.55c.13-.15.3-.34.48-.57.52-.82 2.16-1.03 2.7-.72.57.24.77.25-.29-.14.52.11 1.43.65 1.4.64.06-.21-2.46-.96-2.1-.78a3.3 3.3 0 0 1 1.83.57c2.67 1.88 1.93 1.36 4.2 3.3a29.79 29.79 0 0 1-.12-.12c1.55 1.33 3.23 2.52 5.03 2.8a9.8 9.8 0 0 0 3.2-.05c1.2-.15 4.14-1.47 5.42-2.46.27-.17 1.54-1.14 1.62-1.23.18-.13-.77.65-.33.31a24.63 24.63 0 0 0 .92-.8c-.63.58 2.9-2.76 4.1-4.85.28-.13-.16-.78 1.55-.66.98.74.6.84.73 1.03.06.33.07.48.08.55-.02-.23-.02-.44-.11-.78.2.86.15 1.32.17 1.9Zm-21 7.55c-.32-.16-1.04-.67-1.44-.97-.57-.42-1.52-1.12-1.08-.86.78.65 1.6 1.28 2.52 1.83Zm14.4-2.23c-.55.42-.15.05.3-.29.05-.04.45-.28-.3.3Zm-6.49 3.31Zm23.29-7.71c-.63.32-.15.12.22-.08l-.22.08Zm-.45.22c-.5.22-1.42.85-.66.4.07-.04.69-.4.66-.4ZM28.63 9.58c.06-.06.66-.44.91-.61 0 .02-.66.45-.91.6Zm7.4-1.96s-.08-.08-.2-.26c-.59-1.18-.38-2.56-.45-2.75.06.36-.14 1.62.45 2.76.1.16.19.25.2.25Zm6.7-1.08-.75.45c.37-.19.99-.58.75-.45Zm9.07-1.99c.01.05-.15-.5.38.7.07.19-.24-.44-.21-.37l.14.32a8.06 8.06 0 0 0-.31-.65Zm1.99 5.86c.04.08.11.41.43.87.18.27.51.53.67.6.08 0-.25 0 .55.2.59 0-.2.05.8-.1.82-.25-.27.13-.24.08.2.03 1.3-.49 1.25-.46 0 .01-1.13.63-1.8.49-.65-.18.05.2-.92-.38-.45-.43-.16-.22-.25-.3l-.08-.11c-.36-.47-.57-1.3-.41-.89Zm-1.61-5.06a11.34 11.34 0 0 1-.07-.15l.07.15ZM18.14 11.3Zm34.29-5.4c.3.9.08.22-.25-.54.1.24.14.24.25.54ZM35.1 3.6l.06-.05c-.08.1-.08.1-.06.05Zm1.35-1.87c-.67.4.26-.22-.06.06l-.34.53.35-.52.05-.07Zm11.8 1.68c-.07.02.88-.46-.52.2.76-.33-.03.03-.02.04.04-.01 1.04-.47 1.46-.56a1.89 1.89 0 0 1 .1-.03 10.28 10.28 0 0 0-1.03.35Zm15.88 2.81c-.13.13-.6.53-.93.82.14-.15.62-.57.93-.82Zm101.23 1.05c-2.88.82-3.28.83-.62.15l.62-.15Zm-23.6 1.86c-.28.06.62-.24 1.2-.45.14-.04.63-.2.08.02 0-.04-.86.26-1.28.43ZM52.63 6.39c.1.25.35 1.1.46 1.55l-.46-1.55ZM155.3 8.5a8.08 8.08 0 0 1-.39-.15l-.2-.08.2.1c.31.15.74.25.4.13ZM51.51 3.99Zm12.02 2.73c-.15.12.56-.52.77-.66 0 .02-.68.58-.77.66Zm88.11-.88c-.24 0-.87.1-.94.13l.94-.13Zm46.03 3.14a6.47 6.47 0 0 1-1.6.56c-.74.12.4-.07 1.06-.35.3-.1.53-.2.54-.21ZM158.6 8.7c.92-.08-.1.01-.06.03.62-.05 2.13-.31 1.08-.16l-1.02.13Zm-.87.05c-.1.01-.78.05-.2.04.29 0 .71-.07.2-.04Zm33.42-2.1c-.36-.56 1.03 1.53 1.94 2.16l.2.16.1.08a4.85 4.85 0 0 0 .07.05 1.45 1.45 0 0 1-.06-.05 5 5 0 0 1-.32-.22c-.85-.6-1.86-2.12-1.93-2.17Zm-3.92 0c.75-.51.9-.53.85-.5-.82.54-.3.17-.33.18-.06.03-.64.42-.52.32Zm3.2-.82.49.53c.36.41-.93-.94-.5-.53ZM58.9 10.42c.46-.32.03.02-.28.23-.03.01-.12.05.28-.23Zm98.36-1.65c-.07-.01-1.27.05-2.32-.44-.87-.45-1.17-.95-1.14-.85.08.06.38.5 1.13.87 1.34.6 2.9.4 2.33.42Zm-22.46-.51c.41.4-.06-.01-.27-.23l.27.23ZM50.63 3.12c-.36-.15-.27-.18.04 0h-.04Zm88.94 6.56c-2.12.27-1.55.28 1.07-.3l-.24.08c2.94-.85.23 0-.53.13-.28.07-.04.03-.3.09Zm-6.94-3.38c-1.37-1.2 1.3 1 2.02 1.77-.75-.67-1.68-1.53-.42-.33-1.88-1.7-1.09-1-1.16-1.08l-.44-.36Zm3.93 3.37c.04.01.15.08.4.12a6.92 6.92 0 0 0 0 .02c-.82-.22-.86-.41-.4-.14Zm44.5-.5c.07-.03.29-.02 1.02-.13-.22.05-.7.12-1.02.12Zm-165.32.78c-.4-.25-1.12-.83-.9-.64 0 .03.89.66.9.64Zm133.51-3.67c-.09 0-2.35.81-1.56.55.24-.1 2.3-.76 1.56-.55Zm11.51 2.07Zm-146.87.17-.98-.84c.2.2 1.13.98.98.84Zm46.6.65.25-.17c.09-.05 1.7-1.43 1.1-.88-.08.1-2.48 2-2.83 2.21-.14.07.93-.68 1.18-.89.04-.03.05-.07.3-.27Zm124.14-1.02Zm-1.22.52c-.54.19.7-.27 1.04-.45.02.02-.95.44-1.04.45Zm-27.58-.12c-.29-.05.58.14.38.1-.12 0-.76-.15-.96-.23-.07-.01.59.22.77.23.27.04.02-.01.3.03.95.1 1.73.06 2.55-.03.07-.01-.5.04.13-.03.1-.01.68-.07 1.4-.2 1.6-.38 2.77-.6 4.73-1.19l-1.64.43c-1.66.43-4.67 1.14-6.63 1.02-.5-.03-.26 0-.48-.03-.17-.02.04 0-.55-.1ZM15.96 10.08c-.18-.14-.83-.57-1.22-.88.12.13.8.61 1.22.88Zm158.16-5.64c-.15 0-.54.08-.72.15a1.67 1.67 0 0 0-.1.03l.1-.02c.2-.08.69-.16.72-.16Zm-104.8 3.3Zm13 4.9c.45-.03.92-.08 1.07-.08-.29.04-1.12.1-1.07.08Zm16.84.2c-.1.03 1.24-.51 1.46-.66a9.5 9.5 0 0 1-1.46.66Zm81.79-3.76c.93-.02.72-.08 1.29-.15.09-.03.42.03-.58.15-.19 0 .53-.04-.72 0Zm-39.9.19c.21-.08.84-.27 1.25-.42-.08.05-.93.33-1.24.42Zm-129-2.4a11.77 11.77 0 0 0 0-.01Zm41.21 1.4ZM94.2 11.7Zm-16.54.59ZM177.7 7.1c.36.47.54.91 1.21 1.46-.37-.16-1.19-1.42-1.21-1.46Zm-80.51 6.1h.13a5.46 5.46 0 0 1-.13 0Zm70.1-6.65c-.46.14-.36.13-.33.13.35-.1.86-.29.33-.13ZM15.5 9.73c-.13-.12-.82-.6-1.18-.91.1.1.85.69 1.18.9Zm115.6-4.6c-.46-.34 1.48.93 1.84 1.31.03.01-1.76-1.3-1.84-1.3ZM52.68 6.2c0-.06-.37-.96-.3-.76l.3.76Zm81.15 1.06c.17.15.55.52.4.4a3.57 3.57 0 0 1-.4-.4ZM152.8 6.2c-.08-.15-.84-.54-.54-.37l.31.2c.05-.04 1.38 1.52.23.17Zm-34.07.47 1.58-.55c-.2.08-1.36.49-1.58.55ZM53.77 9.98c-.06-.16-.9-3.4-.44-1.56.02.1.51 1.93.44 1.56Zm127.17-.9a4.38 4.38 0 0 1-.41-.03l.41.03Zm-7.08-4.66c.1-.02-.2.02-.48.12a21.12 21.12 0 0 0 0 .01c.23-.08.47-.12.48-.13Zm-53.52 1.65 1.18-.41c-.06.03-1.05.38-1.18.41Zm-18.87 5.53a10.3 10.3 0 0 0 1.23-.91l.79-.65c1.52-.97-5.63 3.97-1.45 1.13l-.57.43Zm-26.3.02c-.35-.14-1.3-.57-1.05-.45.15.1 1.38.6 1.05.45Zm13.58-.8-1.01.5c.53-.2 1.45-.72 1-.5Zm-16.08-.53Zm106.3-1.8c-.48-.34-1.03-1.2-1.18-1.37a8.05 8.05 0 0 0-.2-.3c-.07-.1-1.27-1.91-2.37-2.3-1.08-.24-1.55-.58.49.3.11.08-.03-.08.45.32.03.03.03.05.13.14a15.1 15.1 0 0 1 1.5 1.88 6.1 6.1 0 0 0 1.19 1.33ZM90.42 9.86Zm-36.63 0Zm30.85 2.42c2.29-.52.55-.12.9-.22a15.08 15.08 0 0 1-.9.22Zm104.45-6.83c-.28.14.05-.08.35-.17.09-.02-.18.09-.35.17Zm13.64.73Zm-10.76 1.3c-.17-.19-.27-.32-.67-.85.61.78.05.03.68.85Zm-89.34 3.27ZM70.93 9ZM177.8 7.12c.02.03 0 .02-.03-.03l.03.03ZM74.62 11.36a9.1 9.1 0 0 0 1.2.47c.72.19-.73-.23-1.2-.47Zm-23.7-8.24.33.31c.12.1-.18-.22-.33-.31Zm143 6.06Zm8.28-2.73c-.38.24-1.27.75-1.85 1.06-.02-.02 1.5-.84 1.85-1.06Zm-22 2.49c-.04.03-1.1-.34-.96-.29.18.16 1.27.37.96.29ZM51.9 4.3c.21.33-.2-.47-.48-.72-.13-.16.47.65.49.72Zm17.17 3.1c-.43-.34.6.55.77.67l-.77-.66Zm18.17 4.07c-1.75.58-.78.32-.47.21l.47-.21ZM8.94 4.8c-.15 0 .38.04.5.09.05 0-.43-.13-.5-.09Zm99.7 2.83a47.87 47.87 0 0 1-.18-.12l.18.12ZM65.07 5.48c1.02.02.9.08 1 .07.19.04.62.2.98.39-.4-.2-.82-.34-1.23-.4.35-.2 3.02 1.6 3.07 1.73.08.05-.74-.6-.77-.61l-.21-.22c-.1-.22-2.45-1.25-2.84-.96Zm18.45 6.94.51-.05c.05-.01.05-.03.2-.06-.23.04-.47.08-.71.1ZM63.54 6.45c-.27.2.9-.78.92-.74.2-.14-.68.54-.92.74Zm10.52 4.63c-.07-.02-1.16-.66-1.15-.66.26.21 1.78 1 1.15.66Zm10.37 1.2A7.42 7.42 0 0 0 85.6 12a15.02 15.02 0 0 1-1.16.26Zm-31.89-6.8a4.9 4.9 0 0 0 .08.26c.09.19-.04-.14-.08-.26Zm-1.11-2c-.06-.32-1.66-.95-1.43-.78.1-.04 1 .33 1.03.42.05.05-.21-.16.21.21-.02-.03.23.2.19.15Zm.9 1.43c-.3-.68-.45-.77-.18-.3.1.19.21.4.17.3Zm1 2.92a15.1 15.1 0 0 0 .12.5l-.13-.5ZM206.2 4.08c-.54.22.68-.33.75-.32.16-.04-.51.2-.75.32ZM5.53 7.53c-.11.12-.2.2-.44.5l.78-.85c.16-.25-.2.2-.34.35ZM4.48 8.55c.04-.04-.2.15.28-.36.33-.34-1.3 1.63-1.62 1.98l1.34-1.62Zm-3.07 3.28Zm2-2.37Zm196.91-3.1c-.45.2-.8.5-.14.11a.9.9 0 0 0 .14-.1ZM1.98 11.06Zm198-4.61c-.6.28-.34.26-.27.22.3-.14 1.3-.73 1.5-.86-1.5.86-.96.5-1.23.64Zm-2.65 1.4c-.55.24.86-.36 1.1-.53-.26.14-.95.45-1.1.52Zm-3.17.24-.34-.24c-.29-.22-.6-.57-.69-.65a5.04 5.04 0 0 0 1.03.9Zm-.52-.44c-.33-.34-.45-.38-.05-.02.02.02.06.03.05.02Zm-1.8-2.17c-.21-.28-.54-.54-.15-.12.12.13.17.15.15.12Zm7.37 1.26c-.43.22-.95.53-.05.07a38.2 38.2 0 0 1-.94.5c1.2-.57 1.08-.6 1.42-.77.47-.25.45-.19.37-.12.37-.24 2-1.16 2.94-1.7l-3.01 1.65-.66.36c-.32.17-.05 0-.07.01Zm-11.15-2.06c-.88.48-.31.2.19-.09l-.2.09ZM1 11.93c.87-.95.28-.22 2-2.36-.7.91-.02.07-.15.25-.1.14-.55.66-.28.37l-1.03 1.2c-.2.25-.41.48-.56.64.01.27-.8-.12.45.4a.43.43 0 0 0-.03-.05c.1.28.06.25.05.1.04-.1-.37-.44-.54-.34l-.13.05.22-.26Zm193.23-3.97a1.5 1.5 0 0 0-.31-.24 1.6 1.6 0 0 1-.44-.4c-.26-.23-.01.1.42.43a2.2 2.2 0 0 0 1.57.53c-1.42-.04-.93-.07-.39.04.6.01 1.35-.2.28-.06 1.77-.32.57-.13.84-.2l.45-.16a12.97 12.97 0 0 1 0-.01c-.36.13-.7.23-1.05.3.61-.06-.68.18-.95-.05a1.65 1.65 0 0 1-.42-.18Zm3.28-.34c-.03.01-.47.21-.83.35-.3.11-.54.18-.5.18l.5-.17c.58-.2 1.38-.6.83-.36Zm5.84-3.18c-.47.27-1.21.68-1.46.85.47-.27 1.21-.69 1.46-.85ZM179.5 7.39c-.23-.25.07.13.17.17.28.13.57.2.33.11-.02 0-.17-.05-.32-.12a1.1 1.1 0 0 1-.18-.16Zm13.67-.37c-.41-.54-.26-.24.07.12l-.07-.12ZM1.68 11.13c.02-.04 1.25-1.5 1.47-1.77-.1.16-1.49 1.83-1.47 1.77Zm202.49-7.22-.52.26c-.86.47-1.74 1.03-1.86 1.1-.13.08.07-.07.04-.05l-1.63.92c-.05.03.24-.09-.07.1l3.46-1.99c.09-.05-.48.24.07-.07l.5-.27Zm-2.73 1.55c.38-.2-.66.4-.91.53-.57.3.86-.5.91-.53Zm-2.52 1.37-1.3.65c.53-.21 1.58-.79 1.3-.65Zm-11.6-1.85c-.28.17-1.04.63-1.07.67l1.07-.67ZM5.79 6.05Zm187.41.79c-.12 0-1.34-2.2-2.94-2.88-.8-.25-1.06.01-1.22.03.15-.01.43-.27 1.22-.02 1.57.67 2.77 2.83 2.89 2.84.03.03.06.05.05.03Zm6.62-.6c.3-.2.51-.29.55-.3.39-.22 1.17-.67 1.01-.55-.68.38-2.16 1.22-1.56.84Zm-12.8-1.2Zm6.45 2.1c.05.04.24.26.53.47.67.7 1.78.49 2.6.17l.45-.17a4.88 4.88 0 0 1-.44.19c-.32.12-.65.22-1.08.28-.16.03-.11.03-.13.04-.28.02-.07-.01-.24 0-.1 0-.62 0-1.17-.49-.38-.28-.64-.61-.52-.5Zm6.52-1.02 2.36-1.35A50.9 50.9 0 0 1 200 6.12Zm-6.72.75c.15.15.52.54.75.71.24.18.33.26 0 .02a2.68 2.68 0 0 1-.12-.08c-.08-.06-.4-.39-.63-.65Zm-6.14-1.94Zm.6-.41c-.02.02.27-.13-.3.2-.05.03-.16.06-.84.5l-.33.23c.69-.42 3.02-1.8 1.48-.93Zm12.29 1.56c-.12.05.14-.13.4-.25.1-.05-.09.08-.4.25Zm-16.6.94c.69-.29-1.48.56-1.6.5.08.04 1.54-.43 1.6-.5ZM6.5 5c.45-.5.18-.18.2-.2a64.45 64.45 0 0 0 .48-.54c.53-.54.37-.37.56-.53.6-.32.57-.41 1.73-.34-1.96.05-.15-.06-.12.02.23 0-1.5-.09-2.15.86-.21.23-.4.43-.51.57-.06.07.4-.43.25-.25-.5.6-2.15 2.36-.44.4Zm194.1.72c.27-.16 2.33-1.32 1.8-1a26.3 26.3 0 0 1-1.8 1Zm-98.72 3.73c.41-.35-.59.43-.78.56-.08.08.6-.4.78-.56Zm-6.65.84c-.36-.6-.9-1.2-.36-.45.06.08.4.53.36.45Zm39.22-4.58c-.53-.5-.53-.43-.12-.08.14.12.14.1.12.08Zm-25.07.6a7.54 7.54 0 0 0-.8-.5c.33.18 1.18.79.8.5Zm25.25-.45c-.33-.28.2.24.6.57l-.6-.57Zm57.85-.18c-.23-.27-.93-1.12-1.54-1.5a7.78 7.78 0 0 1 1.54 1.5Zm-95.8 5.92c-.53-.03.6.07.5.02l-.5-.02Zm58.24-5.36Zm5.33.57c-.35.07-1.77.27-1.22.2.1 0 1.19-.18 1.22-.2ZM7.77 3.69c-.33.06 1.32-.57 1.55-.37.11-.06-1.27.08-1.55.37ZM130.45 3a8.5 8.5 0 0 0-1.55-.5c.5.08 1.67.56 1.55.5Zm-31.34 8.13c-.47.2-1.27.38-1.06.37.88-.26-.12.05 1.06-.37Zm37.25-3.7c-.2-.18-.39-.32-.37-.29.22.23.57.5.37.3Zm-20.62-1.41Zm65.34 1.48c-.35 0 .73-.05 1.07-.16.16.01-1.03.2-1.07.16Zm-37.99-.66c.03-.03-1.31.47-.77.3l.77-.3Zm13.05.12Zm6.26-.69c-.16.04-.1-.05.58-.2.09-.01-.32.11-.25.1.05 0 1.5-.39 1.57-.41.07-.02-.02-.02.05-.05l1.45-.4c.89-.27.97-.32 1.04-.34.22-.07.57-.16 1-.3 1.44-.45 3.38-1.1 5.02-1.66a4.05 4.05 0 0 1 0 .02c-.78.27-1.54.54-2.35.8.43-.18-2.2.76-.67.21-.7.28-6.9 2.18-7.44 2.23ZM93.05 8.03c.5.12-1.49-.53-2.2-.13-.19.06-.3.11-.33.13l.34-.12c.62-.27 2.16.02 2.19.12Zm7.12 2.43c.16-.1.28-.2 1.09-.77.23-.17-.02.04.02.01.02 0 .74-.54.16-.08-.91.68-.1.04-.6.4-.05.05-.99.66-.93.62l.34-.2c.18-.1.1-.04.13-.05a18.47 18.47 0 0 1-.69.42c-.07.03-.06-.02-.13 0-.03.04-1.05.5-1.2.5a2.92 2.92 0 0 1-.09.03 3.9 3.9 0 0 1-.07.02l.03-.01a11.8 11.8 0 0 0 1.56-.7c.6-.35-.07.1.38-.19Zm2.77-2.17-.16.16c1.1-.9 1.65-1.93 3.72-3.12l.23-.05c.36-.03-.16-.05.57-.03.64.06 1.16.37.89.25a3.06 3.06 0 0 0-1.46-.21c-.34.05-.49.15-.62.22-1.3.92-.83.7-.93.75-.07.06-.67.6-.98.9-.78.74-1.1 1.1-2.2 2 .61-.54.25-.27.94-.87Zm46-3.7c.04-.03.95-.27 1.3-.33-.07.02-.98.22-1.3.33ZM37.45 6.44c-.16.02.66.28.45.2-.11 0-.4-.1-.45-.2Zm7-3.08a7.5 7.5 0 0 0-.71.42l.71-.42Zm74.43 1.46Zm-64.56.95Zm1.1 3.84-.32-1.17c-.02 0 .27 1.09.32 1.17Zm81.15-2.1c-.14-.12.88.67.62.53a3.47 3.47 0 0 0 0 .02c.29.13-.47-.37-.62-.55Zm-7.17-5.04c3 1.02 3.7 2.05 3.57 1.86-.2-.07-1.34-1.23-3.95-1.94 0-.02-.01-.02.37.08Zm6.3 4.2c-.16-.12-.62-.57-.95-.87.07.04.73.66.96.88ZM37.29 4.7c0 .38.12 1.74.1 1.48a9.94 9.94 0 0 1-.1-1.48Zm82.03-.05c-.13.01 1.46-.54 1.59-.57.5-.15-1.46.51-1.59.57ZM143.1 6.7c.26-.12 1.05-.42 1.55-.62-.22.1-1.13.46-1.55.62Zm-3.6 1.13ZM5.72 5.57Z"/>
</svg>
