<svg xmlns="http://www.w3.org/2000/svg" fill="none" viewBox="0 0 11.19 9.84">
  <path fill="#eccb65" d="M2.43 0h7.67v7.67H2.43Z"/>
  <path fill="#e6775c" d="m3.14 4.46.16-.07c-.04.03-.25.1-.16.07zm2.15.1a1.53 1.53 0 0 1 0-.1 1.66 1.66 0 0 0 0 .3c0 .01 0-.03 0 0l.01.08c0 .05.06.3.1.38.12.31.32.6.52.92-.22-.32 0 0 .05.1.01 0 .02 0 .09.11.04.08.09.19.12.33.04.27 0 .03.03.47 0-.34.02 0 .01.25a9.37 9.37 0 0 1-.04.55.7.7 0 0 1-.1.3.61.61 0 0 1-.19.18.7.7 0 0 1-.24.09c-.5.04-.7-.25-.91-.44.13.1-.03-.04-.09-.1l-.03-.04.03.03c.06.05.14.14.08.07a6.4 6.4 0 0 1-.07-.07.78.78 0 0 1-.23-.63v-.06a1.81 1.81 0 0 1 .06-.24c-.05.01.33-.88.42-1 .01-.03-.1.14.14-.25l.03-.05.1-.18c.03-.02-.1.17.2-.25-.14.15.4-.57.52-.7l-.07.08.14-.18.32-.37.23-.26-.1.1.26-.3c-.18.24.04-.04.06-.06.03-.03 0 .02.03-.03l.06-.07.18-.2.08-.1c.3-.35 0 .01-.01.02-.02.02.1-.09-.17.2.1-.09.1-.1.12-.1l.16-.2c.08-.09 0-.02.02-.03.01-.02.2-.22.22-.29.09-.09-.03.07-.18.24l.15-.17c.2-.24.07-.1.11-.17.02-.03.1-.12.02-.04l.08-.1.08-.1c0-.02-.02.03.02-.02 0-.02.06-.11-.02 0l.13-.19c.04-.12.05-.07.07-.12.06-.11.02-.08.02-.09l.05-.2a.66.66 0 0 0-.03-.2c.02.02.04.13.03.2v.07c-.03.1 0 0 0-.06.01-.04.01-.08.02-.03a.71.71 0 0 0-.03-.14c-.02-.1.04.03-.06-.21-.02-.04.07.17.04.13a1.79 1.79 0 0 0-.07-.17l.04.1a4.4 4.4 0 0 0-.14-.27l.08.12-.07-.13a.29.29 0 0 0-.06-.08l.02.04-.03-.02c-.02-.02-.05-.06-.1-.07h.04l.05.05v-.03c-.02 0-.06-.05-.15-.05-.16 0-.35.04-.4.05.04-.01-.4.13-.45.17h.02c-.08.04-.3.15-.4.22-.12.08-.1.07-.1.08l-.05.02-.35.28s.05-.03-.01.03l-.19.16c-.21.22.16-.13.07-.04l-.17.16c0 .02-.11.1-.2.21l.2-.23-.26.28-.07.07c-.01.01-.05.08.1-.1.02 0-.06.07-.1.11 0 0-.01.04-.06.08 0 .01.07-.14-.19.22 0 .01.03-.03.02-.01l-.08.1c-.01.01.02-.03.02-.01-.05.06-.12.13-.02 0l-.1.13-.1.13c-.26.4-.08.14-.12.2-.07.13-.03.03-.13.2 0 .02.12-.19-.11.2a4.83 4.83 0 0 1-.03.06c-.07.15-.04.05-.12.27v.03-.03a.56.56 0 0 1 .06-.13l-.05.13.01.08.04.08-.03-.05-.03-.06s.02.08.11.2l.32.39.05.1c.01.07-.01.17-.06.22-.08.1-.12.08-.15.1l-.09.01h-.08c-.21-.01-.28-.04-.29-.02-.05-.03-.1-.02-.12-.02l-.51-.07-.11-.02h-.17A1.51 1.51 0 0 0 3 5.08h-.06c.01 0 .08-.02.12-.12.04-.13-.02-.19-.02-.19l-.01-.01.04.03-.04-.02.02.03.01.05c-.01-.06-.03-.07-.03-.08a.24.24 0 0 0 .02.02 3.56 3.56 0 0 0 .28.14l.05.03.21.09-.31-.14-.16-.09.12.06c.55.26 1.16.48 1.76.68a19.67 19.67 0 0 1-1.09-.39l-.2-.07.98.37h.01l.32.11-.08-.02c.1.05.12.03.2.06l.6.2c.13.03-.3-.1-.27-.1.29.09.59.2.86.27h.03l.19.07.28.09a.39.39 0 0 1-.04 0l-.13-.05-.09-.03c-.04 0-.07-.02-.13-.04H6.4c-.01 0-.16-.07-.18-.06a33.79 33.79 0 0 0 1.07.32c.22.07.5.13.5.15.48.12.97.25 1.44.32a1.04 1.04 0 0 0 .86-.25l.07-.06c.02-.01.04-.03.07-.1a.25.25 0 0 1-.07.1.24.24 0 0 0 .07-.22.81.81 0 0 0-.1-.28l-.1-.13-.11-.16a1.29 1.29 0 0 0-.09-.1l-.02-.04c-.06-.07-.02-.01-.07-.1l.04.06c-.07-.09-.18-.2-.06-.09l.02.03c.54.64.13.11-.1-.1-.04-.06-.36-.36-.37-.37-.02-.02.05.03-.03-.04 0-.01-.15-.13-.26-.26-.07-.1-.1-.17-.03-.07l.04.06c.08.1.21.22.26.27-.06-.07-.16-.15-.26-.27a.75.75 0 0 1-.14-.28c-.05-.21.12.4 0-.07-.01-.36-.01-.02-.02-.16-.01-.09.1-.45.1-.44.04-.12.03-.05.03-.06a2.97 2.97 0 0 1 .13-.27.69.69 0 0 1 .06-.06s-.02.03 0 .02a.8.8 0 0 1 .19-.18s-.04.02-.03 0c.02 0 .09-.07.13-.1l.04-.05-.05.04a1.17 1.17 0 0 0 .15-.2 2.02 2.02 0 0 1-.1.14c0-.01.16-.2.1-.14l.03-.04.06-.08-.04.04.18-.22-.1.12.12-.12-.1.13.1-.1-.35.44c.15-.18.32-.4.33-.39l-.05.1.1-.14h.01l-.14.18.07-.05s-.1.13-.06.09l.13-.15-.14.18.1-.1-.09.1c0 .03.04-.03.04-.02L9.6 3l.03-.02-.05.05.2-.2s-.2.23 0 .02l.04-.05c.03-.03-.1.14.07-.06-.3.39-.03.05-.07.11a3.1 3.1 0 0 1-.13.18l.06-.07c.01-.01-.1.13-.06.1l.13-.16c.05-.06 0 .01 0 0l.09-.09-.1.14.03-.03c-.06.08-.2.24-.06.09l.06-.07-.07.1c-.02.04.1-.13 0 .01l.22-.27c-.25.32-.33.45-.04.1-.1.1-.08.1-.1.13-.02.02-.17.19-.08.13.01-.01.09-.12.07-.08-.2.24 0 0 0 0s-.06.1-.18.22-.26.22-.32.29l.02-.02-.08.14c-.06.13-.08.25-.09.27L9.2 4a.67.67 0 0 0-.02.14l.01.12c0 .04 0 0 0 0 0 .03.02.11.07.18l.21.2s-.16-.15-.05-.06c.12.1.12.13.12.13.26.25.53.5.76.8.11.16.22.32.28.54.07.2.04.5-.15.67a1.7 1.7 0 0 1-.12.1s.06-.03.12-.1a.63.63 0 0 0 .17-.29c.03-.1.02-.18.02-.18v.13a.63.63 0 0 1-.18.35 1.55 1.55 0 0 1-.23.2c-.12.1-.45.23-.67.24h.06c-.08.02-.21.02-.12 0-.2.02-.17 0-.3-.01a.85.85 0 0 0-.01 0 .53.53 0 0 1-.06 0l-.35-.06c-.02 0 .12.04.13.03.3.06.1 0 .21.03l.07.02.21.01a.8.8 0 0 1-.21 0l-.25-.05.25.05h.22c-.04.02.04.01.17 0l.14-.02.27-.08c-.15.04.26-.12.35-.21a1.49 1.49 0 0 1-.55.28h.03a1.43 1.43 0 0 1-.16.03h.03c-.29.05-.36.01-.38.01a1.7 1.7 0 0 1-.12-.01 9.74 9.74 0 0 1-.7-.14L8.18 7l-.11-.03c-.13-.02-.12-.03-.16-.04l-.18-.04-.46-.13s.07.03-.02 0l-.57-.18.2.06a7.14 7.14 0 0 0-.5-.13c.08.02.29.07.3.09l-1.24-.4.04.01-.26-.09a.5.5 0 0 0 .07.02l-.3-.1c.06.02.26.09.15.06l-.1-.04.37.13c-.28-.08-.7-.24-1.03-.35-.13-.05.2.07.05.01-.3-.12-.08-.02-.1-.03l-.32-.12-.23-.09.06.03a4.02 4.02 0 0 1-.5-.22l.27.12c.03 0 .1.01.36.13.1.03-.41-.17-.18-.08a9.78 9.78 0 0 1-.9-.4h-.01c-.01 0-.05-.02-.13-.09l.02.02.06.03-.06-.04-.07-.07a.25.25 0 0 1-.05-.1.21.21 0 0 1 .06-.21.2.2 0 0 1 .11-.06l.07-.01h.33l.65.09.3.03a1.5 1.5 0 0 0 .13 0h.03l-.06.04c-.02 0-.08.09-.06.15 0 .06.02.07.03.08l-.12-.15c-.02-.01 0-.01-.02-.03-.04-.04-.19-.2-.25-.31.14.2-.16-.17-.14-.39 0-.07.02-.12.03-.15l.06-.14c.12-.27.34-.63.47-.8-.02 0 .22-.3.33-.44.08-.1.2-.26.08-.12a8.86 8.86 0 0 1 .47-.53l.03-.03c0-.01 0-.02.05-.06.31-.31.16-.15.23-.2l.08-.08a7.13 7.13 0 0 0-.46.45c.06-.04.4-.4.52-.5v.01l.26-.22c-.02.01-.15.11-.29.24.04-.04 0-.02.01-.02.08-.08.3-.24.38-.3l.02-.02.12-.07c.14-.08-.25.17-.21.16.01 0 .22-.16.45-.3.23-.13.48-.22.48-.22L6.86.8a3.65 3.65 0 0 1 .41-.09h.03l.26-.02c.13 0 .27.06.34.1a.61.61 0 0 0-.28-.1c.15.02.25.08.3.12l.1.08c.01.01-.02-.04-.1-.1a.49.49 0 0 0-.03-.01.68.68 0 0 0-.33-.1.63.63 0 0 1 .32.08.8.8 0 0 1 .28.31l-.01-.02C8.1.95 7.89.76 8.02.89a1.15 1.15 0 0 1 .16.24l-.05-.08a.75.75 0 0 0-.2-.21c.07.05.14.13.19.21l.08.14.04.07c.06.1.02.05.04.09.01.01.1.24.07.2a1.14 1.14 0 0 1 .05.34v.1c0 .22-.4.85-.52.99.06-.1.04-.07-.01 0-.06.07 0 .02-.02.03a12.23 12.23 0 0 1-.34.4l.07-.1-.37.43.03-.02-.24.26.05-.04-.15.17c-.03.03 0 .01-.01.02l-.13.14-.22.26c.33-.37.05-.06-.08.1l-.12.16c.26-.33-.09.09-.16.17l-.04.05-.03.04c-.29.38-.1.13-.16.2l-.2.27-.04.05-.13.2c0 .02-.01.01-.08.11a7.23 7.23 0 0 1 .36-.51c.1-.13-.2.3-.21.32 0 0 .04-.08-.01 0l-.2.34-.07.09.07-.13-.06.1-.07.06-.02.05a2.64 2.64 0 0 0-.1.2l-.08.16-.05.1-.12.34c.06-.19.04-.12.05-.12 0-.04.02-.08.04-.12.12-.3 0 0 .03-.06l.04-.08c0-.04.01-.03.02-.06.03-.05 0 0 0 0 .01-.04.1-.22.06-.1.03-.07.02-.08.06-.13.06-.1-.02.05-.04.1l-.18.4-.07.22c0 .02-.08.24-.05.26a2.64 2.64 0 0 1-.02.05.25.25 0 0 0 0 .17c.01.05.02.03.02.03s.04.07.07.09l.01.01.04.04c.12.11.1.12.12.13.13.12.08.06.1.08.02.02.25.18.33.15a.2.2 0 0 0 .09-.04.19.19 0 0 1-.07.04c.06 0 .08-.04.09-.04 0 0 .04-.06.04-.1v-.03a3 3 0 0 0 .03-.39c.01-.2-.02.25-.04.39a.17.17 0 0 1 0 .02.26.26 0 0 0 0-.02c.01-.15.03-.58.01-.36v.17l-.02.14v.05a.44.44 0 0 1-.01.02V7.9a7.67 7.67 0 0 0 .03-.47V7.2c0-.17-.01-.36-.06-.5.01.02.04.1.01 0l-.01-.02-.03-.06a7.35 7.35 0 0 1-.73-1.3 2.88 2.88 0 0 1-.1-.36 2.42 2.42 0 0 1 0-.63v-.05c.01-.04 0 0 .01 0l.07-.29a1.97 1.97 0 0 1 .39-.73c-.12.08-.37.63-.34.62l.06-.16c.03-.05.09-.2.15-.28l.09-.1a1.2 1.2 0 0 1 .27-.26 1.24 1.24 0 0 1 .15-.1s.02-.01 0 0L5.62 3l-.04.09a.24.24 0 0 0 .07.24c.07.05.1.05.13.05h.03a.2.2 0 0 0 .02 0h.01a1.13 1.13 0 0 0-.05.02l-.15.05a25.47 25.47 0 0 0-.32.12l-.42.17s.13-.05.05-.01l-.15.05-.41.16c-.11.05.22-.07.21-.07l-.3.12s.22-.1-.05.02l.1-.04-.18.06c-.1.04-.2.1-.35.14-.04.01.02-.02.01-.02a.84.84 0 0 1-.18.07l-.13.05.06-.02a19.04 19.04 0 0 1-.38.15l-.14.05c.08-.02-.28.12-.26.1-.05.04-.36.15-.5.21l-.3.13-.1.02a7.54 7.54 0 0 1-.42.15l.3-.12-.34.13c-.32.13-.14.04-.15.04l-.2.08c-.04.01.08-.04.08-.05l-.13.04c.05-.03.21-.08.22-.08.13-.06-.05 0-.1.01l.03-.01c-.19.06-.03.03-.16.08-.11.04.03-.03.03-.02l-.17.06.32-.15-.33.13.16-.07-.06.02s.11-.05.01-.02l-.22.1c.42-.18.12-.07.1-.07l-.05.02c-.02-.02 0-.01.07-.04l.2-.09-.29.1h.03l-.15.04s-.23.08-.06.01c.3-.12.44-.16.48-.2-.23.07-.5.2-.57.23-.11.04 0 0-.01 0l-.1.04c-.07 0 .4-.17.56-.23l-.13.04.16-.07c-.26.1 0 0 .05-.04l.04-.02-.23.1a8.47 8.47 0 0 1 .4-.18c-.4.15-.16.08-.52.21-.06.03.1-.04.1-.03-.06.03-.17.06-.3.13-.03.02.07-.02-.07.04l-.1.04.1-.05-.1.04.07-.04c-.03.01-.4.14.07-.04l.1-.04.1-.04.2-.08c.03-.02-.19.06.13-.06-.16.05-.45.18-.62.24-.32.12.23-.1.28-.13H.67l.36-.14-.12.04s.37-.16.16-.08c-.14.06-.4.18-.44.18l.62-.25-.35.12.66-.27c-.54.2.17-.08.17-.08l-.25.08c.19-.08.75-.3.41-.2.07-.01.2-.08.2-.08-.02 0-.33.13-.28.1l.24-.09c.47-.19.32-.17.8-.36l-.03.01 1.55-.6a21.31 21.31 0 0 1 1-.41 8.02 8.02 0 0 1 .35-.12h.15a.25.25 0 0 1 .16.34l-.04.06a.24.24 0 0 1-.02.02l-.02.02.03-.04.05-.07A.26.26 0 0 0 6 3c-.06-.08-.12-.1-.15-.1h-.06a.25.25 0 0 0-.04 0H5.7a.87.87 0 0 0-.04.02l-.02.01.05-.01a.74.74 0 0 1 .02 0 .3.3 0 0 1 .07-.02h.03c.03 0 .08 0 .16.08.04.04.07.11.07.17a.24.24 0 0 1-.03.11l-.04.05a.29.29 0 0 1-.04.03l-.02.02a.74.74 0 0 1-.04.02.74.74 0 0 0-.06.04c.05-.02-.06.03-.17.16a1.47 1.47 0 0 0-.28.54 1.5 1.5 0 0 0-.06.27l.02-.08a1.6 1.6 0 0 0-.03.24zM3.48 4.3l-.25.1c-.11.05-.28.15-.21.1zm2.26-.87c-.1.03-.03 0 .05-.03.01 0 .08-.01-.05.03zm-1.09.41.1-.04c.08-.02-.19.08-.1.04zm1.08 3.17c-.01-.1-.02-.03-.01.04a.19.19 0 0 0 0-.04zm-.01-.08c0-.09-.05-.23-.03-.11zm-.35-3.37s.11-.05.17-.06l-.17.06zM4.9 5.32zm.52.96zm.24 1.69s.04 0-.03.04l.02-.02h-.02c.03-.01.04-.05.04-.06Zm-.54-.18A1.7 1.7 0 0 1 5 7.65l-.03-.04c-.02-.02 0 .03-.03-.03-.04-.06.01.01.01 0l-.04-.08s.04.09.07.11l.03.03.02.02c.04.04 0 .03.02.03 0 .01.14.14.08.1zm.5.21zM3.78 4.18zM5.6 8.03a.21.21 0 0 1-.04 0A.24.24 0 0 0 5.64 8l-.04.03ZM5 3.7v.01c0-.01 0-.01 0 0Zm-.14.42.04-.14a1.95 1.95 0 0 0-.04.14zm.88 3.04c0-.01.03.17 0-.1 0 .15 0 0 0 0v.3-.2zm-.44-.84-.09.18a.85.85 0 0 1 .1-.18zm1.87.4zm-4.09-1.4.2.09c.03 0 .1.05.01.01a.87.87 0 0 0-.2-.1zm2.48 2.72c-.01.01-.09 0-.14-.03.03.01.12.04.14.03zm.03-1.8-.08-.02.08.02zm.12 1.69L5.66 8l.04-.08zm-.47-1.5Zm-.45-.46a2.8 2.8 0 0 0-.18-.05l.18.05zM9.2 4.12s0 .13.02.18l-.01-.04a.5.5 0 0 1-.01-.14zM6.06 6.38c.14.06-.01 0 0 .01.09.03.32.1.16.04zm-.13-.04c-.01 0-.12-.02-.03 0 .04.02.1.03.03 0zm3.8-1.49-.35-.34a.23.23 0 0 1-.01 0 .43.43 0 0 1-.08-.1l.07.08.38.36zm.7.8c-.1-.13-.1-.16-.1-.15.12.15.04.06.04.06a.53.53 0 0 1 .06.1zM9.9 5a52.33 52.33 0 0 0-.1-.1l.1.1zm-5 2.3c.02-.09 0 0 0 .05 0 0-.02.02 0-.05zm.96-.98zM3.53 4.67c-.09-.01.02 0 .07 0 .01.01-.04 0-.07 0zm2.2 3.02c0-.1.02-.08 0 0zm-3.02-2.6c-.03-.03-.06-.02-.1-.16a.26.26 0 0 1 .05-.2.29.29 0 0 1 .1-.08c.08-.03.1-.02.13-.03h.04l-.07.02a.48.48 0 0 0-.06.01s-.09.02-.15.12a.24.24 0 0 0 0 .25l.03.03.08.07.14.1a2.45 2.45 0 0 1-.04-.02c.47.24.04.04-.09-.06l-.06-.04zm1.32-.35c.3.05-.28-.03-.46-.05.17.01.39.04.1 0 .43.05.25.04.26.04zm-.84-.1-.23-.02a1.4 1.4 0 0 1 .26.02 1.02 1.02 0 0 1-.03 0zm7.12 2.23.13-.12a1.53 1.53 0 0 1-.13.12zM3.37 4.32Zm.99 1.5-.28-.1.28.1zm2.05.66a7.02 7.02 0 0 0-.18-.05l.18.06zM3 4.45zM4.98 7 5 6.95a4.62 4.62 0 0 0-.03.1V7zm5.67-.79a1.22 1.22 0 0 0-.07-.27l-.1-.2c.08.13.15.28.17.47zm-.04.3c-.02.07 0 .02.02-.04a.75.75 0 0 0 .02-.21v.12a.3.3 0 0 1-.04.14zm-4.94-.27c-.04 0 .08.04.05.03l-.13-.04.1.04h.05l.38.13c.01 0-.08-.02.02 0l.22.08c.26.06.45.13.78.22l-.27-.09a42.2 42.2 0 0 1-1.05-.32l-.07-.02-.08-.02zM3.4 4.3a2.17 2.17 0 0 0-.23.09c.03 0 .15-.06.23-.1zm5.3 2.8-.18-.05.18.04zM5.9 5.33zm1.5-1.76.11-.13-.11.13zm.1-2.9c.02.01-.23.02-.27.03A1.64 1.64 0 0 1 7.5.67zm2.78 6.2.15-.14.02-.01c0-.01.04-.03 0 .02l-.07.06c-.03.02.06-.06-.1.07zm-7.3-1.62.2.1-.2-.1zm-.35-.65-.26.11s.22-.1.26-.1zM5.36 8c-.09-.05.09.06.13.06A.6.6 0 0 1 5.36 8zm2.89-6.76a4.03 4.03 0 0 0-.08-.13c-.05-.11.14.24.08.13zm-1.37 2.9zm2.83 3a1.53 1.53 0 0 0 .3-.1c-.01.02-.29.11-.3.1zM7.91.8 7.87.78Zm-.41 6c-.08-.03-.07-.02-.06-.01.06.01.15.03.06 0zM3.32 4.33l-.23.08.23-.08zm1 .45h-.1a2.55 2.55 0 0 1-.25-.02l.35.02zm1.24 3.3.08-.03-.07.03zm-1.8-3.35-.09-.02.1.02zM5.1 6.05c-.02 0-.23-.08-.14-.04l.08.03c.02 0 .36.12.06 0zM4.38 2.9l-.17.24.16-.24zm.77 4.96a1.34 1.34 0 0 0 .18.14c-.01 0-.22-.19-.18-.14zm5.13-.99zm-1.63.2zM4.21 3.15l-.12.18c0-.01.1-.17.12-.18zM7.05.75l-.24.08a.11.11 0 0 0-.02 0L6.63.9c-.14.06.12-.07.35-.13.22-.05.38-.09-.05.02l.12-.04Zm-.44 3.69Zm1.45-1.75c0 .02-.1.15-.1.16l.1-.16zM6.32 4.78a.36.36 0 0 0-.05.06c.03-.02.09-.1.04-.06zM10 7.02a2.6 2.6 0 0 1-.28.11l-.07.01c-.02 0-.26.04-.48 0-.35-.05-.69-.12-.09 0h.08l.03.01.04.01a1.63 1.63 0 0 0 .5-.03 1 1 0 0 0 .27-.11zM8.24 2.4l-.08.14.08-.14ZM5.15 7.87c.04.05.16.13.13.1-.02 0-.18-.15-.13-.1zm2.48-4.6c.24-.3.05-.07.09-.12zm2.53 2.07c.04.05-.02 0-.06-.06l.06.06zm-.63-1.92zm.04 1.32.14.13c-.13-.12-.02 0-.14-.12zM6.82.83ZM6.1 5.05zm3.62 2.08h-.01zM6.54 4.51Zm-.77 3.24a.37.37 0 0 0-.01.1l.01-.1zM9.3 4.49a.54.54 0 0 1-.04-.05.16.16 0 0 1-.03-.05l.03.05zm.16-1a.84.84 0 0 0-.1.09l.02-.03-.02.03.1-.1zm.72 3.44-.14.08c.04 0 .18-.1.14-.08zM5.73 7.99c-.01.03.03-.03.03-.1a.4.4 0 0 1-.03.1zm.11-2.62c-.05.08.1-.1.1-.13l-.1.13zM7.9 2.9c-.2.24-.08.12-.05.07zM1.94 4.85Zm3.6-3.23Zm-.18 4.43c.12-.16.1-.15.1-.17l.12-.16-.13.21.37-.53c0-.02-.1.13-.1.13l-.04.04-.32.48zM7.5 3.4l.06-.06.02-.03zM5.2 6.38zm1.27-1.8zm1.13-1.3zm-1.95 4.8c.07-.03.04-.02-.03 0h.03zm.13-.2.02-.36-.02.25v.1zm-.08.17c.06-.04.05-.07.02-.03l-.02.03zm-.32.02c.04.02.12.05.17.04a.41.41 0 0 1-.17-.04Zm4.6-5.22.08-.11a.67.67 0 0 1-.08.11zM1.12 5.02l-.1.04L1.2 5c.05-.03-.05.01-.08.02zm-.24.06c.01 0-.04 0 .07-.03.08-.03-.32.14-.4.16l.33-.13zm-.72.22Zm.48-.2ZM9.1 3.52c-.04.08-.06.16 0 .04a.12.12 0 0 0 0-.04ZM.3 5.23Zm8.75-1.67c-.05.1-.01.07 0 .06l.1-.2a.16.16 0 0 1 0-.01.97.97 0 0 1 .05-.07.91.91 0 0 0-.05.06.16.16 0 0 0 0 .02c-.1.18-.07.1-.1.14zm-.14.52c-.01.11.02-.17.04-.22a1.32 1.32 0 0 0-.04.22zm.23.64.18.17-.18-.17zm.09.1c.06.06.08.06 0 0zm.34.33c.04.05.1.08.03.02l-.03-.02Zm-.6-1.47a1.54 1.54 0 0 0-.06.2L9 3.6c.04-.09.05-.07.04-.05l.07-.14a.2.2 0 0 1 .01-.02c.1-.13.24-.23.32-.3-.08.07-.21.15-.32.29a.21.21 0 0 0-.02.02l-.08.14-.05.13c-.03.06 0 0 0 0zM10 5.6c.09.13.04.04-.02-.03a.26.26 0 0 0 .02.03zM.08 5.27c.2-.08.06-.01.49-.2-.18.08-.01.01-.05.03-.02.01-.13.05-.06.03L0 5.31s.01-.02.08-.04Zm9.02-.52c.03.05.07.05.14.13.09.06-.1-.1-.24-.26a.46.46 0 0 1-.08-.15c.03.07.07.12.09.15.07.08.05.06 0 0-.1-.12-.17-.4-.09-.12-.07-.2-.05-.23-.06-.22v.03c-.03-.07 0-.3-.01-.28a.84.84 0 0 0 .04.42c-.03-.12.03.08.1.18l.03.05zm-.23-.73a.95.95 0 0 0 .01.3 1.03 1.03 0 0 1-.01-.23c0-.09.02-.15 0-.07zm.62-1-.04.04-.16.15c.05-.05.13-.1.17-.15a.3.3 0 0 0 .03-.03zm.33 3.74.12-.06a1.75 1.75 0 0 1-.12.06zm-.51-1.82c.08.08.05.03-.02-.03zM.25 5.2l.36-.15-.36.15zm9.33-2.3-.14.15-.17.16c-.02.02 0-.02 0-.01 0 0-.1.08-.17.17a.25.25 0 0 0-.02.02l-.04.1c-.01 0 .02-.04 0 .02l.05-.11a.23.23 0 0 1 .02-.02c.1-.13.27-.25.34-.32l.06-.07c.01-.02-.1.1.06-.08zm-.37.36c.06-.04-.05.04-.1.12a.24.24 0 0 0-.02.02l-.02.03.02-.04a.24.24 0 0 1 .01-.02 1 1 0 0 1 .11-.11zm-.28.47c-.01.02-.08.24-.07.27.02-.12.1-.32.07-.27zm1.11 2 .11.16-.11-.16zm-8.8-.98Zm8.05.22zm-.31-1.44.05-.1.03-.05a.2.2 0 0 1 .02-.03l.1-.11a.96.96 0 0 0-.1.11.3.3 0 0 0-.02.03c-.06.12-.11.24-.08.15zm1.06 2.25zm-.8-.85c-.02-.02-.13-.1-.28-.28a.84.84 0 0 1-.15-.54c0 .11 0 .2.06.37l.01.03.03.06.05.08c.12.14.32.3.27.28zM8.98 3.5l.06-.13a.3.3 0 0 1 .02-.02c.1-.14.26-.25.26-.25.07-.05-.12.08-.26.25a.3.3 0 0 0-.02.03zm.28 1.47c-.05-.04-.3-.27-.12-.12Zm.74.8c.02 0 .13.18.13.18 0-.02-.19-.28-.12-.18zm-.07-.09.04.05.08.12.04.05c-.05-.12-.33-.42-.16-.21zM9 3.48c-.02.03 0-.03.03-.07L9 3.49zm1.25 2.83c0-.04 0 0-.02.04a.29.29 0 0 1-.07.11.25.25 0 0 0 .07-.08.22.22 0 0 0 .02-.07zM1.43 4.64l.04-.02c.23-.08.17-.06.2-.08l.2-.07c-.22.09-.02 0-.02.01.03 0-.28.1-.38.15-.01 0 .1-.03.06-.01-.12.05-.5.17-.1.02zm7.61-1.26a.22.22 0 0 1 0-.01l.02-.03.2-.2c.06-.05.1-.09.07-.05 0 0-.2.17-.27.25l-.01.03c-.01.02-.02.02-.01 0zM6.91 1.2l.15-.05-.15.05Zm1 .3c.04.1.08.19.04.07l-.04-.06zM3.8 5.15c.12.03.11.01.03 0H3.8zM5.82 1.9l.1-.09a.76.76 0 0 0-.1.1zM3.77 5.14c.07 0-.05-.02-.13-.02zm5.66.02.23.22-.23-.22zm-1.72-4-.04-.03a.54.54 0 0 1 .04.04zM5.46 5.75c-.07-.02.16.06.1.03a7.1 7.1 0 0 0-.1-.03Zm1.04.33zM1.68 4.53l.17-.07s-.13.07-.17.07zm2.75.12-.15-.18.15.18zm3-3.55h.16a.14.14 0 0 0-.04 0Zm-4.05 4h.08-.08zm1.6-2.3zm5.06 3.73.1-.1.03-.02-.03.03a1.1 1.1 0 0 1-.1.09zM3.57 5.05zm2.21.78zm1.08.33c-.02 0 0-.02.1.02h-.04l.27.07.25.07.18.05.17.05c.36.1.93.23 1.21.29l-.76-.17c.08.01-.38-.08-.11-.03-.12-.02-1.18-.31-1.27-.35zm1.11-4.3zm-.74-.7-.2.06c-.05.01 0 0 0 0-.01 0-.15.03-.04 0 .18-.06.02 0 .11-.03l.18-.05-.06.02h-.03a4.27 4.27 0 0 0 .13-.03h.22a.08.08 0 0 1 .02 0c-.01-.01.07 0 .06.01a.39.39 0 0 0-.06-.02h-.02a1 1 0 0 0-.24.03c-.11.03.01-.01-.07 0zm-.53.19.03-.02c-.18.1-.4.22-.6.36-.05.04.02 0-.05.05l-.09.06a7.1 7.1 0 0 1 .17-.13c.16-.11.12-.09.13-.1l.17-.1c.15-.09.21-.13.42-.21l-.18.09zM4.54 5.4l.2.07-.2-.07zm.84-.23a.8.8 0 0 0 .07.18 4.1 4.1 0 0 1-.07-.18zm.74 1.35c.02.04-.03-.11-.07-.17a1.06 1.06 0 0 1 .07.17zM4.67 3.26l-.08.1c-.05.07.18-.26.08-.1zm.94 5.26a.48.48 0 0 0 .04-.01.72.72 0 0 1-.26 0l-.06-.02.14.03h.14zm-.78-.36ZM3.34 5.12l-.16-.02a1.9 1.9 0 0 0-.11 0h.1zm1.01-.63c.1.11.18.2.24.3.02.03.06.06.06.2a.27.27 0 0 1-.07.14.17.17 0 0 1-.07.06c-.08.04-.1.03-.12.04H4.2a.42.42 0 0 1-.06-.01h.27a.13.13 0 0 0 .04-.02c.02 0 .05 0 .09-.04.03-.02.11-.12.1-.22 0-.1-.03-.12-.05-.15l-.27-.33.03.03zm-.8.66.2.02-.2-.02zm1.75-.33.05.24a1.66 1.66 0 0 1-.05-.24zm-.67-1.5c.02 0-.14.22-.15.24-.05.06.13-.22.15-.23zm-1.04 1.7.26.1c-.05 0-.19-.07-.26-.1zm-.54-.26zm-1.79-.11.1-.04-.1.04z"/>
</svg>
