<svg xmlns="http://www.w3.org/2000/svg" fill="none" viewBox="0 0 11.19 9.84">
  <path fill="#eccb65" d="M2.43 0h7.67v7.67H2.43Z"/>
  <path fill="#e6775c" d="m3.36 6.6.14.1c-.05-.02-.21-.13-.14-.09Zm3.78 1.82-.08-.05.25.18c.02 0-.02 0 0 .01l.08.04a9.05 9.05 0 0 1 .57.48 1.05 1.05 0 0 1 .16.22.38.38 0 0 1 .04.18.3.3 0 0 1-.18.25c-.16.07-.31.1-.46.1.4-.05 0 0-.11 0-.02 0-.03.03-.4-.02-.23-.04-.02-.01-.4-.09.3.08 0 .02-.22-.04a9.08 9.08 0 0 1-.47-.16l-.18-.06-.13-.06a9.55 9.55 0 0 1-.8-.38c.16.07-.12-.07-.14-.08-.06-.04.23.11.12.05a16.24 16.24 0 0 1-.7-.38 2.28 2.28 0 0 1-.76-.67c0-.02.07.15-.15-.24l-.02-.05s-.05-.07-.07-.14l-.02-.04c0-.02.02.03.02.02 0-.02-.06-.08-.08-.37 0 .12-.04-.09.02-.32a1.76 1.76 0 0 1 .18-.45l.12-.2.3-.36.22-.23-.09.08.26-.25c-.2.2.05-.04.07-.05l.03-.02.07-.07c.14-.12.13-.1.19-.14 0 0-.02 0 .09-.08.35-.26 0 0-.01.02l-.19.15.13-.08.19-.15c.08-.06 0 0 .02-.02l.27-.2c.1-.06-.05.05-.22.17-.02.02.16-.1.17-.12.25-.16.1-.08.15-.12.03-.02.14-.08.03-.03.23-.15.1-.05.11-.06l.1-.07c.02-.01-.02.02.04-.01 0 0 .1-.07-.03 0l.2-.12c.1-.08.1-.03.13-.06.12-.06.08-.06.08-.06L6.1 4c-.03.03-.26.15-.3.18-.17.1.23-.13.12-.05l.15-.1c.1-.04-.04.04.22-.1.03-.03-.18.1-.14.07l.17-.1-.11.05.22-.12c.03-.02.05-.03 0 0a.15.15 0 0 0 .09-.05c0-.02-.02.01-.03.01-.02 0 0 .02.09-.18l-.07.14h.03c0-.01.05-.1.09-.24l.06-.35v-.08a.33.33 0 0 0-.1-.14v.01a.72.72 0 0 0-.3-.16l-.04.01h-.02a.4.4 0 0 0-.14.04 1 1 0 0 0-.14.09s.04-.02-.01.02c-.01 0-.01-.01-.17.13-.18.17.14-.11.07-.04-.14.1-.12.1-.15.14a2 2 0 0 0-.2.18l-.04.05c-.03.02-.02 0-.07.05 0 .01-.04.07.1-.08l-.09.1-.05.07s.05-.14-.16.19l.02-.01-.07.1.02-.02c-.03.06-.1.12-.02 0l-.08.12c.04-.04-.03.07-.06.12-.17.37-.04.13-.07.2-.04.1-.03.02-.08.17 0 .02.06-.17-.05.2a2.56 2.56 0 0 1-.01.05c-.03.15-.02.05-.04.27v.1c0 .18 0-.22.03-.23 0 0-.04.28-.02.38v.03-.03c-.01-.05-.01-.11-.02-.09v.09c.01.08.06.18.18.29.06.07.13.12.16.14.11.1.16.14.17.12.03.04.06.05.08.06.2.11.2.1.4.19l.09.04h.04l.45.15-.12-.03.4.1c.07.02.03.02.06.03h.05l.05.03.05.02c.01.01.04.02.08.08.01.03.04.06.04.14a.24.24 0 0 1-.07.14c-.06.08-.17.12-.16.12a.4.4 0 0 0 .16-.11.24.24 0 0 0 .04-.27l-.07-.1-.06-.03-.06-.02a2.03 2.03 0 0 0-.1-.02l-.15-.04c-.09-.03-.14-.04-.08-.03.04.01.15.05.13.03l.13.04.08.02.05.02.06.03c.02.01.06.04.09.1a.25.25 0 0 1-.05.28.45.45 0 0 1-.35.14.55.55 0 0 1-.3-.12 1.61 1.61 0 0 1-.29-.32l-.4-.62c.18.25.33.6.65.89a.9.9 0 0 0 .14.1l.11.04c-.47-.21-.57-.56-.74-.8 0 0 .02.02 0-.01l-.16-.24.04.05c-.03-.08-.07-.09-.1-.12s-.09-.1-.1-.22a.45.45 0 0 1 .09-.3c.1-.14.2-.22.25-.26-.07.04-.24.23-.23.2.08-.09.15-.15.23-.21a7.57 7.57 0 0 1 .45-.36l.02-.01a.53.53 0 0 1 .16-.1l.23-.15-.03.03-.1.06-.08.05-.1.07-.03.02-.15.1a15.08 15.08 0 0 1 1.16-.7l-.28.15c.19-.1.4-.23.43-.22.23-.13.46-.26.52-.43.17-.42.2-.9.1-1.35-.03-.12 0-.06-.06-.26l.03.16a3.06 3.06 0 0 0-.2-.56.2.2 0 0 1 .06-.26l.1-.06s.03-.03.17-.07l.2-.04.13-.02h.05c.09-.02.01-.02.1-.02a7.67 7.67 0 0 0-.06.01c.11-.01.26-.03.1 0h-.03c-.8.15-.15.02.12-.02l.5-.06c.01 0-.06.02.03 0 .03 0 .56-.06.37-.03L9.23.9c.15 0 .49-.06.52-.06.16-.02-.29.05.06 0 .27-.02.01 0 .12-.02.05 0 .36-.03.35-.04h.06l.24-.03h-.03.03s-.01 0 0 0a.8.8 0 0 0 .15-.07h-.02c.02 0 .1-.1.1-.1l-.08.07a.3.3 0 0 0 .12-.2.53.53 0 0 1-.04.1s.04-.15.04-.1V.33l-.01.05V.15l.01.13.01-.14c.01 0 0 .15.01.13V.15v.27a.5.5 0 0 1-.05.15c.08-.13.06-.37.08-.37l.01.1V.13l.01.2.03-.08v.1l.01-.17v.19l.02-.11v.11-.03c.01.01-.02.2-.03.2l.01-.02a.24.24 0 0 1-.02.06l.05-.11.03-.12c.01 0-.06.26.02.02V.32c0-.04 0 .16.01-.08-.02.44.02.05.02.12l-.03.2a.29.29 0 0 0 .03-.09l-.03.12a.73.73 0 0 0 .05-.2c.01-.06.01.02.01 0l.01-.11v.16l.01-.04c0 .1-.09.3 0 .1l.01-.08-.01.12c0 .04.04-.16 0 0 .04-.12.04-.2.04-.33a1.56 1.56 0 0 1-.03.37c-.01.04.04-.05.05-.28v.18c0 .03-.1.25-.04.15.02 0 .05-.15.04-.1-.11.33.02 0 .01 0 0 0-.01.13-.12.27a.85.85 0 0 1-.45.28l-.18.02-.28.04h-.04l-.3.04c-.06 0 0 0 0 0l-.54.05s.2-.02.08 0c-.15.03-.16.01-.16.01-.41.06-.9.1-1.18.23l.06-.23a3.1 3.1 0 0 1 .14.3c0-.07.23.72.2.82a2.83 2.83 0 0 0-.02-.22c.04.12.04.41.04.6V2.7v.1c-.01.16-.02.14-.04.27 0 0 .02-.05 0 .05a4.55 4.55 0 0 1-.08.33c0 .01.05-.1.04-.13.08-.27.02-.08.04-.2 0 0 .01.03.04-.24.02.03.01-.04.02-.14v-.36c-.02.13-.03-.23-.05-.33a2.87 2.87 0 0 1 .07.62v-.02c0 .24-.03.29-.03.31-.03.2-.09.44-.17.64a.82.82 0 0 1-.07.14l-.03.06c-.03.03-.07.1-.2.19l-.09.06-.13.09-.15.09-.37.2-.02.01c-.03.02-.27.13-.46.26a3.42 3.42 0 0 0-.21.15c.06-.04.2-.15.23-.15-.11.06-.6.4-.8.59l-.1.08.02-.03-.07.07-.04.06.01-.03-.02.03v-.05.05h.01v-.04c-.01-.01-.01-.01 0 0v.04-.01a.08.08 0 0 0-.01-.05c.16.2.25.36.34.5.06.11-.1-.14-.03-.02.15.24.05.06.05.06.04.06.16.26.17.25l.12.14a.98.98 0 0 1-.03-.04l.12.1-.02.02h.02L6.5 6.4s-.05.01-.18-.17l.07.1c.04.04.08.07.01.02l.1.07h.03a.19.19 0 0 0-.03.2c.02.05.05.07.05.07h.02-.01a1.24 1.24 0 0 0-.18-.04l-.15-.04s.04.03-.11-.02l.07.01c-.1 0-1.32-.42-1.6-.8a2.1 2.1 0 0 1-.06-.06l-.02-.03a.9.9 0 0 1-.2-.37c.04.14 0 .04-.02-.1a1.59 1.59 0 0 1 0-.23c0-.16.01-.15.02-.22a2.8 2.8 0 0 1 .51-1.26c.08-.1.18-.25.07-.12a3.64 3.64 0 0 1 .43-.49l.03-.03.05-.04c.3-.28.16-.14.22-.19l.08-.06c-.2.15-.39.35-.44.4.05-.04.37-.37.51-.44 0 0 0 .01 0 0l.2-.1c.08-.04.16-.05.12-.05a1.06 1.06 0 0 0-.36.17c.04-.03 0-.01.01-.02a.96.96 0 0 1 .5-.17h.1l.1.02c.07.03 0 0-.1-.01a.5.5 0 0 0-.22.01s.09-.02.22 0c.18.02.4.12.54.27.13.12.19.28.19.27v.06c.02.03.03.12.02.21l-.03.2v.02a2.4 2.4 0 0 1-.06.28.85.85 0 0 1-.14.3c-.01.02.03-.02.06-.1l.01-.01c.06-.1.1-.24.1-.24s-.04.16-.13.32c-.1.17-.28.26-.2.2a.91.91 0 0 0 .15-.16c0 .02-.04.07-.1.11a.64.64 0 0 1-.13.1c.04-.03.14-.1.2-.18l.07-.11a.64.64 0 0 1-.32.3l-.06.03-.06.04c-.02 0-.18.1-.15.07-.53.3-.15.09.18-.09l-.4.22c-.03.02 0 .02-.06.05a20.64 20.64 0 0 0-.78.47c.08-.06.05-.04 0 0-.07.04-.01.01-.02.02l-.36.25c.22-.16.16-.13-.02 0l.08-.06c-.11.08-.34.24-.4.3l.03-.02a7.7 7.7 0 0 0-.24.2l.04-.03-.15.13c-.02.02 0 0 0 .01l-.12.11-.2.22c.3-.3.04-.05-.07.1l-.1.13c.2-.3-.07.08-.1.16l-.03.04-.02.04c-.08.17-.08.2-.08.2v-.01a.93.93 0 0 0-.03.24v.05c0 .07.02.13.03.17l.01.04a1.02 1.02 0 0 0 .04.07l-.03-.07a.68.68 0 0 1-.04-.4c.02-.05 0 .01 0 .1v.19l.05.1.08.18.03.08-.06-.1.05.09.01.07.03.04a1.15 1.15 0 0 0 .11.14l.1.11.08.06a1.75 1.75 0 0 0 .18.14c-.05-.04-.02-.02-.02-.03L4 8.05c-.2-.17.01 0-.03-.05l-.06-.04-.03-.04c-.04-.03 0 .01 0 0-.04-.02-.15-.14-.07-.07l-.08-.09c-.05-.08.03.04.06.06.1.1.12.14.29.25a1.06 1.06 0 0 0 .05.03l.12.07c.02.02.2.14.21.12l.25.17c.07.04.06.02.06.02l.12.07.07.03.14.07c.15.1.1.04.13.06a9.52 9.52 0 0 0 .46.22l.15.07.2.08.05.01.33.11c.2.06-.32-.11-.36-.14.08.04.55.18.34.1a.7.7 0 0 0-.11-.02c-.13-.04-.03-.02-.03-.02l-.13-.04-.08-.03c.07.01.4.13.44.14l.2.05a3.06 3.06 0 0 0 .48.1c.07 0 .02-.01.02-.01.03 0 .37.04.59-.06a.19.19 0 0 0-.07.05.21.21 0 0 0-.04.1v.1l-.02-.04-.12-.12a3.53 3.53 0 0 0-.2-.16 17.88 17.88 0 0 0-.62-.46c-.03-.03 0 0-.04-.02-.02-.02 0 0 0-.01l-.73-.49.47.3-.12-.09-.2-.12c0-.01.02 0-.08-.07l-.24-.15c-.14-.1-.89-.58-.94-.6l.03.02c-.1-.05 0-.01-.12-.09l-.34-.2.17.12-.25-.15s.18.1-.04-.04l.08.05-.14-.09-.29-.18c-.03-.02.03 0 .03 0-.04-.02-.1-.05-.15-.1-.01 0 .14.09-.11-.06l.05.03-.32-.2-.1-.06c.05.04-.25-.14-.23-.14-.05-.01-.3-.17-.41-.24L2.43 6c-.03-.02-.01-.02-.07-.05l-.3-.19c-.03-.02-.08-.06-.03-.04l.25.15L2 5.7c-.27-.17-.1-.08-.11-.09l-.17-.1.08.03-.1-.08.19.12c.1.06-.03-.04-.07-.07l.03.01c-.16-.1-.04 0-.15-.07-.09-.05.03.01.03.01L1.6 5.4l.28.14-.28-.16.14.08c.03.01-.05-.04-.04-.04 0 0 .1.05.02 0l-.2-.11c.37.2.12.05.11.04 0 0 .17.09-.04-.03 0-.02 0 0 .07.03l.17.1a1.5 1.5 0 0 0-.23-.15h.02c-.2-.13-.06-.04-.11-.08 0 0-.19-.12-.05-.04.27.16.37.23.42.23-.18-.12-.43-.25-.48-.28-.1-.05 0 0 0 0l-.09-.06c-.04-.04.34.2.47.28l-.1-.07.14.08c-.21-.13 0 0 .05.01l.04.02c-.12-.08-.08-.06-.19-.11l.35.19c-.34-.22-.15-.08-.44-.26-.06-.03.08.05.07.05-.04-.02-.14-.09-.26-.14l-.06-.03a2.17 2.17 0 0 1-.08-.05l.08.04-.07-.05.06.03c-.02-.01-.31-.2.07.03-.32-.18-.04-.02.08.06l.1.04.15.1c.04.01-.14-.1.12.06l-.5-.31c-.27-.17.18.1.24.13l-.02-.02.3.18c.03 0-.1-.06-.1-.07 0 0 .32.18.14.07-.11-.07-.34-.19-.37-.22l.53.3-.28-.18c.19.12.36.23.55.33-.43-.28.14.07.16.08l-.2-.14c.16.09.63.37.36.2l.18.09c-.02-.02-.28-.17-.23-.15l.19.12c.4.23.3.13.7.38a18.78 18.78 0 0 1 2.35 1.45c.03.03-.13-.08-.06-.03l.35.23L6 7.65l1.02.68-.07-.06.2.15zM3.65 6.77l-.2-.12c-.1-.06-.26-.12-.18-.1ZM5.5 7.94c-.08-.06 0-.03.06.02 0 0 .05.05-.06-.02zm-.88-.57zM6.85 9.3c.1.02.03 0-.03-.01a.16.16 0 0 0 .03.01zm.07.02c.08.02.24.02.12 0zM5.21 7.74l.13.08-.13-.08zm2.14 1.47zm.25.12.1-.02-.1.02zm-1.66-.32-.12-.05.06.02a1.43 1.43 0 0 0-.05-.02l.2.08L5.94 9zm-.86-.38a2.2 2.2 0 0 1-.16-.09s.02 0-.04-.03c-.04-.02.02.02-.06-.02-.08-.05.03 0 .03 0a1.1 1.1 0 0 1-.14-.08l.18.1.06.03c.05.02.02.02.03.02 0 .01.17.09.1.07zm.73.32h.02zM3.9 6.92l-.14-.08.14.08zm1.8 2c-.13-.06-.02-.02.1.03l-.1-.03zm.58-.49v.02-.02Zm.3.2zm.13.63s-.16-.02.08.03c-.12-.03 0 0 0 0l-.25-.08c-.04 0 .13.04.17.05zM3.74 7.71l.11.12a.96.96 0 0 1-.11-.12zm3.4-3.23zM6.42 6.7h.05l.1.03-.03-.01c-.02-.01-.04-.03-.07-.09a.22.22 0 0 1 .04-.24c0 .01 0 0 0 0a.22.22 0 0 0-.04.26c.03.06.07.08.07.08.08.03-.05-.03-.12-.03zm-.77 2.2a2.39 2.39 0 0 1-.23-.11c.05.01.17.08.23.1zm.32-3.62-.05.04a.3.3 0 0 0 .06-.05h-.01zm.08 3.78a.9.9 0 0 1-.17-.07zM3.8 7.79a.74.74 0 0 1-.1-.1c.01 0 .08.1.1.1zm2.1-2.2c.03.05.08.14.1.14a1.24 1.24 0 0 0-.1-.13ZM10 1.2ZM6.3 5c.11-.07-.01 0 0 .01.07-.05.25-.18.12-.1L6.3 5zm-.1.07c0 .01-.08.07-.01.02.03-.02.07-.06.01-.02zM8.98 1.3a6.65 6.65 0 0 1 .6-.07l-.13.02a17.14 17.14 0 0 1-.47.05zm-.85.15c.1-.04.14-.03.13-.03-.13.04-.05 0-.05 0l-.08.03zm.67-.13ZM4.46 8.28c-.07-.04 0 0 .04.03l-.04-.03zm1.7-3.17a5.03 5.03 0 0 0-.2.15l.2-.15zM5.4 6.37l-.05-.02c-.01 0 .04 0 .05.02zm.85 2.77c.08.03.06.03 0 0zM6.1 6.61c-.3-.08-.22-.08.17.03l-.04-.01-.08-.02H6.1zM5 6.14c-.26-.18.24.15.4.2-.16-.05-.34-.15-.09-.02-.38-.19-.21-.12-.23-.13-.02 0-.07-.04-.08-.05zm.72.34.19.07c-.07-.01-.3-.1-.19-.07Zm2.7-4.45ZM3.59 6.7Zm2.53-.76c0 .02.2.3.14.2l-.14-.2zm.43-1.12ZM3.3 6.52Zm.9 1.62c-.02 0-.03-.03-.04-.03l-.02-.01.3.18c.01.02-.15-.09-.19-.11l-.05-.03zm4.04-6.63-.13-.28-.07.26a.15.15 0 0 1 .04-.01.26.26 0 0 0-.04.02l.07-.27.13.28zm.07.19-.06-.16.06.16zM5.99 5.2c-.03.03.06-.04.05-.02l-.08.06a.24.24 0 0 0-.02.02l.02-.01.06-.05.03-.03a6 6 0 0 1 .28-.2c0-.01-.06.03.01-.02l.17-.12c.18-.14.34-.22.6-.37a6.4 6.4 0 0 0-1.01.66l-.05.04-.06.04zM3.63 6.7l-.19-.11.19.11zM8.3 3.47l-.04.12-.03.06a.75.75 0 0 0 .07-.18zM3.47 6.9Zm1.24-1.47.12-.09zm2.33-1.8.05-.24-.05.24zm1.35-1.58-.05-.18c0-.01 0-.06.03.08l.02.1Zm-2.07 4.6.18.05-.18-.05zm-3.34-.33a1.51 1.51 0 0 0-.22-.13Zm2.38 2.46.16.08zm1.17-4.5.1-.04.01-.01-.02.01-.1.05zM4.19 5.86l.27-.24a4.23 4.23 0 0 1-.27.24zM8.45 2.6ZM6.92 3.93l.01-.02a1.03 1.03 0 0 1 0 .02zm.48.37c-.06.03-.05.03-.04.03.05-.03.12-.07.04-.03zM3.56 6.66l-.19-.11c.02 0 .14.08.19.11zm1.16-.72c-.08-.07.25.17.33.21 0 .02-.32-.2-.33-.21zm.93 2.99zm-.43-2.68.08.05a.32.32 0 0 1-.08-.05zm.54-.8-.01-.02.04.04-.03-.05v.03s0 .02 0 0zM4.64 3.79l-.12.24.12-.24zm.48 4.89.21.1-.21-.1zm3.27-6.63Zm-.1 1.47-.03.06a1.02 1.02 0 0 1 .02-.06zm-3.76.52-.08.19.07-.19zm2.56-.8v-.01a.55.55 0 0 0-.03-.3.76.76 0 0 0-.1-.18l.04.06c.07.09.12.28.1.42-.02.15-.04.23-.01 0V3.1v.14zM3.94 6.1a.66.66 0 0 0-.1.12l.1-.12zm1.54-1.23zM3.7 6.4a.23.23 0 0 0-.03.06l.03-.06Zm4.72-4.07.02.26a3.03 3.03 0 0 1-.08.66l.03-.11.02-.1V3a2.65 2.65 0 0 0 .03-.42 1 1 0 0 0-.02-.25Zm-2.69 2.4Zm-.6 3.97Zm-.16-3.47c.28-.19.07-.05.1-.08zm3.47-3.85c-.05 0 0-.02.07-.02l-.07.02zm2.47-.4c-.02 0 .02-.02.06-.05L11 .89a.93.93 0 0 1-.1.08Zm-1.75.28L9 1.29l.15-.03zm-2.08 1.7zm-3.53 3.7c-.02.02-.06.12-.04.1l.04-.1zm4.9-4.07ZM3.86 6.15 4 6.03c.06-.08-.08.07-.13.12zM6.2 9.17l-.08-.04.08.04zM9.5 1.2c.05 0 .13-.02.14-.01Zm1.3-.2a.87.87 0 0 1-.18.07l-.19.03.2-.03h.03A.91.91 0 0 0 10.8 1zM8.4 2.15s.01.16.02.14a.49.49 0 0 0-.02-.14ZM5.95 9.06c-.07-.01.07.05.13.06l-.13-.06zM3.43 6.94c0 .07.03-.1.04-.13a.99.99 0 0 0-.04.13zm1.84-1.95c-.22.13-.09.07-.05.05zm-2.84.96ZM5.7 2.6ZM3.57 7.57l-.08-.16a1.36 1.36 0 0 1-.02-.07l.05.1-.04-.1a.84.84 0 0 1-.05-.37.56.56 0 0 0 0 .12l-.02.04c0 .01.01.12.06.21a2.12 2.12 0 0 0 .1.23zM4.83 5.3l.06-.04.02-.02zM3.75 7.8a.9.9 0 0 1-.1-.13l.1.14zm.06-1.58-.1.14c.02-.04.17-.22.1-.14zm1.12-1 .14-.1zM5.74 9c.1.05.06.02-.03-.03-.03 0 .02.02.03.03zm.35.14.3.1-.21-.07-.05-.02H6.1zm-.26-.1c.1.05.13.05.05.01-.03 0-.07-.02-.05 0zm-.43-.2a2.11 2.11 0 0 0-.08-.03ZM11.19.28V.13v.14zM1.87 5.45 1.8 5.4l.14.1c.05.01-.03-.03-.06-.05Zm-.17-.14c.01 0-.02-.03.07.03.05.04-.29-.15-.34-.2l.27.16zm-.55-.4Zm.4.24ZM10.48.83c-.07 0-.14.03-.03.01h.03zm-9.2 4.13ZM10.44.82c-.1 0-.07.02-.06.02a.9.9 0 0 0 .22-.03h-.02.02c-.2.03-.12 0-.16 0zm-.46.06c-.09.02.15 0 .19-.01zm-.56.06L9.2.96l.22-.02zm-.1 0c-.09 0-.1.02-.01 0zm-.45.05c-.05 0-.1.02-.02.01l.02-.01zM10.3.8c-.07.01-.16.03-.01.01l-.16.03c.2-.02.18-.03.24-.04.08 0 .08 0 .06.01L10.6.8h-.03c.1-.03.2-.09.26-.15a.63.63 0 0 1-.26.15l.03-.01-.16.01-.12.02c-.05 0 0 0 0 0Zm-2.01.28c-.15.03-.05.02.03 0zM1.14 4.82c.17.1.04.04.4.24-.16-.08-.01 0-.04 0-.03-.02-.11-.08-.07-.04-.06-.05-.36-.22-.37-.23l.08.03ZM9.4.9c-.05-.01-.07.02-.17.01-.13.04.36-.04.42-.02-.53.05.36-.02-.02-.01.3-.03.1-.02.15-.03l.2-.02-.3.03-.2.02zm.6-.05zm.83-.26a.54.54 0 0 1-.14.13c.06-.03.13-.1.14-.13zM8.1 2.4ZM9.17.93c-.1 0-.05.02.02 0zM1.27 4.9c.02 0 .26.15.3.18a4.76 4.76 0 0 1-.3-.18ZM10.88.5a.51.51 0 0 1-.19.22c-.01.01.01 0 0 0l-.13.05h.03-.1c-.02 0 .03.01-.02.02l.13-.02-.03.01a.68.68 0 0 0 .2-.11c.06-.05.09-.1.09-.1 0-.02-.05.07.03-.07zm-.23.24-.08.04h.02a2.16 2.16 0 0 1 0-.01h-.03Zm-.39.06Zm-2.09.28-.2.07c.05-.03.2-.06.2-.07Zm-6.01 4.3Zm7-4.48ZM10.4.75l.1-.01.07-.01h-.04c.06 0 .1-.03.08-.02l-.07.03h.03c-.12 0-.25.02-.17 0zm-2.3.31zM9.2.88 9.94.8c-.08.02-.16.02-.27.03H9.6c-.02 0-.45.07-.39.05zm1.23-.14.14-.02-.04.01c.1-.03.19-.1.19-.1.04-.03-.06.07-.19.1h.04zM9.16.88c.06-.02.35-.04.15-.01l-.15.01zm-1.03.17s-.23.06-.24.08c.04-.03.36-.11.24-.08zM8.24 1s.05 0-.05.02l-.16.03a.37.37 0 0 0-.06.03c.15-.05.53-.13.27-.08zm2.2-.28.08-.01-.07.01zm-2.54 1c-.04-.1.07.24.07.26l-.07-.25zM2.33 5.45c.09.06.03.03.03.03l.17.1c.07.03.05.03.16.1-.18-.1-.02-.01-.02 0l-.31-.2c-.02 0 .07.05.04.03-.1-.05-.4-.26-.07-.06zM10.55.71h.03-.04a1 1 0 0 0 .14-.06l.05-.03c0 .01-.12.08-.19.1h.04-.03zM6.7 3.06c-.02-.04.01.06.01.08l-.01-.08zm-.45.9c-.09.05-.18.12-.06.05l.06-.05zm-.9 1.89c-.09-.05-.09-.04-.03 0h.02zm.6-2.94c.02 0 .1-.06.1-.06-.03.02-.14.1-.1.06zm-.58 2.95.1.06-.1-.06ZM8.93.88l-.29.05.3-.05zm-2.41 2.9zM5.47 5.14c-.02.04.01 0 .04-.04.04-.04.07-.07.04-.05zm.82-.66-.16.12.15-.12zM2.54 5.56a.88.88 0 0 1 .14.08c.01 0-.11-.05-.14-.08zm2.3-.09zm1.8-2.02-.04.16.05-.16zM5.68 6a.19.19 0 0 0-.07-.02c.04.02.1.04.07.02zM5.2 3.68l.07-.1a.87.87 0 0 0-.07.1zM7.98 2.1c0 .06-.04-.12-.05-.17l.05.17zM6.69 6.8s.09-.04.14-.1a.23.23 0 0 0 .04-.26c-.03-.06-.07-.08-.08-.09a.19.19 0 0 0-.05-.03.33.33 0 0 0-.04-.01l.02.01.04.02.06.04c.01.02.04.05.06.11.03.08-.02.18-.06.21a.7.7 0 0 1-.13.1zm-.97-1.91zm.86-.6c-.03 0-.02-.02.07-.07.02 0-.04.03-.03.03l.23-.13v-.01l.2-.11.15-.08.14-.08c.21-.1.48-.27.52-.41a.5.5 0 0 1-.18.22c.05-.05-.26.18-.08.05-.06.05-.95.53-1.02.58zm-.7-.14zm.77-.9v-.13c0-.02.01 0 .01 0V3.1c.02.08 0 .01 0 .05v.02l-.01.13v-.06l.02-.02v-.05c.01-.05-.02-.1-.02-.13 0 0 .04.07.03.13l-.03.18-.01.01a2.17 2.17 0 0 1-.05.2.54.54 0 0 1-.04.12l.04-.1c0 .02.07-.33.04-.26.02-.1.01.02.02-.07zm-.09-.28h.02v.01a.63.63 0 0 0-.3-.15.21.21 0 0 0-.08 0l-.04.01-.07.02.12-.04h.08a.71.71 0 0 1 .3.15c.02.03.04.05.05.09-.03-.06-.02-.03-.07-.08a.46.46 0 0 0 0-.01zm-.83 3.19L5.62 6l.1.16zm1.94 2.67zm-.53.99a.53.53 0 0 0 .14 0zM4.98 4.1Zm.48 5.23zm-.56-.27.17.1s-.15-.1-.17-.1zm.8-3.08s.17.07.23.08a1.3 1.3 0 0 1-.22-.08zm-.91-.62.11.12.23.2a1.3 1.3 0 0 1-.36-.35l.02.03zm.76.55a1.35 1.35 0 0 1-.16-.07l.16.07zM7.38 8.6l.2.15-.2-.15zM4.96 4.16l-.09.21c-.03.07.08-.2.1-.21zM6.7 6.84a.41.41 0 0 1-.27.03c-.1-.02-.18-.07-.23-.1.03 0 .08.05.18.08.1.04.25.03.32-.01zm-.43-.68Zm-4.02-.84Z"/>
</svg>
